<svg width="65" height="64" viewBox="0 0 65 64" fill="none" xmlns="http://www.w3.org/2000/svg">
<path d="M29.6338 10.5415C26.4353 7.24625 22.2047 7.51145 21.4014 13.37C20.6914 18.5425 21.249 20.856 22.885 23.0821C24.521 25.3081 26.4956 27.3455 29.7702 26.3699C31.7273 25.787 34.0382 25.1429 34.811 20.4912C35.6224 15.5966 29.6338 10.5415 29.6338 10.5415Z" fill="#3E3E3E"/>
<path d="M2.52466 36.5052C1.9502 32.219 3.3634 30.3466 8.32022 31.7083C13.277 33.0699 15.5531 35.7396 16.252 38.2573C16.951 40.775 16.4656 43.9876 13.7903 45.7591C12.1916 46.8176 11.1586 47.9835 7.21093 45.7406C3.05656 43.3803 2.52466 36.5052 2.52466 36.5052Z" fill="#3E3E3E"/>
<path d="M45.2294 18.1339C42.6402 14.6627 40.3157 14.3023 37.7163 18.7205C35.1169 23.1386 35.3549 26.6326 36.6168 28.9228C37.8786 31.213 40.4759 33.1784 43.6338 32.5902C45.5211 32.2388 47.0778 32.3569 48.3372 28.0077C49.6619 23.4311 45.2294 18.1339 45.2294 18.1339Z" fill="#3E3E3E"/>
<path d="M46.1562 37.0874C42.3824 33.749 40.1776 35.7266 35.1645 31.5387C29.3252 26.6596 24.6034 29.0235 24.602 29.0243C24.6006 29.0251 19.6506 30.8767 19.3503 38.4313C19.0922 44.9159 16.1291 45.1915 16.073 50.1992C16.0377 53.3074 19.4706 57.045 24.3772 54.7906C28.9348 52.6963 30.9422 53.3141 34.7326 51.7656C38.4457 50.0437 39.3394 48.1615 43.9774 46.2478C48.9714 44.1871 48.4985 39.1593 46.1562 37.0874Z" fill="#3E3E3E"/>
<path d="M7.56977 19.7819C7.69729 15.1923 10.9934 12.5288 15.5487 16.3022C19.5705 19.6335 20.7246 21.715 21.0249 24.4609C21.3252 27.2068 21.2482 30.0422 18.1756 31.5364C16.3394 32.4295 14.2001 33.5171 10.486 30.6111C6.57608 27.5539 7.56977 19.7819 7.56977 19.7819Z" fill="#3E3E3E"/>
<path d="M16.7672 36.2149H19.9721C22.652 36.2149 24.523 36.8486 25.5853 38.1161C26.6596 39.3836 27.1968 40.8925 27.1968 42.6428C27.1968 43.862 26.9674 44.9907 26.5087 46.0288C26.05 47.0549 25.2895 47.8938 24.2273 48.5456C23.1771 49.1975 21.7949 49.5234 20.0808 49.5234H16.7672V36.2149ZM20.2981 47.7308C21.9639 47.7308 23.171 47.2601 23.9194 46.3185C24.6799 45.3649 25.0602 44.1698 25.0602 42.7334C25.0602 41.3331 24.6799 40.1924 23.9194 39.3112C23.1589 38.43 21.9518 37.9894 20.2981 37.9894H18.7952V47.7308H20.2981Z" fill="white"/>
<path d="M31.714 49.7045C30.8569 49.7045 30.0965 49.5113 29.4325 49.1251C28.7686 48.7388 28.2556 48.2137 27.8935 47.5498C27.5313 46.8859 27.3503 46.1495 27.3503 45.3407C27.3503 44.544 27.5253 43.8137 27.8754 43.1498C28.2375 42.4859 28.7505 41.9608 29.4144 41.5745C30.0783 41.1882 30.8449 40.9951 31.714 40.9951C32.5831 40.9951 33.3436 41.1882 33.9955 41.5745C34.6594 41.9608 35.1664 42.4859 35.5164 43.1498C35.8786 43.8137 36.0596 44.544 36.0596 45.3407C36.0596 46.1495 35.8786 46.8859 35.5164 47.5498C35.1543 48.2137 34.6413 48.7388 33.9773 49.1251C33.3255 49.5113 32.5711 49.7045 31.714 49.7045ZM31.7683 48.1111C32.4684 48.1111 33.0177 47.8516 33.416 47.3325C33.8265 46.8134 34.0317 46.1616 34.0317 45.377C34.0317 44.5923 33.8144 43.9344 33.3798 43.4033C32.9453 42.8601 32.3719 42.5885 31.6597 42.5885C30.9716 42.5885 30.4163 42.8541 29.9938 43.3852C29.5834 43.9163 29.3782 44.5803 29.3782 45.377C29.3782 46.1495 29.6015 46.8014 30.0482 47.3325C30.4948 47.8516 31.0682 48.1111 31.7683 48.1111Z" fill="white"/>
<path d="M40.9183 53.8691C40.3027 53.8691 39.6931 53.7846 39.0896 53.6156C38.4981 53.4466 38.0756 53.2896 37.8221 53.1448L38.2566 51.3341C39.0533 51.8532 39.9225 52.1127 40.864 52.1127C41.5883 52.1127 42.1979 51.9377 42.6928 51.5876C43.1877 51.2375 43.4412 50.5555 43.4533 49.5415V48.0568C43.1998 48.5275 42.7894 48.9199 42.222 49.2337C41.6547 49.5476 41.027 49.7045 40.3389 49.7045C39.6147 49.7045 38.9507 49.5295 38.3472 49.1794C37.7436 48.8173 37.2668 48.3042 36.9167 47.6403C36.5667 46.9764 36.3916 46.2038 36.3916 45.3226C36.3916 44.4777 36.5546 43.7292 36.8805 43.0774C37.2185 42.4135 37.6953 41.9004 38.311 41.5383C38.9266 41.1762 39.6448 40.9951 40.4657 40.9951C40.9485 40.9951 41.4012 41.0796 41.8237 41.2486C42.2462 41.4176 42.6023 41.6288 42.892 41.8823C43.1938 42.1238 43.3929 42.3652 43.4895 42.6066L43.5257 41.2124H45.3726V49.4691C45.3726 50.8814 45.0105 51.9678 44.2862 52.7283C43.5619 53.4888 42.4393 53.8691 40.9183 53.8691ZM40.8821 48.0568C41.5702 48.0568 42.1496 47.8214 42.6204 47.3506C43.0912 46.8678 43.3265 46.24 43.3265 45.4675V45.3407C43.3265 44.8217 43.2179 44.3569 43.0006 43.9465C42.7833 43.5361 42.4876 43.2162 42.1134 42.9869C41.7392 42.7575 41.3288 42.6428 40.8821 42.6428C40.1096 42.6428 39.512 42.8963 39.0896 43.4033C38.6671 43.8982 38.4558 44.544 38.4558 45.3407C38.4558 46.1495 38.661 46.8074 39.0714 47.3144C39.4939 47.8093 40.0975 48.0568 40.8821 48.0568Z" fill="white"/>
<path d="M50.6493 53.8691C50.0337 53.8691 49.4241 53.7846 48.8206 53.6156C48.2291 53.4466 47.8066 53.2896 47.5531 53.1448L47.9876 51.3341C48.7843 51.8532 49.6535 52.1127 50.595 52.1127C51.3193 52.1127 51.9289 51.9377 52.4238 51.5876C52.9187 51.2375 53.1722 50.5555 53.1843 49.5415V48.0568C52.9308 48.5275 52.5204 48.9199 51.953 49.2337C51.3857 49.5476 50.758 49.7045 50.0699 49.7045C49.3457 49.7045 48.6817 49.5295 48.0782 49.1794C47.4746 48.8173 46.9978 48.3042 46.6477 47.6403C46.2977 46.9764 46.1226 46.2038 46.1226 45.3226C46.1226 44.4777 46.2856 43.7292 46.6115 43.0774C46.9495 42.4135 47.4263 41.9004 48.042 41.5383C48.6576 41.1762 49.3758 40.9951 50.1967 40.9951C50.6795 40.9951 51.1322 41.0796 51.5547 41.2486C51.9772 41.4176 52.3333 41.6288 52.623 41.8823C52.9248 42.1238 53.1239 42.3652 53.2205 42.6066L53.2567 41.2124H55.1036V49.4691C55.1036 50.8814 54.7415 51.9678 54.0172 52.7283C53.2929 53.4888 52.1703 53.8691 50.6493 53.8691ZM50.6131 48.0568C51.3012 48.0568 51.8806 47.8214 52.3514 47.3506C52.8222 46.8678 53.0575 46.24 53.0575 45.4675V45.3407C53.0575 44.8217 52.9489 44.3569 52.7316 43.9465C52.5143 43.5361 52.2186 43.2162 51.8444 42.9869C51.4702 42.7575 51.0598 42.6428 50.6131 42.6428C49.8406 42.6428 49.243 42.8963 48.8206 43.4033C48.3981 43.8982 48.1868 44.544 48.1868 45.3407C48.1868 46.1495 48.392 46.8074 48.8024 47.3144C49.2249 47.8093 49.8285 48.0568 50.6131 48.0568Z" fill="white"/>
<path d="M58.7326 49.7769L55.2923 41.2124H57.5014L59.2758 46.4996L59.6742 47.7852L60.0725 46.4996L61.9375 41.2124H64.0741L58.968 54.0863H56.94L58.7326 49.7769Z" fill="white"/>
<path fill-rule="evenodd" clip-rule="evenodd" d="M16.2014 35.649H19.9722C22.7164 35.649 24.7963 36.2947 26.018 37.7515C27.1104 39.0408 27.6879 40.5629 27.7558 42.2939C28.1244 41.8068 28.5837 41.4032 29.1299 41.0854C29.8911 40.6425 30.7583 40.4292 31.714 40.4292C32.6686 40.4292 33.5311 40.6421 34.282 41.0865C35.0332 41.524 35.6147 42.1246 36.0151 42.8823C36.0788 42.9993 36.1375 43.118 36.1911 43.2385C36.2459 43.0974 36.307 42.9593 36.3744 42.8243L36.3763 42.8206C36.761 42.0649 37.3113 41.4698 38.0241 41.0506C38.739 40.63 39.5593 40.4292 40.4657 40.4292C41.0161 40.4292 41.5405 40.5259 42.0339 40.7232C42.3737 40.8591 42.6836 41.023 42.9596 41.2172L42.9744 40.6465H45.9385V43.1969C45.989 43.0702 46.0446 42.946 46.1054 42.8243L46.1073 42.8206C46.492 42.0649 47.0423 41.4698 47.7551 41.0506C48.47 40.63 49.2903 40.4292 50.1967 40.4292C50.7471 40.4292 51.2715 40.5259 51.7649 40.7232C52.1047 40.8591 52.4146 41.023 52.6906 41.2172L52.7054 40.6465H57.9083L59.6776 45.9182L61.5371 40.6465H64.9073L59.3523 54.6521H56.0919L58.1214 49.7731L55.6695 43.6692V49.4691C55.6695 50.9755 55.2819 52.2208 54.427 53.1185C53.5557 54.0334 52.2551 54.4349 50.6494 54.4349C49.9812 54.4349 49.3203 54.3431 48.668 54.1604L48.6651 54.1596C48.067 53.9887 47.5887 53.8168 47.2724 53.636L46.9038 53.4254L47.6246 50.4222L48.2966 50.86C49.0023 51.3198 49.7643 51.5468 50.5951 51.5468C51.2256 51.5468 51.7151 51.3958 52.0971 51.1256C52.3667 50.9349 52.6066 50.4898 52.6185 49.538V49.4861C52.4948 49.5721 52.3641 49.6529 52.227 49.7288C51.5706 50.0919 50.8478 50.2703 50.07 50.2703C49.2499 50.2703 48.4875 50.0709 47.7943 49.6688L47.7907 49.6667L47.7871 49.6646C47.0889 49.2456 46.5422 48.6533 46.1472 47.9042C46.0699 47.7574 46.0003 47.6067 45.9385 47.452V49.4691C45.9385 50.9755 45.551 52.2208 44.696 53.1185C43.8247 54.0334 42.5241 54.4349 40.9184 54.4349C40.2502 54.4349 39.5893 54.3431 38.937 54.1604L38.9341 54.1596C38.336 53.9887 37.8577 53.8168 37.5414 53.636L37.1728 53.4254L37.8936 50.4222L38.5655 50.86C39.2713 51.3198 40.0333 51.5468 40.8641 51.5468C41.4946 51.5468 41.9841 51.3958 42.3661 51.1256C42.6357 50.9349 42.8756 50.4899 42.8875 49.5381V49.4861C42.7638 49.5721 42.6332 49.6529 42.496 49.7288C41.8396 50.0919 41.1168 50.2703 40.339 50.2703C39.5189 50.2703 38.7565 50.0709 38.0633 49.6688L38.0597 49.6667L38.0561 49.6646C37.3579 49.2456 36.8112 48.6533 36.4162 47.9042C36.3364 47.7527 36.2648 47.5969 36.2015 47.437C36.1446 47.567 36.0818 47.6949 36.0132 47.8207C35.6011 48.5761 35.0148 49.1756 34.264 49.6129C33.5143 50.0567 32.6582 50.2703 31.714 50.2703C30.7689 50.2703 29.908 50.0563 29.148 49.6141C28.3962 49.1767 27.8092 48.5768 27.3967 47.8207C27.1706 47.4061 27.0078 46.968 26.9072 46.5082C26.3894 47.5352 25.5878 48.3744 24.5245 49.0271C23.3566 49.7516 21.8607 50.0892 20.0808 50.0892H16.2014V35.649ZM24.2273 48.5456C25.2895 47.8938 26.05 47.0548 26.5087 46.0288C26.6124 45.7942 26.7043 45.5551 26.7845 45.3113C26.993 44.6778 27.1224 44.0131 27.1727 43.3171C27.1888 43.0955 27.1968 42.8707 27.1968 42.6428C27.1968 40.8925 26.6596 39.3836 25.5853 38.1161C24.523 36.8486 22.652 36.2149 19.9722 36.2149H16.7673V49.5234H20.0808C21.7949 49.5234 23.1771 49.1975 24.2273 48.5456ZM27.3506 45.3996C27.3592 46.1853 27.5402 46.902 27.8935 47.5497C28.2556 48.2137 28.7686 48.7388 29.4326 49.125C30.0965 49.5113 30.857 49.7045 31.714 49.7045C32.5711 49.7045 33.3255 49.5113 33.9774 49.125C34.6413 48.7388 35.1543 48.2137 35.5165 47.5497C35.7006 47.2122 35.8379 46.8559 35.9284 46.481C36.0159 46.1184 36.0597 45.7383 36.0597 45.3407C36.0597 45.3347 36.0597 45.3286 36.0596 45.3226C36.0583 44.9304 36.0129 44.5544 35.9236 44.1945C35.8331 43.8297 35.6974 43.4814 35.5165 43.1498C35.1664 42.4859 34.6594 41.9608 33.9955 41.5745C33.3436 41.1882 32.5832 40.9951 31.714 40.9951C30.8449 40.9951 30.0784 41.1882 29.4145 41.5745C28.7505 41.9608 28.2375 42.4859 27.8754 43.1498C27.8229 43.2493 27.7744 43.3503 27.7298 43.4528C27.4768 44.0341 27.3503 44.6634 27.3503 45.3407C27.3503 45.3604 27.3504 45.38 27.3506 45.3996ZM36.5068 46.4892C36.594 46.9036 36.7306 47.2873 36.9168 47.6403C37.2668 48.3042 37.7436 48.8172 38.3472 49.1794C38.9508 49.5294 39.6147 49.7045 40.339 49.7045C41.027 49.7045 41.6547 49.5475 42.2221 49.2337C42.4751 49.0937 42.6969 48.9381 42.8875 48.767C43.1243 48.5543 43.3129 48.3176 43.4533 48.0567V49.5415C43.4413 50.5555 43.1878 51.2375 42.6928 51.5876C42.1979 51.9376 41.5883 52.1127 40.8641 52.1127C40.1203 52.1127 39.4217 51.9507 38.7683 51.6268C38.5946 51.5407 38.424 51.4431 38.2567 51.3341L37.8221 53.1448C38.0756 53.2896 38.4981 53.4465 39.0896 53.6155C39.6931 53.7845 40.3027 53.869 40.9184 53.869C42.4393 53.869 43.562 53.4888 44.2862 52.7283C45.0105 51.9678 45.3727 50.8814 45.3727 49.4691V41.2124H43.5258L43.4895 42.6066C43.3983 42.3786 43.2156 42.1505 42.9413 41.9225C42.9252 41.9091 42.9088 41.8957 42.892 41.8823C42.6023 41.6288 42.2462 41.4176 41.8237 41.2486C41.4012 41.0796 40.9486 40.9951 40.4657 40.9951C39.6449 40.9951 38.9266 41.1761 38.311 41.5383C37.6954 41.9004 37.2185 42.4134 36.8806 43.0774C36.7095 43.4194 36.5834 43.788 36.5021 44.1832C36.4285 44.5412 36.3917 44.921 36.3917 45.3226C36.3917 45.3286 36.3917 45.3347 36.3917 45.3407C36.3928 45.7467 36.4312 46.1295 36.5068 46.4892ZM39.0896 43.4033C39.5121 42.8963 40.1096 42.6428 40.8822 42.6428C41.3288 42.6428 41.7392 42.7575 42.1134 42.9868C42.4876 43.2162 42.7834 43.5361 43.0007 43.9465C43.2179 44.3569 43.3266 44.8217 43.3266 45.3407V45.4675C43.3266 46.24 43.0912 46.8677 42.6204 47.3506C42.1496 47.8214 41.5702 48.0567 40.8822 48.0567C40.0975 48.0567 39.494 47.8093 39.0715 47.3144C38.6611 46.8074 38.4558 46.1495 38.4558 45.3407C38.4558 44.544 38.6671 43.8982 39.0896 43.4033ZM39.5066 46.9525C39.7994 47.2922 40.2293 47.4909 40.8822 47.4909C41.4245 47.4909 41.8575 47.3121 42.2178 46.953C42.5688 46.5917 42.7607 46.1141 42.7607 45.4675V45.3407C42.7607 44.9029 42.6698 44.5309 42.5006 44.2112C42.3278 43.885 42.1005 43.6426 41.8177 43.4693C41.5342 43.2955 41.2264 43.2086 40.8822 43.2086C40.2457 43.2086 39.8204 43.4102 39.5243 43.7655L39.52 43.7707C39.2033 44.1416 39.0217 44.6473 39.0217 45.3407C39.0217 46.0482 39.1987 46.5691 39.5066 46.9525ZM52.6185 48.767C52.8553 48.5543 53.0439 48.3176 53.1843 48.0567V49.5415C53.1723 50.5555 52.9188 51.2375 52.4238 51.5876C51.9289 51.9376 51.3193 52.1127 50.5951 52.1127C49.8513 52.1127 49.1527 51.9507 48.4993 51.6268C48.3256 51.5407 48.155 51.4431 47.9877 51.3341L47.5531 53.1448C47.8066 53.2896 48.2291 53.4465 48.8206 53.6155C49.4241 53.7845 50.0337 53.869 50.6494 53.869C52.1703 53.869 53.293 53.4888 54.0172 52.7283C54.7415 51.9678 55.1036 50.8814 55.1036 49.4691V41.2124H53.2568L53.2205 42.6066C53.1293 42.3786 52.9466 42.1505 52.6723 41.9225C52.6562 41.9091 52.6398 41.8957 52.623 41.8823C52.3333 41.6288 51.9772 41.4176 51.5547 41.2486C51.1322 41.0796 50.6796 40.9951 50.1967 40.9951C49.3759 40.9951 48.6576 41.1761 48.042 41.5383C47.4264 41.9004 46.9495 42.4134 46.6116 43.0774C46.2856 43.7292 46.1227 44.4776 46.1227 45.3226C46.1227 46.2038 46.2977 46.9764 46.6478 47.6403C46.9978 48.3042 47.4746 48.8172 48.0782 49.1794C48.6818 49.5294 49.3457 49.7045 50.07 49.7045C50.758 49.7045 51.3857 49.5475 51.9531 49.2337C52.2061 49.0937 52.4279 48.9381 52.6185 48.767ZM58.7327 49.7769L56.9401 54.0863H58.968L64.0742 41.2124H61.9376L60.0726 46.4996L59.6742 47.7851L59.2759 46.4996L57.5014 41.2124H55.2924L58.7327 49.7769ZM23.4765 45.9664L23.4771 45.9657C24.144 45.1294 24.4944 44.0654 24.4944 42.7333C24.4944 41.44 24.1457 40.4394 23.4911 39.6808C22.8774 38.9697 21.8589 38.5552 20.2981 38.5552H19.3611V47.165H20.2981C21.8617 47.165 22.8727 46.7261 23.4765 45.9664ZM18.7952 47.7308V37.9893H20.2981C21.9519 37.9893 23.159 38.4299 23.9195 39.3111C24.6799 40.1923 25.0602 41.3331 25.0602 42.7333C25.0602 44.1698 24.6799 45.3649 23.9195 46.3185C23.171 47.26 21.9639 47.7308 20.2981 47.7308H18.7952ZM32.9697 46.9847L32.9722 46.9815C33.2896 46.5801 33.4659 46.0588 33.4659 45.3769C33.4659 44.7032 33.2821 44.1773 32.9419 43.7616L32.938 43.7568C32.6137 43.3515 32.2048 43.1543 31.6597 43.1543C31.1427 43.1543 30.7522 43.3424 30.4391 43.7344C30.1205 44.1484 29.9441 44.683 29.9441 45.3769C29.9441 46.0311 30.1295 46.5488 30.4792 46.9658C30.8152 47.3551 31.2299 47.5452 31.7683 47.5452C32.3068 47.5452 32.6843 47.3565 32.9672 46.988L32.9697 46.9847ZM49.2509 43.7707C48.9343 44.1416 48.7527 44.6473 48.7527 45.3407C48.7527 46.0482 48.9297 46.5691 49.2376 46.9525C49.5304 47.2922 49.9603 47.4909 50.6132 47.4909C51.1555 47.4909 51.5885 47.3121 51.9487 46.9531C52.2997 46.5917 52.4917 46.1142 52.4917 45.4675V45.3407C52.4917 44.9029 52.4008 44.5309 52.2316 44.2112C52.0588 43.885 51.8315 43.6426 51.5487 43.4693C51.2652 43.2955 50.9574 43.2086 50.6132 43.2086C49.9767 43.2086 49.5514 43.4102 49.2553 43.7655L49.2509 43.7707ZM52.3514 47.3506C51.8806 47.8214 51.3012 48.0567 50.6132 48.0567C49.8285 48.0567 49.225 47.8093 48.8025 47.3144C48.3921 46.8074 48.1868 46.1495 48.1868 45.3407C48.1868 44.544 48.3981 43.8982 48.8206 43.4033C49.2431 42.8963 49.8406 42.6428 50.6132 42.6428C51.0598 42.6428 51.4702 42.7575 51.8444 42.9868C52.2186 43.2162 52.5144 43.5361 52.7317 43.9465C52.9489 44.3569 53.0576 44.8217 53.0576 45.3407V45.4675C53.0576 46.24 52.8222 46.8677 52.3514 47.3506ZM33.4161 47.3325C33.0177 47.8515 32.4685 48.1111 31.7683 48.1111C31.0682 48.1111 30.4948 47.8515 30.0482 47.3325C29.6016 46.8013 29.3782 46.1495 29.3782 45.3769C29.3782 44.5802 29.5835 43.9163 29.9939 43.3852C30.4164 42.854 30.9716 42.5885 31.6597 42.5885C32.3719 42.5885 32.9453 42.8601 33.3799 43.4033C33.8144 43.9344 34.0317 44.5923 34.0317 45.3769C34.0317 46.1616 33.8265 46.8134 33.4161 47.3325Z" fill="#3E3E3E"/>
<path d="M30.1993 39.4508C30.1993 39.6861 30.1405 39.8831 30.0228 40.0415C29.9051 40.1999 29.7376 40.3199 29.5203 40.4014C29.303 40.4828 29.045 40.5236 28.7462 40.5236C28.4927 40.5236 28.2732 40.5032 28.0876 40.4625C27.9065 40.4217 27.7458 40.3652 27.6055 40.2927V39.7495C27.7503 39.8219 27.9246 39.8898 28.1283 39.9532C28.3366 40.0121 28.5471 40.0415 28.7598 40.0415C29.0631 40.0415 29.2826 39.994 29.4184 39.8989C29.5542 39.7993 29.6221 39.668 29.6221 39.5051C29.6221 39.4145 29.5972 39.3331 29.5475 39.2606C29.4977 39.1882 29.4071 39.1158 29.2758 39.0434C29.1491 38.9709 28.9658 38.8894 28.7259 38.7989C28.4905 38.7084 28.289 38.6178 28.1215 38.5273C27.9541 38.4368 27.825 38.3281 27.7345 38.2014C27.644 38.0746 27.5987 37.9117 27.5987 37.7125C27.5987 37.4047 27.7232 37.167 27.9722 36.9995C28.2257 36.8321 28.5561 36.7483 28.9635 36.7483C29.1853 36.7483 29.3913 36.7709 29.5814 36.8162C29.7761 36.857 29.9571 36.9158 30.1246 36.9928L29.9209 37.4681C29.8213 37.4228 29.7149 37.3843 29.6018 37.3526C29.4931 37.3164 29.3822 37.2893 29.2691 37.2711C29.1559 37.2485 29.0405 37.2372 28.9228 37.2372C28.6783 37.2372 28.4905 37.2779 28.3592 37.3594C28.2324 37.4364 28.1691 37.5428 28.1691 37.6786C28.1691 37.7781 28.1985 37.8641 28.2573 37.9366C28.3162 38.0045 28.4135 38.0724 28.5493 38.1403C28.6896 38.2036 28.8752 38.2806 29.1061 38.3711C29.337 38.4571 29.5339 38.5454 29.6968 38.636C29.8598 38.7265 29.9843 38.8374 30.0703 38.9687C30.1563 39.0954 30.1993 39.2561 30.1993 39.4508Z" fill="white"/>
<path d="M32.4978 40.0347C32.5884 40.0347 32.6812 40.0279 32.7762 40.0143C32.8713 39.9962 32.9482 39.9781 33.0071 39.96V40.4149C32.9437 40.4466 32.8532 40.4715 32.7355 40.4896C32.6178 40.5123 32.5046 40.5236 32.396 40.5236C32.2059 40.5236 32.0293 40.4919 31.8664 40.4285C31.7079 40.3606 31.5789 40.2452 31.4793 40.0822C31.3797 39.9193 31.3299 39.6907 31.3299 39.3964V37.2779H30.8139V36.9928L31.3367 36.7551L31.5744 35.981H31.9275V36.8162H32.9799V37.2779H31.9275V39.3829C31.9275 39.6047 31.9795 39.7699 32.0836 39.8785C32.1923 39.9826 32.3303 40.0347 32.4978 40.0347Z" fill="white"/>
<path d="M36.7099 36.8162V40.4557H36.221L36.1327 39.9736H36.1056C36.0286 40.1003 35.929 40.2045 35.8068 40.2859C35.6846 40.3674 35.5511 40.4263 35.4062 40.4625C35.2614 40.5032 35.1097 40.5236 34.9513 40.5236C34.6616 40.5236 34.4171 40.4783 34.2179 40.3878C34.0233 40.2927 33.8762 40.1479 33.7766 39.9532C33.677 39.7586 33.6272 39.5073 33.6272 39.1995V36.8162H34.2315V39.1588C34.2315 39.4485 34.2972 39.6658 34.4284 39.8106C34.5597 39.9555 34.7634 40.0279 35.0395 40.0279C35.3111 40.0279 35.5239 39.9781 35.6778 39.8785C35.8362 39.7744 35.9472 39.625 36.0105 39.4304C36.0784 39.2312 36.1124 38.9913 36.1124 38.7106V36.8162H36.7099Z" fill="white"/>
<path d="M38.8159 40.5236C38.3633 40.5236 38.0011 40.3674 37.7295 40.0551C37.4579 39.7382 37.3221 39.2674 37.3221 38.6427C37.3221 38.0181 37.4579 37.5473 37.7295 37.2304C38.0057 36.909 38.3701 36.7483 38.8227 36.7483C39.0128 36.7483 39.1781 36.7732 39.3184 36.823C39.4587 36.8683 39.5809 36.9316 39.6851 37.0131C39.7892 37.0946 39.8774 37.1851 39.9499 37.2847H39.9906C39.9861 37.2259 39.977 37.1399 39.9635 37.0267C39.9544 36.909 39.9499 36.8162 39.9499 36.7483V35.2952H40.5474V40.4557H40.0653L39.977 39.9668H39.9499C39.8774 40.0709 39.7892 40.166 39.6851 40.252C39.5809 40.3335 39.4565 40.3991 39.3116 40.4489C39.1713 40.4987 39.0061 40.5236 38.8159 40.5236ZM38.911 40.0279C39.2958 40.0279 39.5651 39.9238 39.719 39.7156C39.8774 39.5028 39.9567 39.1837 39.9567 38.7582V38.6495C39.9567 38.1969 39.882 37.8506 39.7326 37.6107C39.5832 37.3662 39.3071 37.244 38.9042 37.244C38.5828 37.244 38.3406 37.373 38.1777 37.631C38.0192 37.8845 37.94 38.2263 37.94 38.6563C37.94 39.0909 38.0192 39.4281 38.1777 39.668C38.3406 39.908 38.5851 40.0279 38.911 40.0279Z" fill="white"/>
<path d="M41.9613 36.8162V40.4557H41.3638V36.8162H41.9613ZM41.6693 35.4514C41.7599 35.4514 41.8391 35.4831 41.907 35.5465C41.9794 35.6053 42.0156 35.7004 42.0156 35.8317C42.0156 35.9584 41.9794 36.0535 41.907 36.1168C41.8391 36.1802 41.7599 36.2119 41.6693 36.2119C41.5698 36.2119 41.486 36.1802 41.4181 36.1168C41.3502 36.0535 41.3163 35.9584 41.3163 35.8317C41.3163 35.7004 41.3502 35.6053 41.4181 35.5465C41.486 35.4831 41.5698 35.4514 41.6693 35.4514Z" fill="white"/>
<path d="M46.0069 38.6292C46.0069 38.9324 45.9662 39.2018 45.8847 39.4372C45.8077 39.668 45.6946 39.865 45.5452 40.0279C45.4003 40.1909 45.2215 40.3154 45.0088 40.4014C44.8006 40.4828 44.5674 40.5236 44.3094 40.5236C44.0695 40.5236 43.8477 40.4828 43.644 40.4014C43.4403 40.3154 43.2637 40.1909 43.1144 40.0279C42.965 39.865 42.8473 39.668 42.7613 39.4372C42.6798 39.2018 42.6391 38.9324 42.6391 38.6292C42.6391 38.2263 42.707 37.8868 42.8428 37.6107C42.9786 37.33 43.1732 37.1172 43.4267 36.9724C43.6802 36.823 43.9812 36.7483 44.3298 36.7483C44.6602 36.7483 44.9499 36.823 45.1989 36.9724C45.4524 37.1172 45.6493 37.33 45.7896 37.6107C45.9345 37.8868 46.0069 38.2263 46.0069 38.6292ZM43.2569 38.6292C43.2569 38.9143 43.2932 39.1633 43.3656 39.3761C43.4425 39.5843 43.5602 39.745 43.7187 39.8582C43.8771 39.9713 44.0785 40.0279 44.323 40.0279C44.5674 40.0279 44.7689 39.9713 44.9273 39.8582C45.0857 39.745 45.2012 39.5843 45.2736 39.3761C45.3505 39.1633 45.389 38.9143 45.389 38.6292C45.389 38.3395 45.3505 38.0927 45.2736 37.889C45.1966 37.6853 45.0789 37.5292 44.9205 37.4205C44.7666 37.3074 44.5652 37.2508 44.3162 37.2508C43.945 37.2508 43.6757 37.373 43.5082 37.6174C43.3407 37.8619 43.2569 38.1991 43.2569 38.6292Z" fill="white"/>
</svg>
