<svg width="82" height="80" viewBox="0 0 82 80" fill="none" xmlns="http://www.w3.org/2000/svg">
<path d="M37.0158 13.1768C33.0176 9.05781 27.7295 9.3893 26.7253 16.7125C25.8378 23.1781 26.5348 26.07 28.5798 28.8526C30.6248 31.6351 33.093 34.1818 37.1863 32.9624C39.6326 32.2338 42.5213 31.4286 43.4873 25.614C44.5015 19.4957 37.0158 13.1768 37.0158 13.1768Z" fill="#3E3E3E"/>
<path d="M3.12938 45.6315C2.4113 40.2738 4.1778 37.9333 10.3738 39.6354C16.5698 41.3375 19.4149 44.6745 20.2886 47.8217C21.1623 50.9688 20.5556 54.9845 17.2114 57.1989C15.213 58.522 13.9218 59.9794 8.98722 57.1758C3.79425 54.2254 3.12938 45.6315 3.12938 45.6315Z" fill="#3E3E3E"/>
<path d="M56.5102 22.6674C53.2737 18.3284 50.3681 17.8779 47.1189 23.4006C43.8696 28.9233 44.1671 33.2908 45.7445 36.1535C47.3218 39.0163 50.5684 41.4731 54.5157 40.7378C56.8749 40.2985 58.8207 40.4461 60.395 35.0097C62.0509 29.2889 56.5102 22.6674 56.5102 22.6674Z" fill="#3E3E3E"/>
<path d="M57.6688 46.3592C52.9515 42.1862 50.1956 44.6583 43.9291 39.4233C36.63 33.3245 30.7278 36.2794 30.726 36.2804C30.7243 36.2814 24.5368 38.5959 24.1615 48.0391C23.8388 56.1449 20.135 56.4893 20.0648 62.749C20.0207 66.6342 24.3118 71.3063 30.445 68.4882C36.1421 65.8704 38.6513 66.6426 43.3893 64.707C48.0307 62.5546 49.1477 60.2019 54.9454 57.8097C61.1878 55.2339 60.5967 48.9491 57.6688 46.3592Z" fill="#3E3E3E"/>
<path d="M9.43582 24.7273C9.59522 18.9904 13.7153 15.661 19.4095 20.3778C24.4368 24.5418 25.8793 27.1437 26.2547 30.5761C26.63 34.0084 26.5339 37.5528 22.6931 39.4205C20.3979 40.5369 17.7237 41.8964 13.0811 38.2638C8.19371 34.4423 9.43582 24.7273 9.43582 24.7273Z" fill="#3E3E3E"/>
<path d="M20.9326 45.2686H24.9388C28.2885 45.2686 30.6273 46.0608 31.9551 47.6451C33.2981 49.2295 33.9695 51.1156 33.9695 53.3035C33.9695 54.8275 33.6828 56.2383 33.1095 57.536C32.5361 58.8186 31.5855 59.8672 30.2576 60.682C28.9449 61.4969 27.2172 61.9043 25.0746 61.9043H20.9326V45.2686ZM25.3462 59.6635C27.4284 59.6635 28.9373 59.0751 29.8729 57.8981C30.8235 56.7061 31.2988 55.2123 31.2988 53.4167C31.2988 51.6664 30.8235 50.2404 29.8729 49.1389C28.9223 48.0374 27.4133 47.4867 25.3462 47.4867H23.4676V59.6635H25.3462Z" fill="white"/>
<path d="M39.6161 62.1306C38.5447 62.1306 37.5941 61.8892 36.7642 61.4063C35.9343 60.9235 35.2931 60.2671 34.8404 59.4372C34.3877 58.6073 34.1614 57.6869 34.1614 56.6759C34.1614 55.68 34.3802 54.7672 34.8178 53.9373C35.2704 53.1074 35.9117 52.451 36.7416 51.9681C37.5715 51.4853 38.5296 51.2439 39.6161 51.2439C40.7025 51.2439 41.6531 51.4853 42.4679 51.9681C43.2978 52.451 43.9315 53.1074 44.3691 53.9373C44.8218 54.7672 45.0481 55.68 45.0481 56.6759C45.0481 57.6869 44.8218 58.6073 44.3691 59.4372C43.9164 60.2671 43.2751 60.9235 42.4452 61.4063C41.6304 61.8892 40.6874 62.1306 39.6161 62.1306ZM39.684 60.1388C40.5591 60.1388 41.2457 59.8144 41.7436 59.1656C42.2566 58.5168 42.5132 57.702 42.5132 56.7212C42.5132 55.7404 42.2415 54.918 41.6983 54.2541C41.1551 53.5751 40.4384 53.2356 39.5482 53.2356C38.6881 53.2356 37.994 53.5676 37.4659 54.2315C36.9528 54.8954 36.6963 55.7253 36.6963 56.7212C36.6963 57.6869 36.9755 58.5017 37.5338 59.1656C38.0921 59.8144 38.8088 60.1388 39.684 60.1388Z" fill="white"/>
<path d="M51.1215 67.3363C50.352 67.3363 49.59 67.2307 48.8355 67.0194C48.0961 66.8082 47.568 66.612 47.2512 66.431L47.7944 64.1676C48.7902 64.8164 49.8766 65.1408 51.0536 65.1408C51.9589 65.1408 52.7209 64.9221 53.3396 64.4845C53.9582 64.0469 54.2751 63.1944 54.2902 61.9269V60.0709C53.9733 60.6594 53.4603 61.1498 52.7511 61.5421C52.0419 61.9344 51.2573 62.1306 50.3972 62.1306C49.4919 62.1306 48.662 61.9118 47.9075 61.4742C47.1531 61.0215 46.5571 60.3803 46.1195 59.5504C45.6819 58.7205 45.4631 57.7548 45.4631 56.6533C45.4631 55.597 45.6668 54.6615 46.0742 53.8467C46.4967 53.0168 47.0927 52.3755 47.8623 51.9229C48.6318 51.4702 49.5296 51.2439 50.5557 51.2439C51.1592 51.2439 51.7251 51.3495 52.2532 51.5607C52.7813 51.772 53.2264 52.036 53.5885 52.3529C53.9658 52.6547 54.2147 52.9565 54.3355 53.2582L54.3807 51.5155H56.6893V61.8364C56.6893 63.6018 56.2367 64.9598 55.3313 65.9104C54.426 66.861 53.0227 67.3363 51.1215 67.3363ZM51.0762 60.0709C51.9363 60.0709 52.6606 59.7767 53.249 59.1882C53.8375 58.5847 54.1318 57.8 54.1318 56.8343V56.6759C54.1318 56.0271 53.996 55.4462 53.7243 54.9331C53.4527 54.4201 53.0831 54.0202 52.6153 53.7336C52.1475 53.4469 51.6345 53.3035 51.0762 53.3035C50.1105 53.3035 49.3636 53.6204 48.8355 54.2541C48.3074 54.8728 48.0433 55.68 48.0433 56.6759C48.0433 57.6869 48.2998 58.5092 48.8129 59.143C49.341 59.7616 50.0954 60.0709 51.0762 60.0709Z" fill="white"/>
<path d="M63.2852 67.3363C62.5157 67.3363 61.7537 67.2307 60.9993 67.0194C60.2599 66.8082 59.7318 66.612 59.4149 66.431L59.9581 64.1676C60.954 64.8164 62.0404 65.1408 63.2173 65.1408C64.1227 65.1408 64.8847 64.9221 65.5033 64.4845C66.122 64.0469 66.4388 63.1944 66.4539 61.9269V60.0709C66.1371 60.6594 65.624 61.1498 64.9149 61.5421C64.2057 61.9344 63.421 62.1306 62.561 62.1306C61.6556 62.1306 60.8257 61.9118 60.0713 61.4742C59.3168 61.0215 58.7208 60.3803 58.2832 59.5504C57.8456 58.7205 57.6269 57.7548 57.6269 56.6533C57.6269 55.597 57.8306 54.6615 58.238 53.8467C58.6605 53.0168 59.2565 52.3755 60.026 51.9229C60.7956 51.4702 61.6934 51.2439 62.7194 51.2439C63.323 51.2439 63.8888 51.3495 64.4169 51.5607C64.945 51.772 65.3902 52.036 65.7523 52.3529C66.1295 52.6547 66.3785 52.9565 66.4992 53.2582L66.5445 51.5155H68.8531V61.8364C68.8531 63.6018 68.4004 64.9598 67.4951 65.9104C66.5897 66.861 65.1865 67.3363 63.2852 67.3363ZM63.24 60.0709C64.1 60.0709 64.8243 59.7767 65.4128 59.1882C66.0013 58.5847 66.2955 57.8 66.2955 56.8343V56.6759C66.2955 56.0271 66.1597 55.4462 65.8881 54.9331C65.6165 54.4201 65.2468 54.0202 64.7791 53.7336C64.3113 53.4469 63.7983 53.3035 63.24 53.3035C62.2743 53.3035 61.5274 53.6204 60.9993 54.2541C60.4711 54.8728 60.2071 55.68 60.2071 56.6759C60.2071 57.6869 60.4636 58.5092 60.9766 59.143C61.5047 59.7616 62.2592 60.0709 63.24 60.0709Z" fill="white"/>
<path d="M73.3893 62.2211L69.089 51.5155H71.8503L74.0683 58.1245L74.5663 59.7314L75.0642 58.1245L77.3955 51.5155H80.0662L73.6836 67.6079H71.1486L73.3893 62.2211Z" fill="white"/>
<path fill-rule="evenodd" clip-rule="evenodd" d="M20.2253 44.5613H24.9388C28.3691 44.5613 30.9689 45.3684 32.4961 47.1894C33.8615 48.8009 34.5835 50.7036 34.6684 52.8673C35.129 52.2585 35.7031 51.754 36.3859 51.3567C37.3374 50.8031 38.4215 50.5365 39.6161 50.5365C40.8093 50.5365 41.8874 50.8026 42.826 51.3582C43.765 51.905 44.492 52.6557 44.9924 53.6028C45.072 53.7491 45.1454 53.8975 45.2125 54.0481C45.2809 53.8717 45.3573 53.6991 45.4416 53.5304L45.4439 53.5258C45.9248 52.5812 46.6127 51.8373 47.5037 51.3132C48.3973 50.7875 49.4226 50.5365 50.5557 50.5365C51.2437 50.5365 51.8992 50.6573 52.5159 50.904C52.9407 51.0739 53.328 51.2787 53.673 51.5215L53.6916 50.8081H57.3967V53.9961C57.4598 53.8377 57.5293 53.6824 57.6054 53.5304L57.6077 53.5258C58.0886 52.5812 58.7765 51.8373 59.6674 51.3132C60.561 50.7875 61.5864 50.5365 62.7194 50.5365C63.4074 50.5365 64.0629 50.6573 64.6796 50.904C65.1044 51.0739 65.4918 51.2787 65.8368 51.5215L65.8553 50.8081H72.359L74.5706 57.3978L76.895 50.8081H81.1077L74.164 68.3152H70.0884L72.6253 62.2164L69.5604 54.5865V61.8363C69.5604 63.7193 69.076 65.276 68.0073 66.3981C66.9181 67.5417 65.2924 68.0436 63.2853 68.0436C62.4501 68.0436 61.624 67.9288 60.8086 67.7005L60.805 67.6995C60.0573 67.4859 59.4594 67.271 59.064 67.045L58.6033 66.7818L59.5043 63.0277L60.3442 63.575C61.2265 64.1497 62.179 64.4335 63.2174 64.4335C64.0055 64.4335 64.6175 64.2447 65.0949 63.907C65.4319 63.6686 65.7318 63.1123 65.7467 61.9224V61.8577C65.592 61.9651 65.4287 62.0661 65.2573 62.161C64.4368 62.6148 63.5333 62.8379 62.561 62.8379C61.536 62.8379 60.5829 62.5886 59.7164 62.086L59.7119 62.0834L59.7074 62.0807C58.8346 61.557 58.1513 60.8166 57.6576 59.8802C57.5609 59.6968 57.474 59.5083 57.3967 59.3149V61.8363C57.3967 63.7193 56.9122 65.276 55.8435 66.3981C54.7544 67.5417 53.1287 68.0436 51.1215 68.0436C50.2863 68.0436 49.4602 67.9288 48.6448 67.7005L48.6412 67.6995C47.8935 67.4859 47.2957 67.271 46.9003 67.045L46.4396 66.7818L47.3406 63.0277L48.1805 63.575C49.0627 64.1497 50.0152 64.4335 51.0536 64.4335C51.8418 64.4335 52.4537 64.2447 52.9312 63.907C53.2681 63.6686 53.5681 63.1123 53.5829 61.9226V61.8577C53.4283 61.9651 53.265 62.0661 53.0935 62.161C52.2731 62.6148 51.3695 62.8379 50.3972 62.8379C49.3722 62.8379 48.4192 62.5886 47.5527 62.086L47.5482 62.0834L47.5437 62.0807C46.6709 61.557 45.9876 60.8166 45.4939 59.8802C45.394 59.6909 45.3046 59.4961 45.2255 59.2962C45.1543 59.4588 45.0758 59.6187 44.9901 59.7759C44.475 60.7202 43.742 61.4695 42.8035 62.0161C41.8664 62.5709 40.7963 62.8379 39.6161 62.8379C38.4346 62.8379 37.3586 62.5704 36.4086 62.0176C35.4689 61.4709 34.735 60.721 34.2195 59.7759C33.9368 59.2576 33.7334 58.7099 33.6076 58.1352C32.9604 59.419 31.9583 60.4679 30.6292 61.2839C29.1693 62.1895 27.2994 62.6115 25.0746 62.6115H20.2253V44.5613ZM30.2577 60.682C31.5855 59.8672 32.5361 58.8185 33.1095 57.5359C33.239 57.2428 33.3539 56.9438 33.4542 56.6391C33.7148 55.8472 33.8765 55.0163 33.9395 54.1464C33.9595 53.8694 33.9695 53.5884 33.9695 53.3035C33.9695 51.1156 33.2981 49.2294 31.9552 47.6451C30.6273 46.0608 28.2885 45.2686 24.9388 45.2686H20.9326V61.9042H25.0746C27.2172 61.9042 28.9449 61.4968 30.2577 60.682ZM34.1618 56.7495C34.1726 57.7316 34.3988 58.6275 34.8404 59.4372C35.2931 60.2671 35.9344 60.9234 36.7643 61.4063C37.5942 61.8891 38.5448 62.1306 39.6161 62.1306C40.6874 62.1306 41.6305 61.8891 42.4453 61.4063C43.2752 60.9234 43.9165 60.2671 44.3691 59.4372C44.5993 59.0152 44.7709 58.5699 44.884 58.1012C44.9934 57.648 45.0481 57.1729 45.0481 56.6759C45.0481 56.6683 45.0481 56.6608 45.0481 56.6532C45.0464 56.163 44.9897 55.693 44.8781 55.2431C44.7649 54.7871 44.5953 54.3518 44.3691 53.9372C43.9315 53.1073 43.2978 52.4509 42.4679 51.9681C41.6531 51.4853 40.7025 51.2438 39.6161 51.2438C38.5297 51.2438 37.5715 51.4853 36.7416 51.9681C35.9117 52.4509 35.2704 53.1073 34.8178 53.9372C34.7522 54.0616 34.6915 54.1879 34.6358 54.316C34.3195 55.0426 34.1614 55.8293 34.1614 56.6759C34.1614 56.7005 34.1615 56.725 34.1618 56.7495ZM45.6071 58.1114C45.716 58.6295 45.8869 59.1091 46.1195 59.5503C46.5571 60.3802 47.1531 61.0215 47.9076 61.4742C48.662 61.9118 49.4919 62.1306 50.3972 62.1306C51.2573 62.1306 52.0419 61.9344 52.7511 61.5421C53.0674 61.3671 53.3447 61.1727 53.5829 60.9587C53.8789 60.6929 54.1147 60.3969 54.2902 60.0709V61.9269C54.2751 63.1943 53.9583 64.0469 53.3396 64.4844C52.721 64.922 51.959 65.1408 51.0536 65.1408C50.1239 65.1408 49.2507 64.9384 48.4339 64.5335C48.2168 64.4258 48.0036 64.3039 47.7944 64.1676L47.2512 66.4309C47.5681 66.612 48.0962 66.8081 48.8355 67.0194C49.59 67.2306 50.352 67.3363 51.1215 67.3363C53.0227 67.3363 54.426 66.861 55.3314 65.9104C56.2367 64.9597 56.6894 63.6017 56.6894 61.8363V51.5154H54.3807L54.3355 53.2582C54.2215 52.9732 53.993 52.6881 53.6502 52.4031C53.63 52.3863 53.6095 52.3696 53.5886 52.3529C53.2264 52.036 52.7813 51.7719 52.2532 51.5607C51.7251 51.3495 51.1592 51.2438 50.5557 51.2438C49.5296 51.2438 48.6318 51.4702 47.8623 51.9228C47.0928 52.3755 46.4967 53.0168 46.0742 53.8467C45.8605 54.2742 45.7028 54.735 45.6012 55.2289C45.5092 55.6764 45.4631 56.1512 45.4631 56.6532C45.4631 56.6608 45.4631 56.6683 45.4632 56.6759C45.4646 57.1833 45.5125 57.6618 45.6071 58.1114ZM48.8355 54.2541C49.3636 53.6203 50.1106 53.3035 51.0763 53.3035C51.6345 53.3035 52.1476 53.4468 52.6153 53.7335C53.0831 54.0202 53.4528 54.4201 53.7244 54.9331C53.996 55.4461 54.1318 56.027 54.1318 56.6759V56.8343C54.1318 57.8 53.8375 58.5846 53.2491 59.1882C52.6606 59.7767 51.9363 60.0709 51.0763 60.0709C50.0955 60.0709 49.341 59.7616 48.8129 59.1429C48.2999 58.5092 48.0434 57.6868 48.0434 56.6759C48.0434 55.68 48.3074 54.8727 48.8355 54.2541ZM49.3568 58.6906C49.7228 59.1153 50.2602 59.3636 51.0763 59.3636C51.7542 59.3636 52.2955 59.1401 52.7458 58.6912C53.1845 58.2396 53.4245 57.6426 53.4245 56.8343V56.6759C53.4245 56.1286 53.3108 55.6636 53.0993 55.264C52.8834 54.8562 52.5991 54.5532 52.2457 54.3366C51.8912 54.1193 51.5065 54.0108 51.0763 54.0108C50.2806 54.0108 49.7491 54.2627 49.3789 54.7069L49.3735 54.7133C48.9777 55.177 48.7507 55.8091 48.7507 56.6759C48.7507 57.5603 48.9719 58.2114 49.3568 58.6906ZM65.7467 60.9587C66.0426 60.6929 66.2784 60.3969 66.454 60.0709V61.9269C66.4389 63.1943 66.122 64.0469 65.5033 64.4844C64.8847 64.922 64.1227 65.1408 63.2174 65.1408C62.2876 65.1408 61.4144 64.9384 60.5977 64.5335C60.3805 64.4258 60.1673 64.3039 59.9581 64.1676L59.4149 66.4309C59.7318 66.612 60.2599 66.8081 60.9993 67.0194C61.7537 67.2306 62.5157 67.3363 63.2853 67.3363C65.1865 67.3363 66.5898 66.861 67.4951 65.9104C68.4004 64.9597 68.8531 63.6017 68.8531 61.8363V51.5154H66.5445L66.4992 53.2582C66.3852 52.9732 66.1568 52.6881 65.8139 52.4031C65.7938 52.3863 65.7732 52.3696 65.7523 52.3529C65.3902 52.036 64.9451 51.7719 64.4169 51.5607C63.8888 51.3495 63.323 51.2438 62.7194 51.2438C61.6934 51.2438 60.7956 51.4702 60.026 51.9228C59.2565 52.3755 58.6605 53.0168 58.238 53.8467C57.8306 54.6615 57.6269 55.597 57.6269 56.6532C57.6269 57.7547 57.8457 58.7204 58.2833 59.5503C58.7208 60.3802 59.3169 61.0215 60.0713 61.4742C60.8258 61.9118 61.6557 62.1306 62.561 62.1306C63.4211 62.1306 64.2057 61.9344 64.9149 61.5421C65.2312 61.3671 65.5084 61.1727 65.7467 60.9587ZM73.3894 62.2211L71.1486 67.6079H73.6836L80.0662 51.5154H77.3955L75.0642 58.1244L74.5663 59.7314L74.0684 58.1244L71.8503 51.5154H69.089L73.3894 62.2211ZM29.3192 57.458L29.3199 57.4571C30.1535 56.4117 30.5915 55.0817 30.5915 53.4166C30.5915 51.7999 30.1557 50.5492 29.3374 49.601C28.5703 48.7121 27.2972 48.194 25.3462 48.194H24.1749V58.9562H25.3462C27.3007 58.9562 28.5644 58.4076 29.3192 57.458ZM23.4676 59.6635V47.4867H25.3462C27.4134 47.4867 28.9223 48.0374 29.8729 49.1389C30.8235 50.2404 31.2988 51.6663 31.2988 53.4166C31.2988 55.2122 30.8235 56.7061 29.8729 57.8981C28.9374 59.075 27.4285 59.6635 25.3462 59.6635H23.4676ZM41.1856 58.7309L41.1888 58.7269C41.5856 58.2251 41.8059 57.5734 41.8059 56.7211C41.8059 55.8789 41.5761 55.2216 41.1509 54.702L41.146 54.696C40.7407 54.1893 40.2295 53.9429 39.5482 53.9429C38.9019 53.9429 38.4137 54.178 38.0225 54.6679C37.6241 55.1854 37.4037 55.8537 37.4037 56.7211C37.4037 57.5388 37.6354 58.1859 38.0725 58.7072C38.4926 59.1939 39.0109 59.4315 39.684 59.4315C40.3571 59.4315 40.829 59.1957 41.1825 58.7349L41.1856 58.7309ZM61.5372 54.7133C61.1414 55.1769 60.9144 55.8091 60.9144 56.6759C60.9144 57.5603 61.1356 58.2114 61.5205 58.6906C61.8865 59.1153 62.4239 59.3636 63.24 59.3636C63.9179 59.3636 64.4591 59.1401 64.9094 58.6913C65.3482 58.2396 65.5882 57.6427 65.5882 56.8343V56.6759C65.5882 56.1286 65.4745 55.6636 65.263 55.264C65.0471 54.8562 64.7629 54.5532 64.4095 54.3366C64.055 54.1193 63.6703 54.0108 63.24 54.0108C62.4444 54.0108 61.9128 54.2627 61.5426 54.7069L61.5372 54.7133ZM65.4128 59.1882C64.8243 59.7767 64.1001 60.0709 63.24 60.0709C62.2592 60.0709 61.5048 59.7616 60.9766 59.1429C60.4636 58.5092 60.2071 57.6868 60.2071 56.6759C60.2071 55.68 60.4712 54.8727 60.9993 54.2541C61.5274 53.6203 62.2743 53.3035 63.24 53.3035C63.7983 53.3035 64.3113 53.4468 64.7791 53.7335C65.2468 54.0202 65.6165 54.4201 65.8881 54.9331C66.1597 55.4461 66.2955 56.027 66.2955 56.6759V56.8343C66.2955 57.8 66.0013 58.5846 65.4128 59.1882ZM41.7436 59.1656C41.2457 59.8144 40.5591 60.1388 39.684 60.1388C38.8088 60.1388 38.0921 59.8144 37.5338 59.1656C36.9755 58.5016 36.6964 57.6868 36.6964 56.7211C36.6964 55.7253 36.9529 54.8954 37.4659 54.2315C37.994 53.5675 38.6881 53.2356 39.5482 53.2356C40.4384 53.2356 41.1552 53.5751 41.6984 54.2541C42.2416 54.918 42.5132 55.7404 42.5132 56.7211C42.5132 57.7019 42.2567 58.5167 41.7436 59.1656Z" fill="#3E3E3E"/>
<path d="M37.7227 49.3134C37.7227 49.6076 37.6491 49.8538 37.502 50.0518C37.3549 50.2499 37.1455 50.3998 36.8739 50.5017C36.6023 50.6035 36.2798 50.6544 35.9063 50.6544C35.5895 50.6544 35.315 50.629 35.083 50.5781C34.8567 50.5271 34.6558 50.4564 34.4804 50.3659V49.6869C34.6615 49.7774 34.8793 49.8623 35.134 49.9415C35.3942 50.0151 35.6574 50.0518 35.9233 50.0518C36.3024 50.0518 36.5768 49.9924 36.7466 49.8736C36.9163 49.7491 37.0012 49.585 37.0012 49.3813C37.0012 49.2681 36.9701 49.1663 36.9079 49.0758C36.8456 48.9852 36.7324 48.8947 36.5684 48.8042C36.4099 48.7136 36.1808 48.6118 35.8809 48.4986C35.5866 48.3854 35.3348 48.2723 35.1255 48.1591C34.9161 48.0459 34.7548 47.9101 34.6417 47.7517C34.5285 47.5933 34.4719 47.3896 34.4719 47.1406C34.4719 46.7558 34.6275 46.4588 34.9387 46.2494C35.2556 46.04 35.6687 45.9354 36.1779 45.9354C36.4552 45.9354 36.7126 45.9637 36.9503 46.0202C37.1936 46.0712 37.4199 46.1447 37.6293 46.2409L37.3747 46.835C37.2502 46.7785 37.1172 46.7304 36.9758 46.6908C36.84 46.6455 36.7013 46.6115 36.5599 46.5889C36.4184 46.5606 36.2741 46.5465 36.127 46.5465C35.8214 46.5465 35.5866 46.5974 35.4225 46.6992C35.2641 46.7954 35.1849 46.9284 35.1849 47.0982C35.1849 47.2226 35.2217 47.3301 35.2952 47.4207C35.3688 47.5056 35.4904 47.5904 35.6602 47.6753C35.8356 47.7545 36.0676 47.8507 36.3562 47.9639C36.6447 48.0714 36.8909 48.1817 37.0946 48.2949C37.2983 48.4081 37.4539 48.5467 37.5614 48.7108C37.6689 48.8692 37.7227 49.0701 37.7227 49.3134Z" fill="white"/>
<path d="M40.5958 50.0433C40.709 50.0433 40.825 50.0349 40.9438 50.0179C41.0627 49.9952 41.1588 49.9726 41.2324 49.95V50.5186C41.1532 50.5583 41.04 50.5894 40.8929 50.612C40.7458 50.6403 40.6043 50.6544 40.4685 50.6544C40.2309 50.6544 40.0102 50.6148 39.8065 50.5356C39.6085 50.4507 39.4472 50.3065 39.3227 50.1028C39.1982 49.8991 39.136 49.6133 39.136 49.2455V46.5974H38.4909V46.2409L39.1445 45.9438L39.4415 44.9763H39.8829V46.0202H41.1985V46.5974H39.8829V49.2285C39.8829 49.5058 39.948 49.7123 40.0781 49.8481C40.2139 49.9783 40.3865 50.0433 40.5958 50.0433Z" fill="white"/>
<path d="M45.8609 46.0202V50.5696H45.2498L45.1395 49.967H45.1055C45.0093 50.1254 44.8848 50.2555 44.7321 50.3574C44.5793 50.4592 44.4124 50.5328 44.2313 50.5781C44.0502 50.629 43.8607 50.6544 43.6626 50.6544C43.3005 50.6544 42.9949 50.5979 42.746 50.4847C42.5027 50.3659 42.3188 50.1848 42.1943 49.9415C42.0698 49.6982 42.0076 49.3841 42.0076 48.9994V46.0202H42.763V48.9484C42.763 49.3106 42.845 49.5822 43.0091 49.7633C43.1732 49.9443 43.4278 50.0349 43.773 50.0349C44.1125 50.0349 44.3784 49.9726 44.5708 49.8481C44.7689 49.718 44.9075 49.5313 44.9867 49.2879C45.0716 49.039 45.114 48.7391 45.114 48.3883V46.0202H45.8609Z" fill="white"/>
<path d="M48.4935 50.6544C47.9276 50.6544 47.4749 50.4592 47.1354 50.0688C46.7959 49.6727 46.6262 49.0842 46.6262 48.3034C46.6262 47.5225 46.7959 46.9341 47.1354 46.538C47.4806 46.1362 47.9361 45.9354 48.5019 45.9354C48.7396 45.9354 48.9461 45.9665 49.1215 46.0287C49.2969 46.0853 49.4497 46.1645 49.5799 46.2664C49.71 46.3682 49.8203 46.4814 49.9109 46.6059H49.9618C49.9561 46.5323 49.9448 46.4248 49.9279 46.2833C49.9165 46.1362 49.9109 46.0202 49.9109 45.9354V44.119H50.6578V50.5696H50.0552L49.9448 49.9585H49.9109C49.8203 50.0886 49.71 50.2074 49.5799 50.3149C49.4497 50.4168 49.2941 50.4988 49.1131 50.5611C48.9376 50.6233 48.7311 50.6544 48.4935 50.6544ZM48.6123 50.0349C49.0932 50.0349 49.4299 49.9047 49.6223 49.6444C49.8203 49.3785 49.9194 48.9796 49.9194 48.4477V48.3119C49.9194 47.746 49.826 47.3132 49.6393 47.0133C49.4526 46.7077 49.1074 46.555 48.6038 46.555C48.2021 46.555 47.8993 46.7162 47.6956 47.0387C47.4976 47.3556 47.3986 47.7828 47.3986 48.3204C47.3986 48.8636 47.4976 49.2851 47.6956 49.585C47.8993 49.8849 48.2049 50.0349 48.6123 50.0349Z" fill="white"/>
<path d="M52.4252 46.0202V50.5696H51.6783V46.0202H52.4252ZM52.0602 44.3142C52.1734 44.3142 52.2724 44.3538 52.3573 44.4331C52.4478 44.5066 52.4931 44.6254 52.4931 44.7895C52.4931 44.948 52.4478 45.0668 52.3573 45.146C52.2724 45.2252 52.1734 45.2648 52.0602 45.2648C51.9357 45.2648 51.8311 45.2252 51.7462 45.146C51.6613 45.0668 51.6189 44.948 51.6189 44.7895C51.6189 44.6254 51.6613 44.5066 51.7462 44.4331C51.8311 44.3538 51.9357 44.3142 52.0602 44.3142Z" fill="white"/>
<path d="M57.4822 48.2864C57.4822 48.6655 57.4313 49.0022 57.3294 49.2964C57.2332 49.585 57.0918 49.8312 56.905 50.0349C56.724 50.2386 56.5005 50.3942 56.2345 50.5017C55.9742 50.6035 55.6828 50.6544 55.3603 50.6544C55.0604 50.6544 54.7831 50.6035 54.5285 50.5017C54.2739 50.3942 54.0532 50.2386 53.8665 50.0349C53.6798 49.8312 53.5326 49.585 53.4251 49.2964C53.3233 49.0022 53.2724 48.6655 53.2724 48.2864C53.2724 47.7828 53.3572 47.3584 53.527 47.0133C53.6967 46.6625 53.94 46.3965 54.2569 46.2154C54.5738 46.0287 54.9501 45.9354 55.3858 45.9354C55.7988 45.9354 56.161 46.0287 56.4722 46.2154C56.789 46.3965 57.0352 46.6625 57.2106 47.0133C57.3917 47.3584 57.4822 47.7828 57.4822 48.2864ZM54.0447 48.2864C54.0447 48.6429 54.09 48.9541 54.1805 49.22C54.2767 49.4803 54.4238 49.6812 54.6219 49.8227C54.8199 49.9641 55.0717 50.0349 55.3773 50.0349C55.6828 50.0349 55.9346 49.9641 56.1327 49.8227C56.3307 49.6812 56.475 49.4803 56.5655 49.22C56.6617 48.9541 56.7098 48.6429 56.7098 48.2864C56.7098 47.9243 56.6617 47.6159 56.5655 47.3613C56.4693 47.1066 56.3222 46.9114 56.1242 46.7756C55.9318 46.6342 55.68 46.5634 55.3688 46.5634C54.9048 46.5634 54.5681 46.7162 54.3588 47.0218C54.1494 47.3273 54.0447 47.7489 54.0447 48.2864Z" fill="white"/>
</svg>
