<svg width="34" height="35" viewBox="0 0 34 35" fill="none" xmlns="http://www.w3.org/2000/svg">
<path d="M16.6797 8.91149C11.9475 8.91149 8.13058 12.7857 8.13058 17.5888C8.13058 22.392 11.9475 26.2662 16.6797 26.2662C21.4118 26.2662 25.2288 22.392 25.2288 17.5888C25.2288 12.7857 21.4118 8.91149 16.6797 8.91149ZM16.6797 23.2302C13.6217 23.2302 11.1216 20.7003 11.1216 17.5888C11.1216 14.4774 13.6142 11.9474 16.6797 11.9474C19.7452 11.9474 22.2377 14.4774 22.2377 17.5888C22.2377 20.7003 19.7377 23.2302 16.6797 23.2302ZM27.5725 8.55654C27.5725 9.6818 26.6797 10.5805 25.5785 10.5805C24.4699 10.5805 23.5844 9.67425 23.5844 8.55654C23.5844 7.43883 24.4773 6.53258 25.5785 6.53258C26.6797 6.53258 27.5725 7.43883 27.5725 8.55654ZM33.2347 10.6107C33.1083 7.89951 32.4981 5.49795 30.5413 3.5193C28.5919 1.54066 26.2258 0.921387 23.5547 0.785449C20.8017 0.626855 12.5502 0.626855 9.79725 0.785449C7.13356 0.913835 4.76748 1.53311 2.81064 3.51175C0.853795 5.4904 0.251116 7.89196 0.117187 10.6032C-0.0390625 13.3974 -0.0390625 21.7727 0.117187 24.567C0.243676 27.2782 0.853795 29.6797 2.81064 31.6584C4.76748 33.637 7.12612 34.2563 9.79725 34.3922C12.5502 34.5508 20.8017 34.5508 23.5547 34.3922C26.2258 34.2638 28.5919 33.6446 30.5413 31.6584C32.4907 29.6797 33.1008 27.2782 33.2347 24.567C33.391 21.7727 33.391 13.405 33.2347 10.6107ZM29.6782 27.5651C29.0978 29.0453 27.9743 30.1857 26.5086 30.7823C24.3136 31.6659 19.1053 31.462 16.6797 31.462C14.2541 31.462 9.03832 31.6584 6.85082 30.7823C5.39248 30.1933 4.26897 29.0529 3.68118 27.5651C2.81064 25.3373 3.01153 20.0508 3.01153 17.5888C3.01153 15.1269 2.81808 9.83284 3.68118 7.61253C4.26153 6.13232 5.38504 4.99196 6.85082 4.39534C9.04576 3.51175 14.2541 3.71566 16.6797 3.71566C19.1053 3.71566 24.3211 3.5193 26.5086 4.39534C27.9669 4.98441 29.0904 6.12477 29.6782 7.61253C30.5487 9.8404 30.3478 15.1269 30.3478 17.5888C30.3478 20.0508 30.5487 25.3448 29.6782 27.5651Z" fill="#3E3E3E"/>
</svg>
