<svg width="264" height="118" viewBox="0 0 264 118" fill="none" xmlns="http://www.w3.org/2000/svg">
<g clip-path="url(#clip0_164_829)">
<path d="M87.7267 52.0404C86.3213 50.6 84.4621 50.7162 84.1087 53.2775C83.7963 55.539 84.0412 56.5504 84.76 57.5235C85.4788 58.4966 86.3465 59.3872 87.7856 58.9605C88.6457 58.7055 89.6613 58.4237 90.0012 56.39C90.3581 54.2501 87.7267 52.0404 87.7267 52.0404Z" fill="#3E3E3E"/>
<path d="M75.8136 63.3924C75.5614 61.5185 76.1826 60.6999 78.3609 61.2948C80.5391 61.8898 81.5391 63.0568 81.8461 64.1575C82.1531 65.2582 81.9396 66.6627 80.7638 67.4373C80.0612 67.9002 79.6071 68.41 77.8724 67.4297C76.0469 66.398 75.8136 63.3924 75.8136 63.3924Z" fill="#3E3E3E"/>
<path d="M94.5795 55.3598C93.4419 53.8424 92.4204 53.685 91.2778 55.6167C90.1352 57.5484 90.2395 59.076 90.7939 60.0771C91.3483 61.0783 92.4896 61.9374 93.8774 61.68C94.7068 61.5262 95.3909 61.5778 95.9447 59.6763C96.5271 57.6754 94.5795 55.3598 94.5795 55.3598Z" fill="#3E3E3E"/>
<path d="M94.9868 63.6455C93.3286 62.1863 92.3597 63.051 90.157 61.2205C87.5913 59.088 85.5162 60.1217 85.5156 60.122C85.515 60.1224 83.3396 60.9321 83.2072 64.2347C83.0933 67.0696 81.7912 67.1903 81.7662 69.3795C81.7505 70.7383 83.2588 72.372 85.4151 71.3861C87.418 70.4703 88.3001 70.7403 89.9658 70.0631C91.5976 69.3101 91.9905 68.4872 94.0287 67.6503C96.2234 66.7491 96.0159 64.5511 94.9868 63.6455Z" fill="#3E3E3E"/>
<path d="M78.0306 56.0809C78.0869 54.0744 79.5356 52.9097 81.5373 54.5591C83.3045 56.0152 83.8115 56.9251 83.9433 58.1256C84.075 59.326 84.041 60.5657 82.6906 61.2191C81.8837 61.6097 80.9434 62.0853 79.3114 60.8151C77.5934 59.4788 78.0306 56.0809 78.0306 56.0809Z" fill="#3E3E3E"/>
<path d="M78.7604 26.2833C78.7604 27.4683 78.4626 28.4596 77.8671 29.2572C77.2716 30.0548 76.4242 30.6586 75.3248 31.0688C74.2254 31.479 72.9199 31.6841 71.4082 31.6841C70.1256 31.6841 69.0147 31.5816 68.0757 31.3765C67.1595 31.1714 66.3464 30.8865 65.6364 30.5219V27.7873C66.3693 28.1519 67.2511 28.4938 68.2818 28.8128C69.3354 29.109 70.4004 29.2572 71.4769 29.2572C73.0115 29.2572 74.1223 29.0179 74.8094 28.5393C75.4966 28.038 75.8401 27.3771 75.8401 26.5567C75.8401 26.101 75.7142 25.6908 75.4622 25.3262C75.2103 24.9616 74.7522 24.597 74.088 24.2323C73.4467 23.8677 72.519 23.4575 71.3051 23.0018C70.1141 22.546 69.0949 22.0902 68.2475 21.6345C67.4 21.1787 66.7472 20.6318 66.2892 19.9937C65.8311 19.3557 65.6021 18.5353 65.6021 17.5326C65.6021 15.983 66.2319 14.7866 67.4916 13.9434C68.7743 13.1003 70.4462 12.6787 72.5076 12.6787C73.6299 12.6787 74.672 12.7926 75.634 13.0205C76.6189 13.2256 77.535 13.5219 78.3825 13.9093L77.3518 16.302C76.8479 16.0741 76.3097 15.8804 75.7371 15.7209C75.1874 15.5386 74.6262 15.4019 74.0536 15.3107C73.481 15.1968 72.897 15.1398 72.3015 15.1398C71.0646 15.1398 70.1141 15.3449 69.4499 15.7551C68.8086 16.1425 68.488 16.678 68.488 17.3617C68.488 17.863 68.6368 18.296 68.9346 18.6606C69.2323 19.0024 69.7248 19.3443 70.4119 19.6861C71.1219 20.0051 72.061 20.3925 73.2291 20.8483C74.3972 21.2813 75.3935 21.7256 76.218 22.1814C77.0426 22.6372 77.6724 23.1955 78.1076 23.8563C78.5428 24.4944 78.7604 25.3034 78.7604 26.2833Z" fill="#3E3E3E"/>
<path d="M87.9855 29.223C88.4436 29.223 88.9131 29.1888 89.3941 29.1204C89.8751 29.0293 90.2644 28.9381 90.5622 28.847V31.1372C90.2415 31.2967 89.7835 31.422 89.1879 31.5132C88.5924 31.6271 88.0198 31.6841 87.4702 31.6841C86.5082 31.6841 85.6149 31.5246 84.7904 31.2056C83.9887 30.8637 83.336 30.2826 82.8321 29.4623C82.3282 28.6419 82.0763 27.4911 82.0763 26.0098V15.3449H79.4652V13.9093L82.1106 12.7129L83.3131 8.81607H85.0996V13.0205H90.4248V15.3449H85.0996V25.9415C85.0996 27.0581 85.363 27.8899 85.8898 28.4368C86.4395 28.9609 87.138 29.223 87.9855 29.223Z" fill="#3E3E3E"/>
<path d="M107.923 13.0205V31.3423H105.45L105.003 28.9153H104.866C104.476 29.5534 103.972 30.0775 103.354 30.4877C102.735 30.8979 102.06 31.1942 101.327 31.3765C100.594 31.5816 99.8267 31.6841 99.025 31.6841C97.5592 31.6841 96.3224 31.4562 95.3146 31.0005C94.3297 30.5219 93.5853 29.7927 93.0814 28.8128C92.5776 27.8329 92.3256 26.5681 92.3256 25.0185V13.0205H95.3833V24.8134C95.3833 26.2719 95.7154 27.3657 96.3796 28.095C97.0438 28.8242 98.0745 29.1888 99.4717 29.1888C100.846 29.1888 101.922 28.9381 102.701 28.4368C103.503 27.9127 104.064 27.1606 104.385 26.1807C104.728 25.1781 104.9 23.9703 104.9 22.5574V13.0205H107.923Z" fill="#3E3E3E"/>
<path d="M117.205 31.6841C114.915 31.6841 113.082 30.8979 111.708 29.3255C110.334 27.7303 109.647 25.3604 109.647 22.2156C109.647 19.0708 110.334 16.7008 111.708 15.1056C113.105 13.4877 114.949 12.6787 117.239 12.6787C118.201 12.6787 119.037 12.804 119.747 13.0547C120.457 13.2826 121.076 13.6016 121.603 14.0118C122.129 14.422 122.576 14.8778 122.942 15.3791H123.149C123.126 15.0829 123.08 14.6499 123.011 14.0802C122.965 13.4877 122.942 13.0205 122.942 12.6787V5.36365H125.966V31.3423H123.526L123.08 28.8812H122.942C122.576 29.4053 122.129 29.8838 121.603 30.3168C121.076 30.727 120.446 31.0574 119.713 31.3081C119.003 31.5588 118.167 31.6841 117.205 31.6841ZM117.686 29.1888C119.633 29.1888 120.996 28.6647 121.774 27.6164C122.576 26.5454 122.977 24.9388 122.977 22.7967V22.2498C122.977 19.9709 122.599 18.2276 121.843 17.0199C121.087 15.7893 119.69 15.174 117.652 15.174C116.025 15.174 114.8 15.8235 113.976 17.1224C113.174 18.3985 112.773 20.1191 112.773 22.2839C112.773 24.4716 113.174 26.1693 113.976 27.3771C114.8 28.5849 116.037 29.1888 117.686 29.1888Z" fill="#3E3E3E"/>
<path d="M131.746 13.0205V31.3423H128.722V13.0205H131.746ZM130.268 6.14984C130.726 6.14984 131.127 6.30936 131.471 6.6284C131.837 6.92464 132.02 7.4032 132.02 8.06406C132.02 8.70213 131.837 9.18068 131.471 9.49972C131.127 9.81876 130.726 9.97828 130.268 9.97828C129.764 9.97828 129.341 9.81876 128.997 9.49972C128.654 9.18068 128.482 8.70213 128.482 8.06406C128.482 7.4032 128.654 6.92464 128.997 6.6284C129.341 6.30936 129.764 6.14984 130.268 6.14984Z" fill="#3E3E3E"/>
<path d="M150.841 22.1472C150.841 23.674 150.635 25.0299 150.223 26.2149C149.833 27.3771 149.261 28.3684 148.505 29.1888C147.772 30.0092 146.867 30.6359 145.791 31.0688C144.737 31.479 143.558 31.6841 142.252 31.6841C141.038 31.6841 139.916 31.479 138.885 31.0688C137.854 30.6359 136.961 30.0092 136.205 29.1888C135.45 28.3684 134.854 27.3771 134.419 26.2149C134.007 25.0299 133.8 23.674 133.8 22.1472C133.8 20.1191 134.144 18.4099 134.831 17.0199C135.518 15.607 136.503 14.5359 137.786 13.8067C139.068 13.0547 140.592 12.6787 142.355 12.6787C144.027 12.6787 145.493 13.0547 146.753 13.8067C148.035 14.5359 149.032 15.607 149.742 17.0199C150.475 18.4099 150.841 20.1191 150.841 22.1472ZM136.927 22.1472C136.927 23.5829 137.11 24.8362 137.477 25.9073C137.866 26.9555 138.461 27.7645 139.263 28.3342C140.065 28.9039 141.084 29.1888 142.321 29.1888C143.558 29.1888 144.577 28.9039 145.378 28.3342C146.18 27.7645 146.764 26.9555 147.131 25.9073C147.52 24.8362 147.715 23.5829 147.715 22.1472C147.715 20.6888 147.52 19.4468 147.131 18.4213C146.741 17.3959 146.146 16.6097 145.344 16.0627C144.565 15.493 143.546 15.2082 142.286 15.2082C140.408 15.2082 139.046 15.8235 138.198 17.054C137.351 18.2846 136.927 19.9823 136.927 22.1472Z" fill="#3E3E3E"/>
<path d="M0.0914307 9.33737H17.8277C32.658 9.33737 43.0125 12.8268 48.8912 19.8057C54.8367 26.7846 57.8094 35.0929 57.8094 44.7304C57.8094 51.4435 56.5402 57.658 54.0017 63.3741C51.4631 69.0237 47.2545 73.643 41.3758 77.2322C35.564 80.8214 27.915 82.6159 18.4289 82.6159H0.0914307V9.33737ZM19.6314 72.7458C28.8502 72.7458 35.5306 70.1536 39.6724 64.9693C43.881 59.7185 45.9853 53.1383 45.9853 45.2289C45.9853 37.5189 43.881 31.2379 39.6724 26.3859C35.4637 21.5338 28.7834 19.1078 19.6314 19.1078H11.3144V72.7458H19.6314Z" fill="#3E3E3E"/>
<path d="M82.8082 83.6129C78.0652 83.6129 73.8566 82.5495 70.1824 80.4226C66.5082 78.2956 63.6691 75.4044 61.665 71.7488C59.6609 68.0932 58.6588 64.0387 58.6588 59.5855C58.6588 55.1988 59.6275 51.1776 61.5648 47.522C63.5689 43.8664 66.408 40.9751 70.0822 38.8482C73.7564 36.7213 77.9984 35.6578 82.8082 35.6578C87.618 35.6578 91.8266 36.7213 95.434 38.8482C99.1082 40.9751 101.914 43.8664 103.851 47.522C105.855 51.1776 106.857 55.1988 106.857 59.5855C106.857 64.0387 105.855 68.0932 103.851 71.7488C101.847 75.4044 99.008 78.2956 95.3338 80.4226C91.7264 82.5495 87.5512 83.6129 82.8082 83.6129ZM83.1088 74.8394C86.9834 74.8394 90.0229 73.4104 92.2275 70.5524C94.4988 67.6944 95.6344 64.1052 95.6344 59.7849C95.6344 55.4646 94.432 51.8423 92.027 48.9178C89.6221 45.9268 86.449 44.4313 82.5076 44.4313C78.6998 44.4313 75.6268 45.8936 73.2887 48.8181C71.0174 51.7426 69.8818 55.3982 69.8818 59.7849C69.8818 64.0387 71.1176 67.6279 73.5894 70.5524C76.0611 73.4104 79.2342 74.8394 83.1088 74.8394Z" fill="#3E3E3E"/>
<path d="M133.746 106.544C130.339 106.544 126.965 106.078 123.625 105.148C120.352 104.217 118.014 103.353 116.611 102.556L119.016 92.5858C123.425 95.4438 128.235 96.8728 133.445 96.8728C137.454 96.8728 140.827 95.9091 143.566 93.9816C146.305 92.0541 147.708 88.2988 147.775 82.7156V74.5403C146.372 77.1325 144.1 79.2926 140.961 81.0207C137.821 82.7489 134.347 83.6129 130.539 83.6129C126.531 83.6129 122.857 82.6492 119.517 80.7216C116.177 78.7277 113.538 75.9029 111.601 72.2473C109.663 68.5916 108.695 64.3378 108.695 59.4858C108.695 54.8332 109.597 50.7123 111.4 47.1232C113.271 43.4676 115.909 40.6428 119.316 38.6488C122.723 36.6548 126.698 35.6578 131.241 35.6578C133.913 35.6578 136.418 36.1231 138.756 37.0536C141.094 37.9841 143.065 39.1473 144.668 40.5431C146.338 41.8724 147.441 43.2017 147.975 44.531L148.175 36.8542H158.396V82.3168C158.396 90.0933 156.392 96.0752 152.384 100.263C148.376 104.45 142.163 106.544 133.746 106.544ZM133.546 74.5403C137.353 74.5403 140.56 73.2442 143.165 70.6521C145.771 67.9934 147.073 64.5372 147.073 60.2834V59.5855C147.073 56.7275 146.472 54.1686 145.269 51.9087C144.067 49.6489 142.43 47.8875 140.359 46.6247C138.289 45.3618 136.017 44.7304 133.546 44.7304C129.27 44.7304 125.963 46.1262 123.625 48.9178C121.287 51.6429 120.118 55.1988 120.118 59.5855C120.118 64.0387 121.254 67.6611 123.525 70.4527C125.863 73.1778 129.203 74.5403 133.546 74.5403Z" fill="#3E3E3E"/>
<path d="M187.598 106.544C184.191 106.544 180.818 106.078 177.478 105.148C174.204 104.217 171.866 103.353 170.463 102.556L172.868 92.5858C177.277 95.4438 182.087 96.8728 187.298 96.8728C191.306 96.8728 194.679 95.9091 197.418 93.9816C200.157 92.0541 201.56 88.2988 201.627 82.7156V74.5403C200.224 77.1325 197.953 79.2926 194.813 81.0207C191.673 82.7489 188.199 83.6129 184.392 83.6129C180.383 83.6129 176.709 82.6492 173.369 80.7216C170.029 78.7277 167.39 75.9029 165.453 72.2473C163.516 68.5916 162.547 64.3378 162.547 59.4858C162.547 54.8332 163.449 50.7123 165.253 47.1232C167.123 43.4676 169.762 40.6428 173.169 38.6488C176.576 36.6548 180.55 35.6578 185.093 35.6578C187.765 35.6578 190.27 36.1231 192.608 37.0536C194.947 37.9841 196.917 39.1473 198.521 40.5431C200.191 41.8724 201.293 43.2017 201.827 44.531L202.028 36.8542H212.249V82.3168C212.249 90.0933 210.245 96.0752 206.236 100.263C202.228 104.45 196.015 106.544 187.598 106.544ZM187.398 74.5403C191.206 74.5403 194.412 73.2442 197.017 70.6521C199.623 67.9934 200.925 64.5372 200.925 60.2834V59.5855C200.925 56.7275 200.324 54.1686 199.122 51.9087C197.919 49.6489 196.283 47.8875 194.212 46.6247C192.141 45.3618 189.87 44.7304 187.398 44.7304C183.122 44.7304 179.816 46.1262 177.478 48.9178C175.139 51.6429 173.97 55.1988 173.97 59.5855C173.97 64.0387 175.106 67.6611 177.377 70.4527C179.715 73.1778 183.056 74.5403 187.398 74.5403Z" fill="#3E3E3E"/>
<path d="M232.332 84.0117L213.293 36.8542H225.518L235.338 65.9662L237.542 73.0448L239.747 65.9662L250.068 36.8542H261.892L233.634 107.74H222.412L232.332 84.0117Z" fill="#3E3E3E"/>
<path fill-rule="evenodd" clip-rule="evenodd" d="M-1.34009 7.91309H17.8277C32.8205 7.91309 43.7033 11.4324 49.9854 18.8874C56.161 26.1376 59.2409 34.7763 59.2409 44.7304C59.2409 46.4119 59.1633 48.0646 59.008 49.6883C59.3797 48.7235 59.8098 47.7799 60.2985 46.8577L60.3079 46.8399C62.4393 42.9522 65.4659 39.8727 69.3623 37.6171C73.2826 35.3477 77.7794 34.2335 82.8082 34.2335C87.8342 34.2335 92.3007 35.3466 96.1587 37.6199C100.054 39.8757 103.048 42.9568 105.112 46.8483C106.334 49.0778 107.201 51.4335 107.718 53.9102C108.173 51.2507 108.97 48.7735 110.12 46.4862L110.124 46.477C112.113 42.5903 114.938 39.5589 118.591 37.4212C122.249 35.2802 126.482 34.2335 131.241 34.2335C134.084 34.2335 136.77 34.7293 139.288 35.7312C141.738 36.7065 143.847 37.9408 145.587 39.4506C145.964 39.7514 146.319 40.0568 146.652 40.367L146.781 35.4299H159.828V82.3168C159.828 90.3301 157.759 96.7121 153.421 101.245C149.04 105.821 142.378 107.968 133.746 107.968C130.206 107.968 126.703 107.484 123.239 106.519L123.232 106.517C119.942 105.582 117.463 104.68 115.901 103.792L114.968 103.262L118.097 90.2905L119.797 91.3924C123.976 94.1014 128.515 95.4486 133.445 95.4486C137.216 95.4486 140.286 94.5452 142.739 92.8188C144.908 91.2926 146.277 88.1341 146.343 82.7068V78.8069C145.04 80.1151 143.471 81.2668 141.654 82.267C138.289 84.119 134.574 85.0372 130.539 85.0372C126.289 85.0372 122.365 84.012 118.799 81.9537L118.789 81.9484L118.78 81.9429C115.201 79.806 112.385 76.7816 110.334 72.9115C109.088 70.5606 108.227 67.9923 107.741 65.216C107.227 67.7577 106.35 70.1646 105.108 72.4308C102.977 76.317 99.9523 79.3958 96.058 81.6511C92.2032 83.9225 87.7712 85.0372 82.8082 85.0372C77.8422 85.0372 73.3798 83.9212 69.4625 81.6536C65.5661 79.398 62.5396 76.3185 60.4082 72.4308C58.2815 68.5515 57.2273 64.26 57.2273 59.5855C57.2273 59.3091 57.231 59.0339 57.2383 58.76C56.7034 60.5306 56.0611 62.2606 55.311 63.9497L55.3085 63.9554C52.6401 69.8939 48.223 74.7218 42.1284 78.4438C36.0186 82.2161 28.0815 84.0402 18.4289 84.0402H-1.34009V7.91309ZM95.3338 80.4225C99.008 78.2956 101.847 75.4044 103.851 71.7488C105.855 68.0931 106.857 64.0387 106.857 59.5855C106.857 55.1988 105.855 51.1776 103.851 47.522C101.914 43.8663 99.1082 40.9751 95.434 38.8482C91.8266 36.7213 87.618 35.6578 82.8082 35.6578C77.9983 35.6578 73.7563 36.7213 70.0822 38.8482C66.408 40.9751 63.5688 43.8663 61.5647 47.522C59.6275 51.1776 58.6588 55.1988 58.6588 59.5855C58.6588 64.0387 59.6609 68.0931 61.665 71.7488C63.6691 75.4044 66.5082 78.2956 70.1824 80.4225C73.8565 82.5494 78.0651 83.6129 82.8082 83.6129C87.5512 83.6129 91.7264 82.5494 95.3338 80.4225ZM146.343 76.6765C146.893 76.0004 147.37 75.2884 147.775 74.5403V82.7156C147.708 88.2987 146.305 92.0541 143.566 93.9816C140.827 95.9091 137.453 96.8728 133.445 96.8728C128.736 96.8728 124.353 95.7054 120.299 93.3705C119.867 93.1222 119.44 92.8606 119.016 92.5858L116.611 102.556C118.014 103.353 120.352 104.217 123.625 105.148C126.965 106.078 130.339 106.544 133.746 106.544C142.163 106.544 148.376 104.45 152.384 100.263C156.392 96.0752 158.396 90.0933 158.396 82.3168V36.8542H148.175L147.975 44.531C147.684 43.8082 147.226 43.0854 146.6 42.3626C146.074 41.7561 145.43 41.1496 144.668 40.5431C143.065 39.1473 141.094 37.9841 138.756 37.0536C136.418 36.1231 133.913 35.6578 131.241 35.6578C126.698 35.6578 122.723 36.6548 119.316 38.6488C115.909 40.6427 113.271 43.4675 111.4 47.1232C109.597 50.7123 108.695 54.8332 108.695 59.4858C108.695 64.3378 109.663 68.5916 111.601 72.2472C113.538 75.9029 116.177 78.7277 119.517 80.7216C122.857 82.6491 126.531 83.6129 130.539 83.6129C134.347 83.6129 137.821 82.7488 140.961 81.0207C143.194 79.7913 144.988 78.3433 146.343 76.6765ZM38.5517 64.083L38.5531 64.0812C42.525 59.1258 44.5537 52.8754 44.5537 45.2289C44.5537 37.7879 42.5294 31.8596 38.5886 27.3164C34.7513 22.8924 28.5482 20.5321 19.6314 20.5321H12.7459V71.3215H19.6314C28.5916 71.3215 34.7757 68.8095 38.5517 64.083ZM11.3144 72.7457V19.1078H19.6314C28.7834 19.1078 35.4637 21.5338 39.6723 26.3858C43.8809 31.2378 45.9852 37.5189 45.9852 45.2289C45.9852 53.1383 43.8809 59.7184 39.6723 64.9692C35.5305 70.1536 28.8502 72.7457 19.6314 72.7457H11.3144ZM91.0981 69.6771L91.1045 69.669C93.1406 67.107 94.2029 63.8464 94.2029 59.7849C94.2029 55.7437 93.0852 52.4537 90.9191 49.8196L90.9091 49.8075C88.7833 47.1637 86.0261 45.8556 82.5076 45.8556C79.1324 45.8556 76.4766 47.1228 74.4153 49.6969C72.3761 52.3264 71.3132 55.6565 71.3132 59.7849C71.3132 63.7407 72.4532 66.9921 74.6796 69.6294C76.8716 72.1609 79.6431 73.4151 83.1088 73.4151C86.5745 73.4151 89.1795 72.1645 91.0918 69.6852L91.0981 69.6771ZM73.5893 70.5524C71.1176 67.6279 69.8818 64.0387 69.8818 59.7849C69.8818 55.3982 71.0174 51.7425 73.2887 48.818C75.6268 45.8936 78.6998 44.4313 82.5076 44.4313C86.449 44.4313 89.6221 45.9268 92.027 48.9177C94.4319 51.8422 95.6344 55.4646 95.6344 59.7849C95.6344 64.1052 94.4987 67.6943 92.2274 70.5524C90.0229 73.4104 86.9834 74.8394 83.1088 74.8394C79.2342 74.8394 76.0611 73.4104 73.5893 70.5524ZM124.714 49.8425C122.644 52.2554 121.55 55.4587 121.55 59.5855C121.55 63.7857 122.615 67.0634 124.627 69.5437C126.637 71.8765 129.537 73.1161 133.546 73.1161C136.985 73.1161 139.821 71.9623 142.147 69.6513C144.449 67.2986 145.642 64.2206 145.642 60.2834V59.5855C145.642 56.932 145.085 54.6064 144.004 52.5751C142.915 50.5271 141.451 48.9607 139.611 47.839C137.77 46.716 135.758 46.1547 133.546 46.1547C129.614 46.1547 126.743 47.4196 124.725 49.8295L124.714 49.8425ZM123.525 70.4527C121.254 67.6611 120.118 64.0387 120.118 59.5855C120.118 55.1988 121.287 51.6428 123.625 48.9177C125.963 46.1262 129.27 44.7304 133.546 44.7304C136.017 44.7304 138.289 45.3618 140.359 46.6247C142.43 47.8875 144.067 49.6489 145.269 51.9087C146.472 54.1685 147.073 56.7275 147.073 59.5855V60.2834C147.073 64.5372 145.77 67.9934 143.165 70.6521C140.56 73.2442 137.353 74.5403 133.546 74.5403C129.203 74.5403 125.863 73.1778 123.525 70.4527ZM177.092 106.519L177.084 106.517C173.794 105.582 171.315 104.68 169.753 103.792L168.821 103.262L171.95 90.2905L173.65 91.3924C177.828 94.1014 182.367 95.4486 187.298 95.4486C191.069 95.4486 194.138 94.5452 196.592 92.8188C198.76 91.2925 200.129 88.1338 200.195 82.7059V78.8069C198.892 80.1151 197.323 81.2668 195.506 82.267C192.141 84.119 188.426 85.0372 184.392 85.0372C180.141 85.0372 176.218 84.012 172.651 81.9537L172.642 81.9484L172.633 81.9429C169.053 79.806 166.238 76.7816 164.187 72.9115C162.123 69.0182 161.115 64.529 161.115 59.4858C161.115 54.6474 162.054 50.3024 163.972 46.4862L163.977 46.477C165.966 42.5903 168.79 39.5589 172.443 37.4212C176.101 35.2802 180.334 34.2335 185.093 34.2335C187.936 34.2335 190.623 34.7293 193.14 35.7312C195.59 36.7064 197.699 37.9407 199.439 39.4504C199.816 39.7513 200.172 40.0567 200.504 40.367L200.633 35.4299H226.547L236.7 65.5288L237.542 68.2327L238.388 65.5184L249.055 35.4299H264L234.607 109.164H220.266L230.785 84.0023L213.68 41.6343V82.3168C213.68 90.3301 211.612 96.7121 207.273 101.245C202.893 105.821 196.23 107.968 187.598 107.968C184.058 107.968 180.555 107.484 177.092 106.519ZM212.249 36.8542H202.028L201.827 44.531C201.537 43.8082 201.078 43.0854 200.452 42.3626C199.926 41.7561 199.283 41.1496 198.521 40.5431C196.917 39.1473 194.947 37.9841 192.608 37.0536C190.27 36.1231 187.765 35.6578 185.093 35.6578C180.55 35.6578 176.576 36.6548 173.169 38.6488C169.762 40.6427 167.123 43.4675 165.253 47.1232C163.449 50.7123 162.547 54.8332 162.547 59.4858C162.547 64.3378 163.516 68.5916 165.453 72.2472C167.39 75.9029 170.029 78.7277 173.369 80.7216C176.709 82.6491 180.383 83.6129 184.392 83.6129C188.199 83.6129 191.673 82.7488 194.813 81.0207C197.047 79.7913 198.841 78.3433 200.195 76.6765C200.745 76.0004 201.222 75.2884 201.627 74.5403V82.7156C201.56 88.2987 200.157 92.0541 197.418 93.9816C194.679 95.9091 191.306 96.8728 187.298 96.8728C182.588 96.8728 178.206 95.7054 174.151 93.3705C173.72 93.1222 173.292 92.8606 172.868 92.5858L170.463 102.556C171.866 103.353 174.204 104.217 177.478 105.148C180.818 106.078 184.191 106.544 187.598 106.544C196.015 106.544 202.228 104.45 206.236 100.263C210.244 96.0752 212.249 90.0933 212.249 82.3168V36.8542ZM232.332 84.0117L222.412 107.74H233.634L261.892 36.8542H250.068L239.747 65.9662L237.542 73.0448L235.338 65.9662L225.518 36.8542H213.293L232.332 84.0117ZM178.577 49.8295L178.566 49.8425C176.496 52.2554 175.402 55.4587 175.402 59.5855C175.402 63.7846 176.466 67.0618 178.478 69.5419C180.488 71.8758 183.388 73.1161 187.398 73.1161C190.837 73.1161 193.673 71.9623 195.999 69.6513C198.301 67.2986 199.494 64.2206 199.494 60.2834V59.5855C199.494 56.932 198.937 54.6064 197.857 52.5751C196.767 50.5271 195.303 48.9607 193.464 47.839C191.622 46.716 189.61 46.1547 187.398 46.1547C183.467 46.1547 180.596 47.4196 178.577 49.8295ZM177.377 70.4527C175.106 67.6611 173.97 64.0387 173.97 59.5855C173.97 55.1988 175.139 51.6428 177.478 48.9177C179.816 46.1262 183.122 44.7304 187.398 44.7304C189.87 44.7304 192.141 45.3618 194.212 46.6247C196.283 47.8875 197.919 49.6489 199.122 51.9087C200.324 54.1685 200.925 56.7275 200.925 59.5855V60.2834C200.925 64.5372 199.623 67.9934 197.017 70.6521C194.412 73.2442 191.206 74.5403 187.398 74.5403C183.056 74.5403 179.715 73.1778 177.377 70.4527ZM0.0914102 9.33735V82.6159H18.4289C27.915 82.6159 35.5639 80.8213 41.3758 77.2322C47.2545 73.643 51.4631 69.0237 54.0016 63.3741C56.5402 57.658 57.8094 51.4434 57.8094 44.7304C57.8094 35.0929 54.8367 26.7846 48.8912 19.8057C43.0125 12.8268 32.658 9.33735 17.8277 9.33735H0.0914102Z" fill="#F0F5F7"/>
</g>
<defs>
<clipPath id="clip0_164_829">
<rect width="264" height="118" fill="white"/>
</clipPath>
</defs>
</svg>
