<svg width="197" height="88" viewBox="0 0 197 88" fill="none" xmlns="http://www.w3.org/2000/svg">
<g clip-path="url(#clip0_13_13)">
<path d="M65.4623 38.8098C64.4135 37.7354 63.0263 37.8219 62.7629 39.7321C62.5301 41.4186 62.7129 42.1729 63.2493 42.8987C63.7858 43.6245 64.4333 44.2888 65.507 43.9707C66.1487 43.7806 66.9065 43.5706 67.1599 42.0539C67.426 40.458 65.4623 38.8098 65.4623 38.8098Z" fill="#3E3E3E"/>
<path d="M56.5731 47.2753C56.3847 45.8778 56.8481 45.2673 58.4735 45.7113C60.0988 46.1552 60.8451 47.0257 61.0743 47.8466C61.3035 48.6675 61.1443 49.7149 60.2671 50.2925C59.7429 50.6376 59.4042 51.0178 58.1097 50.2865C56.7475 49.5169 56.5731 47.2753 56.5731 47.2753Z" fill="#3E3E3E"/>
<path d="M70.576 41.2853C69.727 40.1536 68.9648 40.036 68.1124 41.4766C67.2601 42.9171 67.3381 44.0563 67.7519 44.803C68.1656 45.5498 69.0173 46.1906 70.0528 45.9988C70.6716 45.8842 71.1821 45.9227 71.595 44.5047C72.0294 43.0125 70.576 41.2853 70.576 41.2853Z" fill="#3E3E3E"/>
<path d="M70.8799 47.4651C69.6424 46.3766 68.9195 47.0214 67.2756 45.6559C65.3609 44.0651 63.8126 44.8359 63.8122 44.8361C63.8117 44.8364 62.1886 45.4401 62.0902 47.9033C62.0055 50.0176 61.0339 50.1074 61.0155 51.7402C61.0039 52.7536 62.1296 53.9723 63.7385 53.2372C65.2329 52.5544 65.8911 52.7558 67.134 52.2509C68.3516 51.6895 68.6446 51.0758 70.1654 50.4518C71.803 49.78 71.6479 48.1407 70.8799 47.4651Z" fill="#3E3E3E"/>
<path d="M58.2273 41.8226C58.2691 40.3262 59.3499 39.4578 60.8436 40.6881C62.1624 41.7742 62.5408 42.4529 62.6392 43.3482C62.7377 44.2435 62.7125 45.168 61.7049 45.6552C61.1029 45.9464 60.4014 46.301 59.1835 45.3535C57.9015 44.3567 58.2273 41.8226 58.2273 41.8226Z" fill="#3E3E3E"/>
<path d="M58.772 19.6011C58.772 20.4848 58.5498 21.2241 58.1054 21.8189C57.661 22.4137 57.0287 22.8641 56.2083 23.17C55.3879 23.4759 54.4137 23.6288 53.2857 23.6288C52.3286 23.6288 51.4996 23.5523 50.7989 23.3994C50.1153 23.2464 49.5085 23.034 48.9787 22.7621V20.7227C49.5256 20.9947 50.1836 21.2496 50.9527 21.4875C51.7389 21.7084 52.5337 21.8189 53.3369 21.8189C54.4821 21.8189 55.311 21.6404 55.8237 21.2836C56.3365 20.9097 56.5928 20.4168 56.5928 19.805C56.5928 19.4651 56.4988 19.1592 56.3108 18.8873C56.1228 18.6154 55.781 18.3435 55.2853 18.0716C54.8068 17.7997 54.1146 17.4938 53.2088 17.1539C52.32 16.814 51.5595 16.4741 50.9271 16.1342C50.2947 15.7943 49.8076 15.3864 49.4658 14.9106C49.124 14.4347 48.953 13.8229 48.953 13.0751C48.953 11.9195 49.4231 11.0273 50.3631 10.3985C51.3202 9.76968 52.5678 9.45528 54.1061 9.45528C54.9435 9.45528 55.7212 9.54026 56.439 9.7102C57.1739 9.86316 57.8576 10.0841 58.4899 10.373L57.7208 12.1574C57.3448 11.9875 56.9432 11.843 56.5159 11.7241C56.1057 11.5881 55.687 11.4861 55.2597 11.4182C54.8324 11.3332 54.3966 11.2907 53.9522 11.2907C53.0293 11.2907 52.32 11.4437 51.8244 11.7496C51.3458 12.0385 51.1065 12.4378 51.1065 12.9477C51.1065 13.3216 51.2176 13.6445 51.4398 13.9164C51.662 14.1713 52.0295 14.4262 52.5422 14.6811C53.072 14.9191 53.7728 15.208 54.6444 15.5479C55.5161 15.8708 56.2595 16.2022 56.8748 16.5421C57.4901 16.8819 57.9601 17.2983 58.2849 17.7912C58.6096 18.267 58.772 18.8703 58.772 19.6011Z" fill="#3E3E3E"/>
<path d="M65.6558 21.7934C65.9977 21.7934 66.348 21.7679 66.707 21.7169C67.0659 21.6489 67.3564 21.581 67.5786 21.513V23.2209C67.3393 23.3399 66.9975 23.4334 66.5531 23.5014C66.1088 23.5863 65.6815 23.6288 65.2713 23.6288C64.5535 23.6288 63.8869 23.5099 63.2716 23.2719C62.6734 23.017 62.1863 22.5837 61.8103 21.9718C61.4343 21.36 61.2463 20.5018 61.2463 19.3972V11.4437H59.2979V10.373L61.2719 9.48078L62.1692 6.57469H63.5023V9.7102H67.4761V11.4437H63.5023V19.3462C63.5023 20.1789 63.6989 20.7992 64.092 21.2071C64.5022 21.598 65.0235 21.7934 65.6558 21.7934Z" fill="#3E3E3E"/>
<path d="M80.5336 9.7102V23.3739H78.6878L78.3545 21.564H78.2519C77.9614 22.0398 77.5854 22.4307 77.1239 22.7366C76.6625 23.0425 76.1583 23.2634 75.6113 23.3994C75.0644 23.5523 74.4919 23.6288 73.8937 23.6288C72.7998 23.6288 71.8769 23.4589 71.1249 23.119C70.39 22.7621 69.8345 22.2183 69.4585 21.4875C69.0825 20.7567 68.8945 19.8135 68.8945 18.6579V9.7102H71.1762V18.5049C71.1762 19.5926 71.424 20.4083 71.9196 20.9522C72.4153 21.496 73.1844 21.7679 74.227 21.7679C75.2524 21.7679 76.0557 21.581 76.6368 21.2071C77.235 20.8162 77.6537 20.2554 77.893 19.5246C78.1494 18.7768 78.2776 17.8761 78.2776 16.8225V9.7102H80.5336Z" fill="#3E3E3E"/>
<path d="M87.4598 23.6288C85.7506 23.6288 84.3833 23.0425 83.3579 21.8699C82.3324 20.6803 81.8197 18.9128 81.8197 16.5675C81.8197 14.2223 82.3324 12.4548 83.3579 11.2652C84.4004 10.0586 85.7763 9.45528 87.4854 9.45528C88.2032 9.45528 88.8271 9.54875 89.3569 9.73569C89.8867 9.90564 90.3482 10.1436 90.7413 10.4495C91.1344 10.7554 91.4677 11.0953 91.7411 11.4691H91.8949C91.8778 11.2482 91.8437 10.9253 91.7924 10.5005C91.7582 10.0586 91.7411 9.7102 91.7411 9.45528V4H93.9972V23.3739H92.1769L91.8437 21.5385H91.7411C91.4677 21.9294 91.1344 22.2862 90.7413 22.6091C90.3482 22.915 89.8782 23.1615 89.3313 23.3484C88.8014 23.5354 88.1776 23.6288 87.4598 23.6288ZM87.8187 21.7679C89.2714 21.7679 90.2884 21.377 90.8695 20.5953C91.4677 19.7965 91.7668 18.5984 91.7668 17.0009V16.593C91.7668 14.8936 91.4847 13.5935 90.9207 12.6928C90.3567 11.7751 89.3142 11.3162 87.793 11.3162C86.5796 11.3162 85.6652 11.8005 85.0499 12.7692C84.4517 13.7209 84.1526 15.004 84.1526 16.6185C84.1526 18.25 84.4517 19.5161 85.0499 20.4168C85.6652 21.3175 86.5881 21.7679 87.8187 21.7679Z" fill="#3E3E3E"/>
<path d="M98.3102 9.7102V23.3739H96.0541V9.7102H98.3102ZM97.2078 4.58632C97.5496 4.58632 97.8487 4.70528 98.1051 4.9432C98.3785 5.16413 98.5153 5.52102 98.5153 6.01387C98.5153 6.48972 98.3785 6.8466 98.1051 7.08453C97.8487 7.32245 97.5496 7.44142 97.2078 7.44142C96.8318 7.44142 96.5156 7.32245 96.2592 7.08453C96.0028 6.8466 95.8747 6.48972 95.8747 6.01387C95.8747 5.52102 96.0028 5.16413 96.2592 4.9432C96.5156 4.70528 96.8318 4.58632 97.2078 4.58632Z" fill="#3E3E3E"/>
<path d="M112.559 16.5166C112.559 17.6552 112.406 18.6664 112.098 19.5501C111.807 20.4168 111.38 21.1561 110.816 21.7679C110.269 22.3797 109.594 22.8471 108.791 23.17C108.005 23.4759 107.124 23.6288 106.15 23.6288C105.244 23.6288 104.407 23.4759 103.638 23.17C102.869 22.8471 102.202 22.3797 101.638 21.7679C101.074 21.1561 100.63 20.4168 100.305 19.5501C99.9974 18.6664 99.8436 17.6552 99.8436 16.5166C99.8436 15.004 100.1 13.7294 100.613 12.6928C101.125 11.6391 101.86 10.8403 102.817 10.2965C103.775 9.7357 104.911 9.45528 106.227 9.45528C107.475 9.45528 108.569 9.7357 109.509 10.2965C110.466 10.8403 111.209 11.6391 111.739 12.6928C112.286 13.7294 112.559 15.004 112.559 16.5166ZM102.177 16.5166C102.177 17.5872 102.313 18.5219 102.587 19.3207C102.877 20.1024 103.322 20.7057 103.92 21.1306C104.518 21.5555 105.279 21.7679 106.201 21.7679C107.124 21.7679 107.885 21.5555 108.483 21.1306C109.081 20.7057 109.517 20.1024 109.791 19.3207C110.081 18.5219 110.226 17.5872 110.226 16.5166C110.226 15.4289 110.081 14.5027 109.791 13.7379C109.5 12.9732 109.056 12.3869 108.458 11.979C107.876 11.5541 107.116 11.3417 106.176 11.3417C104.774 11.3417 103.757 11.8005 103.125 12.7183C102.493 13.636 102.177 14.9021 102.177 16.5166Z" fill="#3E3E3E"/>
<path d="M0.0682449 6.96344H13.3033C24.3698 6.96344 32.0965 9.56575 36.4832 14.7704C40.9198 19.975 43.1381 26.1709 43.1381 33.3583C43.1381 38.3646 42.191 42.9992 40.2967 47.262C38.4024 51.4753 35.2619 54.9202 30.8752 57.5969C26.5383 60.2735 20.8305 61.6119 13.7519 61.6119H0.0682449V6.96344ZM14.6492 54.251C21.5284 54.251 26.5133 52.3179 29.604 48.4516C32.7445 44.5358 34.3148 39.6286 34.3148 33.73C34.3148 27.9802 32.7445 23.296 29.604 19.6776C26.4635 16.0591 21.4786 14.2499 14.6492 14.2499H8.44294V54.251H14.6492Z" fill="#3E3E3E"/>
<path d="M61.7925 62.3554C58.2532 62.3554 55.1127 61.5623 52.371 59.9761C49.6292 58.39 47.5106 56.2338 46.0152 53.5075C44.5197 50.7813 43.7719 47.7577 43.7719 44.4366C43.7719 41.1652 44.4948 38.1663 45.9404 35.4401C47.4359 32.7139 49.5545 30.5577 52.2962 28.9715C55.0379 27.3853 58.2033 26.5923 61.7925 26.5923C65.3817 26.5923 68.5222 27.3853 71.214 28.9715C73.9557 30.5577 76.0494 32.7139 77.4951 35.4401C78.9905 38.1663 79.7383 41.1652 79.7383 44.4366C79.7383 47.7577 78.9905 50.7813 77.4951 53.5075C75.9996 56.2338 73.881 58.39 71.1393 59.9761C68.4474 61.5623 65.3318 62.3554 61.7925 62.3554ZM62.0168 55.8124C64.9081 55.8124 67.1762 54.7467 68.8213 52.6153C70.5161 50.4839 71.3636 47.8072 71.3636 44.5853C71.3636 41.3634 70.4663 38.662 68.6717 36.481C66.8771 34.2505 64.5093 33.1352 61.5682 33.1352C58.7268 33.1352 56.4337 34.2257 54.689 36.4067C52.9941 38.5876 52.1466 41.3139 52.1466 44.5853C52.1466 47.7577 53.0689 50.4343 54.9133 52.6153C56.7577 54.7467 59.1256 55.8124 62.0168 55.8124Z" fill="#3E3E3E"/>
<path d="M99.8028 79.4562C97.2605 79.4562 94.7431 79.1093 92.2507 78.4153C89.8081 77.7214 88.0633 77.077 87.0165 76.4822L88.8111 69.047C92.1011 71.1784 95.6903 72.2441 99.5785 72.2441C102.569 72.2441 105.087 71.5254 107.131 70.0879C109.175 68.6505 110.221 65.8499 110.271 61.6862V55.5894C109.224 57.5225 107.53 59.1335 105.187 60.4222C102.844 61.711 100.251 62.3554 97.4101 62.3554C94.4191 62.3554 91.6774 61.6366 89.1849 60.1992C86.6925 58.7121 84.7234 56.6055 83.2778 53.8793C81.8321 51.1531 81.1093 47.9807 81.1093 44.3623C81.1093 40.8925 81.7823 37.8193 83.1282 35.1427C84.524 32.4165 86.4931 30.3098 89.0354 28.8228C91.5777 27.3358 94.5437 26.5923 97.9335 26.5923C99.9275 26.5923 101.797 26.9392 103.542 27.6332C105.286 28.3271 106.757 29.1946 107.953 30.2355C109.199 31.2268 110.022 32.2182 110.421 33.2095L110.57 27.4845H118.197V61.3888C118.197 67.1882 116.702 71.6493 113.711 74.7721C110.72 77.8949 106.084 79.4562 99.8028 79.4562ZM99.6533 55.5894C102.495 55.5894 104.887 54.6228 106.832 52.6897C108.776 50.707 109.748 48.1294 109.748 44.9571V44.4366C109.748 42.3052 109.299 40.3969 108.402 38.7116C107.505 37.0263 106.283 35.7127 104.738 34.7709C103.193 33.8291 101.498 33.3583 99.6533 33.3583C96.4629 33.3583 93.9954 34.3992 92.2507 36.481C90.5059 38.5133 89.6336 41.1652 89.6336 44.4366C89.6336 47.7577 90.481 50.4591 92.1759 52.541C93.9206 54.5732 96.4131 55.5894 99.6533 55.5894Z" fill="#3E3E3E"/>
<path d="M139.988 79.4562C137.446 79.4562 134.928 79.1093 132.436 78.4153C129.993 77.7214 128.249 77.077 127.202 76.4822L128.996 69.047C132.286 71.1784 135.875 72.2441 139.764 72.2441C142.755 72.2441 145.272 71.5254 147.316 70.0879C149.36 68.6505 150.407 65.8499 150.456 61.6862V55.5894C149.41 57.5225 147.715 59.1335 145.372 60.4222C143.029 61.711 140.437 62.3554 137.595 62.3554C134.604 62.3554 131.863 61.6366 129.37 60.1992C126.878 58.7121 124.909 56.6055 123.463 53.8793C122.017 51.1531 121.295 47.9807 121.295 44.3623C121.295 40.8925 121.968 37.8193 123.313 35.1427C124.709 32.4165 126.678 30.3098 129.221 28.8228C131.763 27.3358 134.729 26.5923 138.119 26.5923C140.113 26.5923 141.982 26.9392 143.727 27.6332C145.472 28.3271 146.942 29.1946 148.138 30.2355C149.385 31.2268 150.207 32.2182 150.606 33.2095L150.756 27.4845H158.382V61.3888C158.382 67.1882 156.887 71.6493 153.896 74.7721C150.905 77.8949 146.269 79.4562 139.988 79.4562ZM139.839 55.5894C142.68 55.5894 145.073 54.6228 147.017 52.6897C148.961 50.707 149.933 48.1294 149.933 44.9571V44.4366C149.933 42.3052 149.484 40.3969 148.587 38.7116C147.69 37.0263 146.468 35.7127 144.923 34.7709C143.378 33.8291 141.683 33.3583 139.839 33.3583C136.648 33.3583 134.181 34.3992 132.436 36.481C130.691 38.5133 129.819 41.1652 129.819 44.4366C129.819 47.7577 130.666 50.4591 132.361 52.541C134.106 54.5732 136.598 55.5894 139.839 55.5894Z" fill="#3E3E3E"/>
<path d="M173.369 62.6528L159.162 27.4845H168.284L175.612 49.1951L177.257 54.4741L178.902 49.1951L186.604 27.4845H195.427L174.341 80.3484H165.966L173.369 62.6528Z" fill="#3E3E3E"/>
<path fill-rule="evenodd" clip-rule="evenodd" d="M-1 5.90125H13.3032C24.4911 5.90125 32.6119 8.52582 37.2997 14.0855C41.908 19.4924 44.2063 25.9349 44.2063 33.3582C44.2063 34.6122 44.1484 35.8447 44.0324 37.0556C44.3098 36.3362 44.6308 35.6324 44.9954 34.9447L45.0025 34.9314C46.5929 32.0321 48.8514 29.7355 51.759 28.0534C54.6844 26.361 58.0399 25.5301 61.7925 25.5301C65.5429 25.5301 68.8759 26.3601 71.7548 28.0555C74.6612 29.7378 76.8957 32.0356 78.4362 34.9377C79.3475 36.6004 79.9949 38.3572 80.3804 40.2042C80.7197 38.2208 81.315 36.3734 82.1728 34.6677L82.1762 34.6608C83.6602 31.7622 85.7681 29.5015 88.4937 27.9073C91.2234 26.3106 94.3821 25.5301 97.9335 25.5301C100.055 25.5301 102.06 25.8998 103.938 26.647C105.767 27.3743 107.34 28.2948 108.639 29.4207C108.92 29.6451 109.185 29.8728 109.433 30.1042L109.529 26.4223H119.265V61.3888C119.265 67.3648 117.722 72.1242 114.484 75.5046C111.216 78.9172 106.244 80.5184 99.8028 80.5184C97.1614 80.5184 94.5471 80.1577 91.9626 79.4381L91.9572 79.4366C89.502 78.7391 87.6519 78.0666 86.4865 77.4044L85.7907 77.009L88.1256 67.3353L89.3941 68.157C92.5125 70.1773 95.8994 71.1819 99.5785 71.1819C102.393 71.1819 104.683 70.5082 106.514 69.2207C108.132 68.0826 109.154 65.7271 109.203 61.6796V58.7712C108.23 59.7468 107.06 60.6057 105.704 61.3516C103.193 62.7328 100.421 63.4175 97.41 63.4175C94.2383 63.4175 91.3106 62.653 88.6489 61.118L88.6421 61.114L88.6353 61.11C85.9641 59.5163 83.8633 57.2608 82.3328 54.3747C81.4031 52.6214 80.7606 50.7061 80.3974 48.6356C80.0138 50.5311 79.3599 52.3261 78.4328 54.0161C76.8429 56.9144 74.5856 59.2104 71.6796 60.8923C68.8031 62.5862 65.4959 63.4175 61.7925 63.4175C58.0868 63.4175 54.7569 62.5853 51.8337 60.8942C48.9262 59.2121 46.6678 56.9154 45.0774 54.0161C43.4904 51.1231 42.7037 47.9227 42.7037 44.4366C42.7037 44.2305 42.7064 44.0253 42.7119 43.821C42.3128 45.1414 41.8335 46.4316 41.2737 47.6913L41.2719 47.6955C39.2807 52.1243 35.9846 55.7247 31.4367 58.5004C26.8775 61.3136 20.9547 62.674 13.7519 62.674H-1V5.90125ZM71.1392 59.9761C73.8809 58.3899 75.9995 56.2337 77.495 53.5075C78.9905 50.7813 79.7382 47.7577 79.7382 44.4366C79.7382 41.1651 78.9905 38.1663 77.495 35.4401C76.0494 32.7138 73.9557 30.5576 71.214 28.9715C68.5221 27.3853 65.3816 26.5922 61.7925 26.5922C58.2033 26.5922 55.0379 27.3853 52.2961 28.9715C49.5544 30.5576 47.4358 32.7138 45.9403 35.4401C44.4947 38.1663 43.7719 41.1651 43.7719 44.4366C43.7719 47.7577 44.5196 50.7813 46.0151 53.5075C47.5106 56.2337 49.6292 58.3899 52.3709 59.9761C55.1126 61.5623 58.2532 62.3553 61.7925 62.3553C65.3318 62.3553 68.4473 61.5623 71.1392 59.9761ZM109.203 57.1825C109.613 56.6783 109.969 56.1472 110.271 55.5894V61.6862C110.221 65.8499 109.174 68.6504 107.131 70.0879C105.087 71.5254 102.569 72.2441 99.5785 72.2441C96.0641 72.2441 92.794 71.3735 89.7683 69.6322C89.4464 69.447 89.1273 69.2519 88.811 69.047L87.0164 76.4821C88.0633 77.077 89.808 77.7213 92.2506 78.4153C94.7431 79.1092 97.2605 79.4562 99.8028 79.4562C106.084 79.4562 110.72 77.8948 113.711 74.7721C116.702 71.6493 118.197 67.1882 118.197 61.3888V27.4844H110.57L110.421 33.2095C110.204 32.6705 109.862 32.1315 109.394 31.5924C109.002 31.1401 108.522 30.6878 107.953 30.2355C106.757 29.1945 105.286 28.3271 103.542 27.6332C101.797 26.9392 99.9274 26.5922 97.9335 26.5922C94.5437 26.5922 91.5777 27.3357 89.0353 28.8228C86.493 30.3098 84.524 32.4164 83.1282 35.1427C81.7822 37.8193 81.1093 40.8925 81.1093 44.3623C81.1093 47.9807 81.8321 51.153 83.2777 53.8793C84.7234 56.6055 86.6924 58.7121 89.1849 60.1992C91.6774 61.6366 94.4191 62.3553 97.41 62.3553C100.251 62.3553 102.844 61.711 105.187 60.4222C106.853 59.5054 108.192 58.4254 109.203 57.1825ZM28.7678 47.7907L28.7688 47.7894C31.7327 44.0937 33.2465 39.4325 33.2465 33.73C33.2465 28.1808 31.736 23.7597 28.7953 20.3715C25.9318 17.0723 21.303 15.312 14.6491 15.312H9.5111V53.1889H14.6491C21.3354 53.1889 25.95 51.3156 28.7678 47.7907ZM8.4429 54.251V14.2499H14.6491C21.4785 14.2499 26.4635 16.0591 29.604 19.6775C32.7445 23.296 34.3147 27.9801 34.3147 33.73C34.3147 39.6285 32.7445 44.5357 29.604 48.4516C26.5133 52.3179 21.5284 54.251 14.6491 54.251H8.4429ZM67.9785 51.9625L67.9833 51.9565C69.5026 50.0459 70.2953 47.6143 70.2953 44.5853C70.2953 41.5715 69.4613 39.118 67.8449 37.1536L67.8375 37.1446C66.2512 35.1729 64.1937 34.1973 61.5681 34.1973C59.0496 34.1973 57.0677 35.1424 55.5296 37.062C54.0079 39.023 53.2148 41.5065 53.2148 44.5853C53.2148 47.5354 54.0654 49.9602 55.7268 51.927C57.3625 53.8149 59.4306 54.7502 62.0168 54.7502C64.6029 54.7502 66.5468 53.8176 67.9738 51.9686L67.9785 51.9625ZM54.9132 52.6153C53.0688 50.4343 52.1466 47.7577 52.1466 44.5853C52.1466 41.3138 52.994 38.5876 54.6889 36.4066C56.4336 34.2257 58.7267 33.1352 61.5681 33.1352C64.5092 33.1352 66.8771 34.2504 68.6717 36.481C70.4662 38.662 71.3635 41.3634 71.3635 44.5853C71.3635 47.8072 70.5161 50.4839 68.8212 52.6153C67.1762 54.7467 64.908 55.8124 62.0168 55.8124C59.1255 55.8124 56.7577 54.7467 54.9132 52.6153ZM93.0631 37.1706C91.5182 38.9701 90.7017 41.359 90.7017 44.4366C90.7017 47.5689 91.4965 50.0133 92.9983 51.8631C94.498 53.6028 96.6618 54.5272 99.6533 54.5272C102.22 54.5272 104.336 53.6668 106.071 51.9433C107.789 50.1888 108.68 47.8933 108.68 44.9571V44.4366C108.68 42.4577 108.264 40.7234 107.458 39.2085C106.645 37.6812 105.552 36.5131 104.18 35.6765C102.805 34.839 101.304 34.4204 99.6533 34.4204C96.7198 34.4204 94.5774 35.3638 93.0712 37.161L93.0631 37.1706ZM92.1758 52.5409C90.481 50.4591 89.6335 47.7577 89.6335 44.4366C89.6335 41.1651 90.5059 38.5133 92.2506 36.481C93.9954 34.3991 96.4629 33.3582 99.6533 33.3582C101.498 33.3582 103.193 33.8291 104.738 34.7709C106.283 35.7127 107.505 37.0262 108.402 38.7115C109.299 40.3968 109.748 42.3052 109.748 44.4366V44.9571C109.748 48.1294 108.776 50.7069 106.832 52.6896C104.887 54.6228 102.495 55.5894 99.6533 55.5894C96.413 55.5894 93.9206 54.5732 92.1758 52.5409ZM132.148 79.4381L132.142 79.4366C129.687 78.7391 127.837 78.0666 126.672 77.4044L125.976 77.009L128.311 67.3353L129.579 68.157C132.698 70.1773 136.085 71.1819 139.764 71.1819C142.578 71.1819 144.868 70.5082 146.699 69.2207C148.317 68.0825 149.339 65.7268 149.388 61.6789V58.7712C148.416 59.7468 147.245 60.6057 145.889 61.3516C143.378 62.7328 140.606 63.4175 137.595 63.4175C134.424 63.4175 131.496 62.653 128.834 61.118L128.827 61.114L128.821 61.11C126.149 59.5163 124.049 57.2608 122.518 54.3747C120.978 51.4712 120.226 48.1233 120.226 44.3623C120.226 40.7539 120.927 37.5136 122.358 34.6677L122.361 34.6608C123.845 31.7622 125.953 29.5015 128.679 27.9073C131.409 26.3106 134.567 25.5301 138.119 25.5301C140.24 25.5301 142.245 25.8998 144.123 26.647C145.952 27.3742 147.525 28.2947 148.824 29.4206C149.105 29.645 149.37 29.8727 149.618 30.1042L149.715 26.4223H169.052L176.629 48.8689L177.257 50.8854L177.888 48.8611L185.848 26.4223H197L175.066 81.4106H164.365L172.215 62.6457L159.451 31.0492V61.3888C159.451 67.3648 157.907 72.1242 154.67 75.5046C151.401 78.9172 146.429 80.5184 139.988 80.5184C137.347 80.5184 134.732 80.1577 132.148 79.4381ZM158.382 27.4844H150.756L150.606 33.2095C150.389 32.6705 150.047 32.1315 149.58 31.5924C149.187 31.1401 148.707 30.6878 148.138 30.2355C146.942 29.1945 145.471 28.3271 143.727 27.6332C141.982 26.9392 140.113 26.5922 138.119 26.5922C134.729 26.5922 131.763 27.3357 129.221 28.8228C126.678 30.3098 124.709 32.4164 123.313 35.1427C121.967 37.8193 121.295 40.8925 121.295 44.3623C121.295 47.9807 122.017 51.153 123.463 53.8793C124.909 56.6055 126.878 58.7121 129.37 60.1992C131.863 61.6366 134.604 62.3553 137.595 62.3553C140.437 62.3553 143.029 61.711 145.372 60.4222C147.039 59.5054 148.377 58.4254 149.388 57.1825C149.798 56.6783 150.154 56.1472 150.456 55.5894V61.6862C150.407 65.8499 149.36 68.6504 147.316 70.0879C145.272 71.5254 142.755 72.2441 139.764 72.2441C136.249 72.2441 132.979 71.3735 129.954 69.6322C129.632 69.447 129.313 69.2519 128.996 69.047L127.202 76.4821C128.249 77.077 129.993 77.7213 132.436 78.4153C134.928 79.1092 137.446 79.4562 139.988 79.4562C146.269 79.4562 150.905 77.8948 153.896 74.7721C156.887 71.6493 158.382 67.1882 158.382 61.3888V27.4844ZM173.369 62.6528L165.966 80.3484H174.341L195.427 27.4844H186.604L178.902 49.1951L177.257 54.4741L175.612 49.1951L168.284 27.4844H159.162L173.369 62.6528ZM133.256 37.161L133.248 37.1707C131.703 38.9701 130.887 41.359 130.887 44.4366C130.887 47.5682 131.681 50.0121 133.182 51.8617C134.682 53.6023 136.846 54.5272 139.838 54.5272C142.405 54.5272 144.521 53.6668 146.257 51.9433C147.975 50.1888 148.865 47.8933 148.865 44.9571V44.4366C148.865 42.4577 148.45 40.7234 147.643 39.2085C146.83 37.6812 145.738 36.5131 144.365 35.6765C142.991 34.839 141.49 34.4204 139.838 34.4204C136.905 34.4204 134.763 35.3638 133.256 37.161ZM132.361 52.5409C130.666 50.4591 129.819 47.7577 129.819 44.4366C129.819 41.1651 130.691 38.5133 132.436 36.481C134.181 34.3991 136.648 33.3582 139.838 33.3582C141.683 33.3582 143.378 33.8291 144.923 34.7709C146.468 35.7127 147.69 37.0262 148.587 38.7115C149.484 40.3968 149.933 42.3052 149.933 44.4366V44.9571C149.933 48.1294 148.961 50.7069 147.017 52.6896C145.073 54.6228 142.68 55.5894 139.838 55.5894C136.598 55.5894 134.106 54.5732 132.361 52.5409ZM0.0682012 6.96341V61.6118H13.7519C20.8305 61.6118 26.5382 60.2735 30.8751 57.5968C35.2619 54.9202 38.4024 51.4752 40.2967 47.262C42.1909 42.9991 43.1381 38.3646 43.1381 33.3582C43.1381 26.1709 40.9198 19.9749 36.4832 14.7703C32.0964 9.56572 24.3698 6.96341 13.3032 6.96341H0.0682012Z" fill="#F0F5F7"/>
</g>
<defs>
<clipPath id="clip0_13_13">
<rect width="197" height="88" fill="white"/>
</clipPath>
</defs>
</svg>
