<svg width="154" height="61" viewBox="0 0 154 61" fill="none" xmlns="http://www.w3.org/2000/svg">
<path d="M51.6929 27.7573C50.8772 26.9216 49.7982 26.9889 49.5934 28.4746C49.4123 29.7863 49.5545 30.373 49.9717 30.9375C50.389 31.502 50.8925 32.0187 51.7277 31.7713C52.2268 31.6235 52.8162 31.4601 53.0133 30.2805C53.2202 29.0392 51.6929 27.7573 51.6929 27.7573Z" fill="#3E3E3E"/>
<path d="M44.7791 34.3417C44.6326 33.2548 44.993 32.78 46.2571 33.1253C47.5213 33.4706 48.1018 34.1476 48.28 34.7861C48.4583 35.4245 48.3345 36.2392 47.6522 36.6885C47.2445 36.9569 46.981 37.2526 45.9742 36.6838C44.9147 36.0852 44.7791 34.3417 44.7791 34.3417Z" fill="#3E3E3E"/>
<path d="M55.6702 29.683C55.0099 28.8027 54.417 28.7113 53.7541 29.8317C53.0912 30.9521 53.1519 31.8382 53.4737 32.4189C53.7955 32.9997 54.4579 33.4981 55.2633 33.349C55.7446 33.2598 56.1416 33.2898 56.4628 32.1869C56.8006 31.0263 55.6702 29.683 55.6702 29.683Z" fill="#3E3E3E"/>
<path d="M55.9066 34.4895C54.9441 33.6429 54.3818 34.1444 53.1033 33.0824C51.6141 31.8451 50.4098 32.4446 50.4095 32.4448C50.4091 32.445 49.1467 32.9145 49.0701 34.8303C49.0043 36.4748 48.2486 36.5447 48.2343 37.8146C48.2253 38.6028 49.1008 39.5507 50.3521 38.9789C51.5145 38.4479 52.0265 38.6045 52.9931 38.2118C53.9401 37.7752 54.168 37.2979 55.3509 36.8126C56.6245 36.29 56.5039 35.015 55.9066 34.4895Z" fill="#3E3E3E"/>
<path d="M46.0657 30.1012C46.0982 28.9373 46.9388 28.2619 48.1006 29.2188C49.1263 30.0636 49.4206 30.5914 49.4972 31.2877C49.5738 31.9841 49.5541 32.7031 48.7705 33.0821C48.3022 33.3086 47.7566 33.5844 46.8094 32.8474C45.8122 32.0721 46.0657 30.1012 46.0657 30.1012Z" fill="#3E3E3E"/>
<path d="M46.4893 12.8178C46.4893 13.5051 46.3165 14.0801 45.9709 14.5427C45.6252 15.0054 45.1334 15.3556 44.4953 15.5936C43.8573 15.8315 43.0995 15.9505 42.2222 15.9505C41.4778 15.9505 40.8331 15.891 40.288 15.772C39.7563 15.653 39.2844 15.4878 38.8723 15.2763V13.6902C39.2977 13.9017 39.8095 14.0999 40.4077 14.285C41.0192 14.4568 41.6373 14.5427 42.2621 14.5427C43.1527 14.5427 43.7974 14.4039 44.1962 14.1264C44.595 13.8356 44.7944 13.4522 44.7944 12.9764C44.7944 12.712 44.7213 12.4741 44.5751 12.2626C44.4289 12.0511 44.163 11.8396 43.7775 11.6281C43.4053 11.4167 42.8669 11.1787 42.1624 10.9144C41.4711 10.65 40.8796 10.3857 40.3877 10.1213C39.8959 9.85693 39.517 9.5397 39.2512 9.16959C38.9853 8.79948 38.8524 8.32363 38.8524 7.74204C38.8524 6.84321 39.2179 6.14926 39.9491 5.66019C40.6935 5.17113 41.6639 4.92659 42.8603 4.92659C43.5116 4.92659 44.1165 4.99268 44.6748 5.12486C45.2464 5.24383 45.7781 5.41566 46.27 5.64037L45.6718 7.02826C45.3793 6.89608 45.0669 6.78373 44.7346 6.6912C44.4156 6.58546 44.0899 6.50615 43.7576 6.45328C43.4252 6.38719 43.0862 6.35414 42.7406 6.35414C42.0228 6.35414 41.4711 6.4731 41.0856 6.71103C40.7134 6.93574 40.5273 7.24636 40.5273 7.6429C40.5273 7.9337 40.6137 8.18484 40.7865 8.39633C40.9593 8.5946 41.2451 8.79287 41.6439 8.99115C42.056 9.1762 42.601 9.40091 43.279 9.66527C43.9569 9.91641 44.5352 10.1742 45.0138 10.4385C45.4923 10.7029 45.8579 11.0267 46.1104 11.4101C46.363 11.7802 46.4893 12.2494 46.4893 12.8178Z" fill="#3E3E3E"/>
<path d="M51.8434 14.5229C52.1093 14.5229 52.3818 14.5031 52.661 14.4634C52.9401 14.4105 53.1661 14.3577 53.3389 14.3048V15.6332C53.1528 15.7257 52.8869 15.7984 52.5413 15.8513C52.1957 15.9174 51.8634 15.9505 51.5443 15.9505C50.986 15.9505 50.4676 15.8579 49.989 15.6729C49.5238 15.4746 49.1449 15.1375 48.8525 14.6617C48.56 14.1858 48.4138 13.5183 48.4138 12.6592V6.4731H46.8984V5.64037L48.4337 4.94642L49.1316 2.68613H50.1685V5.12486H53.2592V6.4731H50.1685V12.6195C50.1685 13.2672 50.3214 13.7496 50.6271 14.0669C50.9461 14.3709 51.3516 14.5229 51.8434 14.5229Z" fill="#3E3E3E"/>
<path d="M63.415 5.12486V15.7522H61.9794L61.7202 14.3445H61.6404C61.4144 14.7146 61.122 15.0186 60.763 15.2565C60.4041 15.4944 60.012 15.6663 59.5866 15.772C59.1612 15.891 58.7159 15.9505 58.2506 15.9505C57.3999 15.9505 56.682 15.8183 56.0971 15.5539C55.5255 15.2763 55.0935 14.8534 54.8011 14.285C54.5086 13.7166 54.3624 12.983 54.3624 12.0842V5.12486H56.137V11.9652C56.137 12.8112 56.3298 13.4456 56.7153 13.8686C57.1008 14.2916 57.699 14.5031 58.5099 14.5031C59.3074 14.5031 59.9322 14.3577 60.3842 14.0669C60.8495 13.7629 61.1751 13.3267 61.3612 12.7583C61.5606 12.1767 61.6603 11.4761 61.6603 10.6566V5.12486H63.415Z" fill="#3E3E3E"/>
<path d="M68.802 15.9505C67.4727 15.9505 66.4093 15.4944 65.6117 14.5824C64.8141 13.6571 64.4153 12.2824 64.4153 10.4584C64.4153 8.63426 64.8141 7.25958 65.6117 6.33432C66.4226 5.39583 67.4927 4.92659 68.822 4.92659C69.3803 4.92659 69.8655 4.99929 70.2776 5.14469C70.6897 5.27687 71.0486 5.46192 71.3543 5.69985C71.6601 5.93777 71.9193 6.20213 72.132 6.49293H72.2516C72.2383 6.3211 72.2117 6.06995 72.1719 5.7395C72.1453 5.39583 72.132 5.12486 72.132 4.92659V0.683594H73.8867V15.7522H72.471L72.2117 14.3246H72.132C71.9193 14.6286 71.6601 14.9062 71.3543 15.1574C71.0486 15.3953 70.683 15.587 70.2576 15.7324C69.8456 15.8778 69.3604 15.9505 68.802 15.9505ZM69.0812 14.5031C70.2111 14.5031 71.0021 14.1991 71.454 13.591C71.9193 12.9698 72.1519 12.0379 72.1519 10.7954V10.4782C72.1519 9.15637 71.9326 8.14519 71.4939 7.44463C71.0552 6.73086 70.2443 6.37397 69.0613 6.37397C68.1174 6.37397 67.4063 6.75068 66.9277 7.50411C66.4624 8.24432 66.2298 9.24229 66.2298 10.498C66.2298 11.7669 66.4624 12.7517 66.9277 13.4522C67.4063 14.1528 68.1241 14.5031 69.0812 14.5031Z" fill="#3E3E3E"/>
<path d="M77.2412 5.12486V15.7522H75.4865V5.12486H77.2412ZM76.3838 1.13962C76.6497 1.13962 76.8823 1.23214 77.0817 1.4172C77.2944 1.58903 77.4008 1.86661 77.4008 2.24993C77.4008 2.62004 77.2944 2.89762 77.0817 3.08267C76.8823 3.26773 76.6497 3.36025 76.3838 3.36025C76.0914 3.36025 75.8454 3.26773 75.6461 3.08267C75.4467 2.89762 75.347 2.62004 75.347 2.24993C75.347 1.86661 75.4467 1.58903 75.6461 1.4172C75.8454 1.23214 76.0914 1.13962 76.3838 1.13962Z" fill="#3E3E3E"/>
<path d="M88.324 10.4187C88.324 11.3043 88.2044 12.0908 87.9651 12.7781C87.7391 13.4522 87.4068 14.0272 86.9681 14.5031C86.5427 14.9789 86.0176 15.3424 85.3929 15.5936C84.7814 15.8315 84.0968 15.9505 83.3391 15.9505C82.6345 15.9505 81.9832 15.8315 81.385 15.5936C80.7868 15.3424 80.2683 14.9789 79.8297 14.5031C79.391 14.0272 79.0454 13.4522 78.7928 12.7781C78.5535 12.0908 78.4339 11.3043 78.4339 10.4187C78.4339 9.24229 78.6333 8.25093 79.0321 7.44463C79.4309 6.62511 80.0025 6.00386 80.7469 5.58089C81.4913 5.14469 82.3753 4.92659 83.3989 4.92659C84.3693 4.92659 85.22 5.14469 85.9512 5.58089C86.6956 6.00386 87.2738 6.62511 87.6859 7.44463C88.1113 8.25093 88.324 9.24229 88.324 10.4187ZM80.2484 10.4187C80.2484 11.2514 80.3547 11.9784 80.5674 12.5997C80.7934 13.2077 81.139 13.6769 81.6043 14.0074C82.0696 14.3379 82.6611 14.5031 83.3789 14.5031C84.0968 14.5031 84.6883 14.3379 85.1536 14.0074C85.6188 13.6769 85.9578 13.2077 86.1705 12.5997C86.3965 11.9784 86.5095 11.2514 86.5095 10.4187C86.5095 9.57274 86.3965 8.85236 86.1705 8.25754C85.9445 7.66273 85.5989 7.20671 85.1336 6.88947C84.6817 6.55902 84.0901 6.3938 83.359 6.3938C82.269 6.3938 81.478 6.75068 80.9862 7.46446C80.4943 8.17823 80.2484 9.16298 80.2484 10.4187Z" fill="#3E3E3E"/>
<path d="M0.830858 2.98828H11.1248C19.7321 2.98828 25.7417 5.0123 29.1536 9.06033C32.6043 13.1084 34.3296 17.9274 34.3296 23.5176C34.3296 27.4114 33.593 31.0161 32.1197 34.3316C30.6463 37.6086 28.2037 40.288 24.7918 42.3698C21.4187 44.4517 16.9793 45.4926 11.4737 45.4926H0.830858V2.98828ZM12.1716 39.7675C17.5221 39.7675 21.3993 38.264 23.8031 35.2569C26.2457 32.2112 27.467 28.3945 27.467 23.8067C27.467 19.3346 26.2457 15.6914 23.8031 12.877C21.3605 10.0627 17.4833 8.65552 12.1716 8.65552H7.34451V39.7675H12.1716Z" fill="#3E3E3E"/>
<path d="M48.8386 46.0709C46.0858 46.0709 43.6432 45.4541 41.5107 44.2204C39.3783 42.9867 37.7305 41.3096 36.5673 39.1892C35.4042 37.0688 34.8226 34.7171 34.8226 32.1341C34.8226 29.5896 35.3848 27.2572 36.5092 25.1368C37.6723 23.0164 39.3201 21.3394 41.4526 20.1057C43.585 18.872 46.047 18.2551 48.8386 18.2551C51.6302 18.2551 54.0728 18.872 56.1665 20.1057C58.2989 21.3394 59.9273 23.0164 61.0517 25.1368C62.2149 27.2572 62.7964 29.5896 62.7964 32.1341C62.7964 34.7171 62.2149 37.0688 61.0517 39.1892C59.8886 41.3096 58.2408 42.9867 56.1083 44.2204C54.0146 45.4541 51.5914 46.0709 48.8386 46.0709ZM49.0131 40.9819C51.2618 40.9819 53.026 40.1531 54.3054 38.4953C55.6237 36.8375 56.2828 34.7557 56.2828 32.2498C56.2828 29.7438 55.5849 27.6427 54.1891 25.9464C52.7933 24.2115 50.9517 23.3441 48.6641 23.3441C46.4541 23.3441 44.6706 24.1923 43.3136 25.8886C41.9954 27.5849 41.3363 29.7053 41.3363 32.2498C41.3363 34.7171 42.0536 36.799 43.4881 38.4953C44.9227 40.1531 46.7643 40.9819 49.0131 40.9819Z" fill="#3E3E3E"/>
<path d="M78.4022 59.3716C76.4249 59.3716 74.4669 59.1017 72.5283 58.562C70.6285 58.0222 69.2715 57.521 68.4573 57.0584L69.853 51.2755C72.412 52.9333 75.2035 53.7622 78.2277 53.7622C80.554 53.7622 82.512 53.2031 84.1017 52.0851C85.6913 50.9671 86.5055 48.7889 86.5443 45.5504V40.8085C85.7301 42.312 84.4118 43.565 82.5896 44.5673C80.7673 45.5697 78.7512 46.0709 76.5412 46.0709C74.2149 46.0709 72.0824 45.5119 70.1438 44.3939C68.2052 43.2373 66.6738 41.5988 65.5494 39.4784C64.425 37.358 63.8628 34.8906 63.8628 32.0763C63.8628 29.3776 64.3862 26.9873 65.4331 24.9055C66.5187 22.7851 68.0502 21.1466 70.0275 19.99C72.0049 18.8334 74.3118 18.2551 76.9483 18.2551C78.4991 18.2551 79.9531 18.525 81.3101 19.0647C82.6671 19.6045 83.8109 20.2792 84.7414 21.0888C85.7107 21.8598 86.3504 22.6309 86.6606 23.4019L86.7769 18.9491H92.709V45.3191C92.709 49.8298 91.5458 53.2995 89.2195 55.7283C86.8932 58.1572 83.2875 59.3716 78.4022 59.3716ZM78.2859 40.8085C80.4959 40.8085 82.3569 40.0567 83.869 38.5531C85.3811 37.011 86.1372 35.0063 86.1372 32.5389V32.1341C86.1372 30.4763 85.7882 28.9921 85.0903 27.6813C84.3924 26.3705 83.4425 25.3488 82.2406 24.6163C81.0387 23.8838 79.7205 23.5176 78.2859 23.5176C75.8045 23.5176 73.8853 24.3272 72.5283 25.9464C71.1713 27.5271 70.4928 29.5896 70.4928 32.1341C70.4928 34.7171 71.1519 36.8183 72.4701 38.4375C73.8271 40.0181 75.7657 40.8085 78.2859 40.8085Z" fill="#3E3E3E"/>
<path d="M109.657 59.3716C107.68 59.3716 105.722 59.1017 103.783 58.562C101.884 58.0222 100.527 57.521 99.7124 57.0584L101.108 51.2755C103.667 52.9333 106.459 53.7622 109.483 53.7622C111.809 53.7622 113.767 53.2031 115.357 52.0851C116.946 50.9671 117.761 48.7889 117.799 45.5504V40.8085C116.985 42.312 115.667 43.565 113.845 44.5673C112.022 45.5697 110.006 46.0709 107.796 46.0709C105.47 46.0709 103.338 45.5119 101.399 44.3939C99.4604 43.2373 97.9289 41.5988 96.8046 39.4784C95.6802 37.358 95.118 34.8906 95.118 32.0763C95.118 29.3776 95.6414 26.9873 96.6882 24.9055C97.7739 22.7851 99.3053 21.1466 101.283 19.99C103.26 18.8334 105.567 18.2551 108.203 18.2551C109.754 18.2551 111.208 18.525 112.565 19.0647C113.922 19.6045 115.066 20.2792 115.997 21.0888C116.966 21.8598 117.606 22.6309 117.916 23.4019L118.032 18.9491H123.964V45.3191C123.964 49.8298 122.801 53.2995 120.475 55.7283C118.148 58.1572 114.543 59.3716 109.657 59.3716ZM109.541 40.8085C111.751 40.8085 113.612 40.0567 115.124 38.5531C116.636 37.011 117.392 35.0063 117.392 32.5389V32.1341C117.392 30.4763 117.043 28.9921 116.346 27.6813C115.648 26.3705 114.698 25.3488 113.496 24.6163C112.294 23.8838 110.976 23.5176 109.541 23.5176C107.06 23.5176 105.14 24.3272 103.783 25.9464C102.426 27.5271 101.748 29.5896 101.748 32.1341C101.748 34.7171 102.407 36.8183 103.725 38.4375C105.082 40.0181 107.021 40.8085 109.541 40.8085Z" fill="#3E3E3E"/>
<path d="M135.62 46.3022L124.57 18.9491H131.665L137.365 35.8352L138.644 39.941L139.924 35.8352L145.914 18.9491H152.777L136.376 60.0655H129.863L135.62 46.3022Z" fill="#3E3E3E"/>
<path fill-rule="evenodd" clip-rule="evenodd" d="M0 2.1626H11.1247C19.8264 2.1626 26.1426 4.20394 29.7887 8.52813C33.3729 12.7335 35.1604 17.7443 35.1604 23.518C35.1604 24.4934 35.1154 25.452 35.0252 26.3938C35.241 25.8342 35.4906 25.2868 35.7742 24.7519L35.7797 24.7416C37.0167 22.4866 38.7733 20.7004 41.0347 19.3921C43.3101 18.0757 45.9199 17.4295 48.8386 17.4295C51.7556 17.4295 54.3479 18.075 56.5871 19.3937C58.8476 20.7021 60.5855 22.4893 61.7837 24.7465C62.4925 26.0397 62.9961 27.4061 63.2959 28.8427C63.5598 27.3 64.0228 25.8632 64.6899 24.5365L64.6926 24.5311C65.8469 22.2767 67.4863 20.5184 69.6062 19.2784C71.7293 18.0366 74.1861 17.4295 76.9482 17.4295C78.5983 17.4295 80.1576 17.717 81.6186 18.2982C83.0409 18.8638 84.2646 19.5798 85.2747 20.4555C85.4934 20.63 85.6996 20.8071 85.8926 20.9871L85.9674 18.1234H93.5398V45.3196C93.5398 49.9676 92.3393 53.6694 89.8211 56.2985C87.2789 58.9528 83.4119 60.1981 78.4022 60.1981C76.3477 60.1981 74.3144 59.9176 72.3043 59.3579L72.3 59.3568C70.3904 58.8142 68.9515 58.2912 68.045 57.7761L67.5039 57.4687L69.3199 49.9446L70.3065 50.5838C72.732 52.155 75.3662 52.9365 78.2277 52.9365C80.4164 52.9365 82.1981 52.4125 83.6219 51.4111C84.8805 50.5259 85.675 48.6938 85.7134 45.5458V43.2837C84.9569 44.0425 84.0465 44.7105 82.9917 45.2907C81.0388 46.3649 78.8829 46.8975 76.5411 46.8975C74.0743 46.8975 71.7971 46.3028 69.727 45.1089L69.7216 45.1059L69.7163 45.1027C67.6388 43.8632 66.0048 42.1089 64.8144 39.8641C64.0913 38.5005 63.5916 37.0108 63.3091 35.4004C63.0108 36.8747 62.5021 38.2708 61.7811 39.5853C60.5445 41.8395 58.7888 43.6252 56.5286 44.9334C54.2913 46.2509 51.7191 46.8975 48.8386 46.8975C45.9564 46.8975 43.3665 46.2502 41.0929 44.9349C38.8315 43.6266 37.0749 41.8403 35.8379 39.5853C34.6036 37.3351 33.9918 34.8459 33.9918 32.1345C33.9918 31.9742 33.9939 31.8146 33.9982 31.6557C33.6877 32.6827 33.3149 33.6862 32.8796 34.6659L32.8781 34.6692C31.3294 38.1138 28.7658 40.9142 25.2285 43.073C21.6825 45.2611 17.0759 46.3192 11.4737 46.3192H0V2.1626ZM56.1083 44.2208C58.2407 42.9871 59.8885 41.3101 61.0517 39.1897C62.2148 37.0693 62.7964 34.7176 62.7964 32.1345C62.7964 29.5901 62.2148 27.2576 61.0517 25.1372C59.9273 23.0168 58.2989 21.3398 56.1664 20.1061C54.0728 18.8724 51.6301 18.2556 48.8386 18.2556C46.047 18.2556 43.585 18.8724 41.4526 20.1061C39.3201 21.3398 37.6723 23.0168 36.5092 25.1372C35.3848 27.2576 34.8226 29.5901 34.8226 32.1345C34.8226 34.7176 35.4042 37.0693 36.5673 39.1897C37.7305 41.3101 39.3783 42.9871 41.5107 44.2208C43.6432 45.4545 46.0858 46.0713 48.8386 46.0713C51.5914 46.0713 54.0146 45.4545 56.1083 44.2208ZM85.7134 42.048C86.0324 41.6558 86.3093 41.2428 86.5443 40.8089V45.5509C86.5055 48.7893 85.6913 50.9675 84.1016 52.0856C82.512 53.2036 80.554 53.7626 78.2277 53.7626C75.4943 53.7626 72.9509 53.0854 70.5976 51.7311C70.3472 51.5871 70.0991 51.4353 69.853 51.276L68.4572 57.0589C69.2714 57.5215 70.6285 58.0227 72.5283 58.5624C74.4669 59.1022 76.4248 59.372 78.4022 59.372C83.2874 59.372 86.8932 58.1576 89.2195 55.7288C91.5458 53.3 92.709 49.8302 92.709 45.3196V18.9495H86.7769L86.6606 23.4024C86.4919 22.9831 86.2258 22.5639 85.8623 22.1446C85.5573 21.7928 85.1836 21.441 84.7414 21.0892C83.8108 20.2796 82.6671 19.6049 81.3101 19.0652C79.9531 18.5255 78.4991 18.2556 76.9482 18.2556C74.3118 18.2556 72.0048 18.8339 70.0275 19.9905C68.0501 21.147 66.5186 22.7855 65.433 24.9059C64.3862 26.9878 63.8628 29.378 63.8628 32.0767C63.8628 34.8911 64.425 37.3584 65.5494 39.4788C66.6737 41.5992 68.2052 43.2377 70.1438 44.3943C72.0824 45.5123 74.2148 46.0713 76.5411 46.0713C78.7511 46.0713 80.7673 45.5702 82.5895 44.5678C83.8859 43.8547 84.9272 43.0147 85.7134 42.048ZM23.1527 34.7433L23.1535 34.7422C25.4588 31.8679 26.6362 28.2425 26.6362 23.8072C26.6362 19.4911 25.4613 16.0525 23.1741 13.4172C20.947 10.8512 17.3468 9.4821 12.1716 9.4821H8.1753V38.9419H12.1716C17.372 38.9419 20.9611 37.4848 23.1527 34.7433ZM7.34448 39.768V8.65597H12.1716C17.4833 8.65597 21.3605 10.0631 23.8031 12.8775C26.2457 15.6918 27.467 19.3351 27.467 23.8072C27.467 28.3949 26.2457 32.2117 23.8031 35.2573C21.3992 38.2644 17.5221 39.768 12.1716 39.768H7.34448ZM53.65 37.988L53.6537 37.9833C54.8354 36.4973 55.4519 34.606 55.4519 32.2502C55.4519 29.9061 54.8032 27.9978 53.5461 26.47L53.5403 26.463C52.3065 24.9294 50.7062 24.1707 48.6641 24.1707C46.7052 24.1707 45.1638 24.9057 43.9674 26.3988C42.7839 27.924 42.1671 29.8556 42.1671 32.2502C42.1671 34.5447 42.8287 36.4307 44.1208 37.9604C45.3931 39.4288 47.0016 40.1563 49.013 40.1563C51.0245 40.1563 52.5364 39.4308 53.6463 37.9928L53.65 37.988ZM43.4881 38.4957C42.0535 36.7994 41.3362 34.7176 41.3362 32.2502C41.3362 29.7057 41.9954 27.5853 43.3136 25.889C44.6706 24.1927 46.4541 23.3445 48.6641 23.3445C50.9516 23.3445 52.7933 24.212 54.1891 25.9468C55.5849 27.6432 56.2828 29.7443 56.2828 32.2502C56.2828 34.7561 55.6236 36.838 54.3054 38.4957C53.0259 40.1535 51.2618 40.9824 49.013 40.9824C46.7643 40.9824 44.9226 40.1535 43.4881 38.4957ZM73.1602 26.4832C71.9586 27.8828 71.3236 29.7409 71.3236 32.1345C71.3236 34.5708 71.9417 36.472 73.1098 37.9107C74.2762 39.2638 75.9592 39.9828 78.2859 39.9828C80.2819 39.9828 81.928 39.3136 83.2778 37.9731C84.614 36.6084 85.3063 34.8231 85.3063 32.5394V32.1345C85.3063 30.5954 84.9834 29.2465 84.356 28.0683C83.7236 26.8803 82.8741 25.9718 81.8064 25.3211C80.7376 24.6697 79.57 24.3442 78.2859 24.3442C76.0043 24.3442 74.338 25.0779 73.1665 26.4757L73.1602 26.4832ZM72.4701 38.4379C71.1519 36.8187 70.4927 34.7176 70.4927 32.1345C70.4927 29.5901 71.1713 27.5275 72.5283 25.9468C73.8853 24.3276 75.8045 23.518 78.2859 23.518C79.7204 23.518 81.0387 23.8843 82.2406 24.6168C83.4425 25.3493 84.3924 26.3709 85.0903 27.6817C85.7882 28.9925 86.1371 30.4768 86.1371 32.1345V32.5394C86.1371 35.0067 85.3811 37.0115 83.869 38.5536C82.3569 40.0571 80.4959 40.8089 78.2859 40.8089C75.7657 40.8089 73.8271 40.0186 72.4701 38.4379ZM103.559 59.3579L103.555 59.3568C101.646 58.8142 100.207 58.2912 99.3002 57.7761L98.7591 57.4687L100.575 49.9446L101.562 50.5838C103.987 52.155 106.621 52.9365 109.483 52.9365C111.672 52.9365 113.453 52.4125 114.877 51.4111C116.136 50.5258 116.93 48.6936 116.969 45.5452V43.2837C116.212 44.0425 115.302 44.7105 114.247 45.2907C112.294 46.3649 110.138 46.8975 107.796 46.8975C105.329 46.8975 103.052 46.3028 100.982 45.1089L100.977 45.1059L100.972 45.1027C98.894 43.8632 97.26 42.1089 96.0696 39.8641C94.8721 37.6059 94.2871 35.002 94.2871 32.0767C94.2871 29.2702 94.832 26.75 95.9451 24.5365L95.9478 24.5311C97.102 22.2767 98.7415 20.5184 100.861 19.2784C102.985 18.0366 105.441 17.4295 108.203 17.4295C109.853 17.4295 111.413 17.717 112.874 18.2982C114.296 18.8638 115.52 19.5798 116.53 20.4554C116.748 20.6299 116.955 20.8071 117.148 20.9871L117.223 18.1234H132.263L138.156 35.5819L138.644 37.1503L139.135 35.5758L145.326 18.1234H154L136.941 60.8921H128.617L134.723 46.2972L124.795 21.7222V45.3196C124.795 49.9676 123.595 53.6694 121.076 56.2985C118.534 58.9528 114.667 60.1981 109.657 60.1981C107.603 60.1981 105.57 59.9176 103.559 59.3579ZM123.964 18.9495H118.032L117.916 23.4024C117.747 22.9831 117.481 22.5639 117.117 22.1446C116.812 21.7928 116.439 21.441 115.997 21.0892C115.066 20.2796 113.922 19.6049 112.565 19.0652C111.208 18.5255 109.754 18.2556 108.203 18.2556C105.567 18.2556 103.26 18.8339 101.283 19.9905C99.3053 21.147 97.7738 22.7855 96.6882 24.9059C95.6414 26.9878 95.118 29.378 95.118 32.0767C95.118 34.8911 95.6802 37.3584 96.8045 39.4788C97.9289 41.5992 99.4604 43.2377 101.399 44.3943C103.338 45.5123 105.47 46.0713 107.796 46.0713C110.006 46.0713 112.022 45.5702 113.845 44.5678C115.141 43.8547 116.182 43.0147 116.969 42.048C117.288 41.6558 117.564 41.2428 117.799 40.8089V45.5509C117.761 48.7893 116.946 50.9675 115.357 52.0856C113.767 53.2036 111.809 53.7626 109.483 53.7626C106.749 53.7626 104.206 53.0854 101.853 51.7311C101.602 51.5871 101.354 51.4353 101.108 51.276L99.7124 57.0589C100.527 57.5215 101.884 58.0227 103.783 58.5624C105.722 59.1022 107.68 59.372 109.657 59.372C114.543 59.372 118.148 58.1576 120.475 55.7288C122.801 53.3 123.964 49.8302 123.964 45.3196V18.9495ZM135.62 46.3027L129.863 60.066H136.376L152.777 18.9495H145.914L139.924 35.8356L138.644 39.9415L137.365 35.8356L131.665 18.9495H124.57L135.62 46.3027ZM104.422 26.4757L104.415 26.4833C103.214 27.8828 102.579 29.7409 102.579 32.1345C102.579 34.5702 103.197 36.4711 104.364 37.9096C105.531 39.2634 107.214 39.9828 109.541 39.9828C111.537 39.9828 113.183 39.3136 114.533 37.9731C115.869 36.6084 116.562 34.8231 116.562 32.5394V32.1345C116.562 30.5954 116.239 29.2465 115.611 28.0683C114.979 26.8803 114.129 25.9718 113.062 25.3211C111.993 24.6697 110.825 24.3442 109.541 24.3442C107.259 24.3442 105.593 25.0779 104.422 26.4757ZM103.725 38.4379C102.407 36.8187 101.748 34.7176 101.748 32.1345C101.748 29.5901 102.426 27.5275 103.783 25.9468C105.14 24.3276 107.06 23.518 109.541 23.518C110.976 23.518 112.294 23.8843 113.496 24.6168C114.698 25.3493 115.648 26.3709 116.345 27.6817C117.043 28.9925 117.392 30.4768 117.392 32.1345V32.5394C117.392 35.0067 116.636 37.0115 115.124 38.5536C113.612 40.0571 111.751 40.8089 109.541 40.8089C107.021 40.8089 105.082 40.0186 103.725 38.4379ZM0.830823 2.98873V45.4931H11.4737C16.9793 45.4931 21.4186 44.4521 24.7918 42.3703C28.2037 40.2884 30.6463 37.609 32.1196 34.3321C33.593 31.0165 34.3296 27.4118 34.3296 23.518C34.3296 17.9279 32.6043 13.1088 29.1536 9.06077C25.7417 5.01274 19.7321 2.98873 11.1247 2.98873H0.830823Z" fill="#D0D0D0"/>
</svg>
