<svg width="139" height="132" viewBox="0 0 139 132" fill="none" xmlns="http://www.w3.org/2000/svg">
<path d="M66.4207 23.706C60.6214 17.7315 52.951 18.2123 51.4945 28.8344C50.2072 38.2127 51.2182 42.4073 54.1844 46.4433C57.1506 50.4793 60.7308 54.1733 66.668 52.4046C70.2163 51.3477 74.4062 50.1799 75.8073 41.7459C77.2785 32.8714 66.4207 23.706 66.4207 23.706Z" fill="#6091A6"/>
<path d="M17.2691 70.7808C16.2276 63.0095 18.7898 59.6147 27.777 62.0835C36.7642 64.5523 40.8909 69.3927 42.1582 73.9576C43.4254 78.5224 42.5454 84.3471 37.6948 87.5589C34.7962 89.4781 32.9232 91.5921 25.7658 87.5255C18.2335 83.2459 17.2691 70.7808 17.2691 70.7808Z" fill="#6091A6"/>
<path d="M94.6969 37.4719C90.0025 31.1782 85.788 30.5247 81.075 38.5353C76.3621 46.5458 76.7935 52.8808 79.0814 57.0331C81.3693 61.1854 86.0785 64.749 91.804 63.6825C95.2259 63.0453 98.0483 63.2595 100.332 55.374C102.734 47.0761 94.6969 37.4719 94.6969 37.4719Z" fill="#6091A6"/>
<path d="M96.3773 71.8363C89.535 65.7835 85.5376 69.3691 76.4482 61.7759C65.861 52.9298 57.3 57.2157 57.2974 57.2172C57.2949 57.2187 48.3201 60.5758 47.7757 74.2729C47.3076 86.0302 41.9354 86.5298 41.8335 95.6092C41.7696 101.245 47.9938 108.021 56.8898 103.934C65.1533 100.137 68.7928 101.257 75.6652 98.4494C82.3974 95.3273 84.0177 91.9147 92.427 88.445C101.481 84.7088 100.624 75.5929 96.3773 71.8363Z" fill="#6091A6"/>
<path d="M26.4164 40.4597C26.6476 32.1385 32.6237 27.3093 40.883 34.1508C48.1749 40.1907 50.2673 43.9646 50.8118 48.9432C51.3562 53.9218 51.2167 59.0627 45.6457 61.7718C42.3166 63.3911 38.4378 65.363 31.7038 60.0941C24.6147 54.5511 26.4164 40.4597 26.4164 40.4597Z" fill="#6091A6"/>
<path d="M43.0923 70.2543H48.9031C53.7618 70.2543 57.1542 71.4034 59.0802 73.7014C61.0281 75.9995 62.002 78.7353 62.002 81.9088C62.002 84.1193 61.5862 86.1656 60.7545 88.0479C59.9228 89.9082 58.544 91.4293 56.618 92.6112C54.7139 93.793 52.2079 94.3839 49.1001 94.3839H43.0923V70.2543ZM49.494 91.1338C52.5143 91.1338 54.7029 90.2803 56.0599 88.5731C57.4387 86.8441 58.1282 84.6774 58.1282 82.0729C58.1282 79.5341 57.4387 77.4659 56.0599 75.8682C54.6811 74.2705 52.4924 73.4716 49.494 73.4716H46.7692V91.1338H49.494Z" fill="white"/>
<path d="M70.1922 94.7122C68.6383 94.7122 67.2594 94.3621 66.0557 93.6617C64.8519 92.9613 63.9218 92.0093 63.2652 90.8055C62.6086 89.6018 62.2803 88.2667 62.2803 86.8004C62.2803 85.3559 62.5977 84.0317 63.2324 82.828C63.8889 81.6242 64.8191 80.6722 66.0229 79.9718C67.2266 79.2715 68.6164 78.9213 70.1922 78.9213C71.768 78.9213 73.1468 79.2715 74.3287 79.9718C75.5324 80.6722 76.4517 81.6242 77.0864 82.828C77.743 84.0317 78.0712 85.3559 78.0712 86.8004C78.0712 88.2667 77.743 89.6018 77.0864 90.8055C76.4298 92.0093 75.4996 92.9613 74.2959 93.6617C73.114 94.3621 71.7461 94.7122 70.1922 94.7122ZM70.2907 91.8233C71.5601 91.8233 72.5559 91.3527 73.2781 90.4116C74.0223 89.4705 74.3943 88.2886 74.3943 86.866C74.3943 85.4434 74.0004 84.2506 73.2125 83.2876C72.4246 82.3027 71.385 81.8103 70.0937 81.8103C68.8462 81.8103 67.8394 82.2918 67.0734 83.2548C66.3293 84.2178 65.9572 85.4215 65.9572 86.866C65.9572 88.2667 66.3621 89.4486 67.1719 90.4116C67.9817 91.3527 69.0213 91.8233 70.2907 91.8233Z" fill="white"/>
<path d="M86.8806 102.263C85.7644 102.263 84.6591 102.11 83.5648 101.803C82.4924 101.497 81.7263 101.212 81.2667 100.95L82.0546 97.6669C83.4991 98.608 85.0749 99.0785 86.7821 99.0785C88.0952 99.0785 89.2005 98.7612 90.0978 98.1265C90.9952 97.4918 91.4548 96.2552 91.4767 94.4168V91.7248C91.0171 92.5783 90.2729 93.2896 89.2443 93.8587C88.2156 94.4277 87.0775 94.7122 85.83 94.7122C84.5168 94.7122 83.3131 94.3949 82.2188 93.7602C81.1245 93.1036 80.26 92.1734 79.6253 90.9697C78.9905 89.7659 78.6732 88.3652 78.6732 86.7675C78.6732 85.2355 78.9687 83.8785 79.5596 82.6967C80.1724 81.4929 81.0369 80.5628 82.1531 79.9062C83.2693 79.2496 84.5716 78.9213 86.0598 78.9213C86.9353 78.9213 87.756 79.0745 88.522 79.3809C89.288 79.6873 89.9337 80.0703 90.459 80.5299C91.0061 80.9677 91.3672 81.4054 91.5423 81.8431L91.608 79.3152H94.9566V94.2855C94.9566 96.8461 94.3 98.8159 92.9868 100.195C91.6736 101.574 89.6382 102.263 86.8806 102.263ZM86.8149 91.7248C88.0624 91.7248 89.1129 91.298 89.9665 90.4444C90.8201 89.569 91.2469 88.4309 91.2469 87.0302V86.8004C91.2469 85.8592 91.0499 85.0166 90.6559 84.2725C90.262 83.5284 89.7258 82.9484 89.0473 82.5325C88.3688 82.1167 87.6247 81.9088 86.8149 81.9088C85.4142 81.9088 84.3308 82.3684 83.5648 83.2876C82.7988 84.1849 82.4158 85.3559 82.4158 86.8004C82.4158 88.2667 82.7878 89.4595 83.532 90.3788C84.298 91.2761 85.3923 91.7248 86.8149 91.7248Z" fill="white"/>
<path d="M104.524 102.263C103.408 102.263 102.302 102.11 101.208 101.803C100.136 101.497 99.3696 101.212 98.91 100.95L99.6979 97.6669C101.142 98.608 102.718 99.0785 104.425 99.0785C105.738 99.0785 106.844 98.7612 107.741 98.1265C108.638 97.4918 109.098 96.2552 109.12 94.4168V91.7248C108.66 92.5783 107.916 93.2896 106.888 93.8587C105.859 94.4277 104.721 94.7122 103.473 94.7122C102.16 94.7122 100.956 94.3949 99.862 93.7602C98.7677 93.1036 97.9032 92.1734 97.2685 90.9697C96.6338 89.7659 96.3164 88.3652 96.3164 86.7675C96.3164 85.2355 96.6119 83.8785 97.2028 82.6967C97.8156 81.4929 98.6802 80.5628 99.7964 79.9062C100.913 79.2496 102.215 78.9213 103.703 78.9213C104.579 78.9213 105.399 79.0745 106.165 79.3809C106.931 79.6873 107.577 80.0703 108.102 80.5299C108.649 80.9677 109.01 81.4054 109.186 81.8431L109.251 79.3152H112.6V94.2855C112.6 96.8461 111.943 98.8159 110.63 100.195C109.317 101.574 107.281 102.263 104.524 102.263ZM104.458 91.7248C105.706 91.7248 106.756 91.298 107.61 90.4444C108.463 89.569 108.89 88.4309 108.89 87.0302V86.8004C108.89 85.8592 108.693 85.0166 108.299 84.2725C107.905 83.5284 107.369 82.9484 106.691 82.5325C106.012 82.1167 105.268 81.9088 104.458 81.9088C103.057 81.9088 101.974 82.3684 101.208 83.2876C100.442 84.1849 100.059 85.3559 100.059 86.8004C100.059 88.2667 100.431 89.4595 101.175 90.3788C101.941 91.2761 103.036 91.7248 104.458 91.7248Z" fill="white"/>
<path d="M119.18 94.8436L112.942 79.3152H116.947L120.164 88.9014L120.887 91.2323L121.609 88.9014L124.99 79.3152H128.864L119.606 102.657H115.929L119.18 94.8436Z" fill="white"/>
<path fill-rule="evenodd" clip-rule="evenodd" d="M42.0664 69.2285H48.9031C53.8787 69.2285 57.6497 70.3992 59.8648 73.0404C61.8453 75.378 62.8925 78.1377 63.0157 81.2761C63.6838 80.3932 64.5166 79.6614 65.507 79.0851C66.8871 78.2821 68.4595 77.8954 70.1922 77.8954C71.923 77.8954 73.4867 78.2813 74.8482 79.0872C76.2101 79.8804 77.2646 80.9693 77.9904 82.343C78.1059 82.5551 78.2123 82.7705 78.3096 82.9889C78.409 82.733 78.5197 82.4826 78.642 82.2379L78.6453 82.2313C79.3429 80.8611 80.3407 79.7821 81.633 79.0219C82.9292 78.2595 84.4164 77.8954 86.0599 77.8954C87.0578 77.8954 88.0086 78.0706 88.9031 78.4284C89.5192 78.6749 90.0811 78.9719 90.5815 79.3241L90.6084 78.2894H95.9825V82.9135C96.0741 82.6837 96.175 82.4585 96.2853 82.2379L96.2886 82.2313C96.9862 80.8611 97.9839 79.7821 99.2762 79.0219C100.572 78.2595 102.06 77.8954 103.703 77.8954C104.701 77.8954 105.652 78.0706 106.546 78.4284C107.162 78.6749 107.724 78.9719 108.225 79.3241L108.252 78.2894H117.685L120.893 87.8475L124.264 78.2894H130.375L120.303 103.683H114.392L118.071 94.8368L113.626 83.7699V94.2855C113.626 97.0168 112.923 99.2747 111.373 100.902C109.793 102.561 107.435 103.289 104.524 103.289C103.312 103.289 102.114 103.123 100.931 102.791L100.926 102.79C99.8417 102.48 98.9746 102.168 98.401 101.841L97.7328 101.459L99.0396 96.0136L100.258 96.8073C101.538 97.6411 102.919 98.0527 104.425 98.0527C105.569 98.0527 106.456 97.7788 107.149 97.289C107.637 96.9432 108.073 96.1362 108.094 94.4104V94.3164C107.87 94.4722 107.633 94.6188 107.384 94.7564C106.194 95.4147 104.884 95.7382 103.473 95.7382C101.987 95.7382 100.604 95.3766 99.3473 94.6477L99.3407 94.6439L99.3342 94.6399C98.0683 93.8804 97.0772 92.8065 96.361 91.4482C96.2207 91.1822 96.0947 90.9088 95.9825 90.6283V94.2855C95.9825 97.0168 95.2799 99.2747 93.7298 100.902C92.15 102.561 89.792 103.289 86.8806 103.289C85.6692 103.289 84.4709 103.123 83.2882 102.791L83.283 102.79C82.1985 102.48 81.3313 102.168 80.7578 101.841L80.0896 101.459L81.3964 96.0136L82.6147 96.8073C83.8943 97.6411 85.2759 98.0527 86.7821 98.0527C87.9253 98.0527 88.8129 97.7788 89.5054 97.289C89.9942 96.9432 90.4292 96.1363 90.4508 94.4107V94.3164C90.2265 94.4722 89.9896 94.6188 89.7409 94.7564C88.5509 95.4147 87.2403 95.7382 85.83 95.7382C84.3433 95.7382 82.9609 95.3766 81.7041 94.6477L81.6975 94.6439L81.691 94.6399C80.4251 93.8804 79.434 92.8065 78.7178 91.4482C78.573 91.1736 78.4433 90.8911 78.3285 90.6011C78.2252 90.8369 78.1114 91.0688 77.9871 91.2968C77.2399 92.6665 76.1768 93.7535 74.8155 94.5463C73.4562 95.351 71.9041 95.7382 70.1922 95.7382C68.4785 95.7382 66.9178 95.3502 65.5398 94.5485C64.1768 93.7555 63.1124 92.6678 62.3646 91.2968C61.9546 90.5452 61.6595 89.7508 61.477 88.9171C60.5383 90.7792 59.0847 92.3007 57.157 93.4842C55.0395 94.7978 52.3271 95.4099 49.1001 95.4099H42.0664V69.2285ZM56.618 92.6112C58.544 91.4293 59.9229 89.9082 60.7545 88.0479C60.9424 87.6227 61.1091 87.1891 61.2546 86.7471C61.6325 85.5984 61.8672 84.3932 61.9585 83.1314C61.9875 82.7296 62.0021 82.3221 62.0021 81.9088C62.0021 78.7353 61.0281 75.9995 59.0802 73.7015C57.1543 71.4034 53.7619 70.2544 48.9031 70.2544H43.0923V94.384H49.1001C52.208 94.384 54.7139 93.7931 56.618 92.6112ZM62.2809 86.9072C62.2965 88.3317 62.6246 89.6311 63.2652 90.8056C63.9218 92.0093 64.852 92.9614 66.0557 93.6617C67.2595 94.3621 68.6383 94.7123 70.1922 94.7123C71.7461 94.7123 73.114 94.3621 74.2959 93.6617C75.4996 92.9614 76.4298 92.0093 77.0864 90.8056C77.4202 90.1936 77.6692 89.5476 77.8333 88.8678C77.9919 88.2104 78.0713 87.5213 78.0713 86.8004C78.0713 86.7894 78.0713 86.7785 78.0712 86.7676C78.0688 86.0565 77.9866 85.3747 77.8246 84.7221C77.6605 84.0607 77.4144 83.4294 77.0864 82.828C76.4517 81.6243 75.5325 80.6722 74.3287 79.9719C73.1469 79.2715 71.768 78.9213 70.1922 78.9213C68.6164 78.9213 67.2266 79.2715 66.0229 79.9719C64.8191 80.6722 63.889 81.6243 63.2324 82.828C63.1373 83.0085 63.0493 83.1916 62.9684 83.3774C62.5097 84.4314 62.2803 85.5724 62.2803 86.8004C62.2803 86.8361 62.2805 86.8717 62.2809 86.9072ZM78.882 88.8826C79.0401 89.634 79.2878 90.3297 79.6253 90.9697C80.26 92.1735 81.1245 93.1036 82.2188 93.7602C83.3131 94.3949 84.5169 94.7123 85.83 94.7123C87.0776 94.7123 88.2157 94.4278 89.2443 93.8587C89.7031 93.6049 90.1052 93.3229 90.4508 93.0125C90.8801 92.6269 91.2221 92.1977 91.4767 91.7248V94.4168C91.4548 96.2553 90.9952 97.4918 90.0979 98.1265C89.2005 98.7612 88.0953 99.0786 86.7821 99.0786C85.4336 99.0786 84.167 98.785 82.9823 98.1977C82.6673 98.0415 82.3581 97.8646 82.0547 97.6669L81.2668 100.95C81.7264 101.213 82.4924 101.497 83.5648 101.803C84.6591 102.11 85.7644 102.263 86.8806 102.263C89.6383 102.263 91.6737 101.574 92.9869 100.195C94.3 98.816 94.9566 96.8462 94.9566 94.2855V79.3153H91.608L91.5424 81.8432C91.377 81.4297 91.0456 81.0163 90.5483 80.6028C90.5191 80.5785 90.4893 80.5543 90.459 80.53C89.9337 80.0704 89.2881 79.6874 88.5221 79.3809C87.756 79.0745 86.9353 78.9213 86.0599 78.9213C84.5716 78.9213 83.2694 79.2496 82.1532 79.9062C81.037 80.5628 80.1725 81.493 79.5596 82.6967C79.2496 83.3168 79.0209 83.9851 78.8735 84.7017C78.74 85.3507 78.6732 86.0394 78.6732 86.7676C78.6732 86.7785 78.6733 86.7895 78.6733 86.8004C78.6753 87.5364 78.7449 88.2305 78.882 88.8826ZM83.5648 83.2876C84.3308 82.3684 85.4142 81.9088 86.8149 81.9088C87.6247 81.9088 88.3689 82.1167 89.0473 82.5326C89.7258 82.9484 90.262 83.5284 90.656 84.2725C91.0499 85.0167 91.2469 85.8593 91.2469 86.8004V87.0302C91.2469 88.4309 90.8201 89.569 89.9666 90.4445C89.113 91.298 88.0625 91.7248 86.8149 91.7248C85.3923 91.7248 84.298 91.2761 83.532 90.3788C82.7879 89.4596 82.4158 88.2668 82.4158 86.8004C82.4158 85.3559 82.7988 84.185 83.5648 83.2876ZM84.3209 89.7228C84.8517 90.3387 85.6312 90.6989 86.8149 90.6989C87.7982 90.6989 88.5834 90.3746 89.2365 89.7236C89.8729 89.0685 90.221 88.2027 90.221 87.0302V86.8004C90.221 86.0066 90.0561 85.3321 89.7493 84.7525C89.4361 84.161 89.0239 83.7215 88.5112 83.4073C87.9971 83.0921 87.439 82.9347 86.8149 82.9347C85.6609 82.9347 84.8899 83.3001 84.353 83.9444L84.3452 83.9538C83.7711 84.6263 83.4417 85.5432 83.4417 86.8004C83.4417 88.0832 83.7626 89.0276 84.3209 89.7228ZM108.094 93.0125C108.523 92.6269 108.865 92.1977 109.12 91.7248V94.4168C109.098 96.2553 108.638 97.4918 107.741 98.1265C106.844 98.7612 105.739 99.0786 104.425 99.0786C103.077 99.0786 101.81 98.785 100.626 98.1977C100.311 98.0415 100.001 97.8646 99.6979 97.6669L98.91 100.95C99.3696 101.213 100.136 101.497 101.208 101.803C102.302 102.11 103.408 102.263 104.524 102.263C107.281 102.263 109.317 101.574 110.63 100.195C111.943 98.816 112.6 96.8462 112.6 94.2855V79.3153H109.251L109.186 81.8432C109.02 81.4297 108.689 81.0163 108.192 80.6028C108.162 80.5785 108.133 80.5543 108.102 80.53C107.577 80.0704 106.931 79.6874 106.165 79.3809C105.399 79.0745 104.579 78.9213 103.703 78.9213C102.215 78.9213 100.913 79.2496 99.7964 79.9062C98.6802 80.5628 97.8157 81.493 97.2029 82.6967C96.6119 83.8786 96.3165 85.2355 96.3165 86.7676C96.3165 88.3653 96.6338 89.766 97.2685 90.9697C97.9032 92.1735 98.7677 93.1036 99.862 93.7602C100.956 94.3949 102.16 94.7123 103.473 94.7123C104.721 94.7123 105.859 94.4278 106.888 93.8587C107.346 93.6049 107.748 93.3229 108.094 93.0125ZM119.18 94.8436L115.929 102.657H119.606L128.864 79.3153H124.99L121.609 88.9015L120.887 91.2324L120.164 88.9015L116.947 79.3153H112.942L119.18 94.8436ZM55.2568 87.9348L55.2578 87.9335C56.467 86.4172 57.1023 84.4881 57.1023 82.073C57.1023 79.728 56.4702 77.9138 55.2833 76.5385C54.1705 75.2491 52.3239 74.4976 49.4941 74.4976H47.7951V90.108H49.4941C52.329 90.108 54.162 89.3122 55.2568 87.9348ZM46.7692 91.1339V73.4717H49.4941C52.4925 73.4717 54.6811 74.2705 56.0599 75.8682C57.4388 77.4659 58.1282 79.5342 58.1282 82.073C58.1282 84.6774 57.4388 86.8442 56.0599 88.5732C54.703 90.2803 52.5144 91.1339 49.4941 91.1339H46.7692ZM72.4688 89.7811L72.4734 89.7753C73.0489 89.0475 73.3685 88.1023 73.3685 86.8661C73.3685 85.6444 73.0352 84.6911 72.4185 83.9373L72.4114 83.9286C71.8235 83.1937 71.082 82.8362 70.0937 82.8362C69.1563 82.8362 68.4483 83.1773 67.8808 83.8879C67.3029 84.6385 66.9832 85.6079 66.9832 86.8661C66.9832 88.0521 67.3193 88.9907 67.9533 89.7468C68.5626 90.4527 69.3144 90.7974 70.2907 90.7974C71.2671 90.7974 71.9515 90.4553 72.4643 89.787L72.4688 89.7811ZM101.988 83.9537C101.414 84.6262 101.085 85.5432 101.085 86.8004C101.085 88.0832 101.406 89.0276 101.964 89.7228C102.495 90.3387 103.274 90.6989 104.458 90.6989C105.441 90.6989 106.226 90.3747 106.88 89.7237C107.516 89.0686 107.864 88.2027 107.864 87.0302V86.8004C107.864 86.0066 107.699 85.3321 107.393 84.7525C107.079 84.161 106.667 83.7215 106.154 83.4073C105.64 83.0921 105.082 82.9347 104.458 82.9347C103.304 82.9347 102.533 83.3001 101.996 83.9444L101.988 83.9537ZM107.61 90.4445C106.756 91.298 105.706 91.7248 104.458 91.7248C103.036 91.7248 101.941 91.2761 101.175 90.3788C100.431 89.4596 100.059 88.2668 100.059 86.8004C100.059 85.3559 100.442 84.185 101.208 83.2876C101.974 82.3684 103.057 81.9088 104.458 81.9088C105.268 81.9088 106.012 82.1167 106.691 82.5326C107.369 82.9484 107.905 83.5284 108.299 84.2725C108.693 85.0167 108.89 85.8593 108.89 86.8004V87.0302C108.89 88.4309 108.463 89.569 107.61 90.4445ZM73.2782 90.4116C72.5559 91.3527 71.5601 91.8233 70.2907 91.8233C69.0213 91.8233 67.9817 91.3527 67.1719 90.4116C66.3621 89.4486 65.9572 88.2668 65.9572 86.8661C65.9572 85.4216 66.3293 84.2178 67.0734 83.2548C67.8395 82.2918 68.8462 81.8103 70.0937 81.8103C71.385 81.8103 72.4246 82.3028 73.2125 83.2876C74.0004 84.2506 74.3944 85.4434 74.3944 86.8661C74.3944 88.2887 74.0223 89.4705 73.2782 90.4116Z" fill="#6091A6"/>
<path d="M67.4458 76.1213C67.4458 76.5481 67.3391 76.9051 67.1257 77.1924C66.9124 77.4796 66.6087 77.6971 66.2147 77.8449C65.8208 77.9926 65.353 78.0665 64.8113 78.0665C64.3517 78.0665 63.9536 78.0295 63.6171 77.9557C63.2888 77.8818 62.9975 77.7792 62.743 77.6479V76.663C63.0057 76.7943 63.3216 76.9174 63.691 77.0323C64.0685 77.139 64.4502 77.1924 64.8359 77.1924C65.3858 77.1924 65.7838 77.1062 66.0301 76.9339C66.2763 76.7533 66.3994 76.5153 66.3994 76.2198C66.3994 76.0557 66.3543 75.9079 66.264 75.7766C66.1737 75.6453 66.0095 75.514 65.7715 75.3827C65.5417 75.2513 65.2093 75.1036 64.7743 74.9395C64.3476 74.7753 63.9823 74.6112 63.6787 74.447C63.375 74.2829 63.1411 74.0859 62.9769 73.8561C62.8128 73.6263 62.7307 73.3308 62.7307 72.9697C62.7307 72.4116 62.9564 71.9807 63.4078 71.677C63.8674 71.3734 64.4666 71.2215 65.2052 71.2215C65.6074 71.2215 65.9808 71.2626 66.3255 71.3446C66.6784 71.4185 67.0067 71.5252 67.3104 71.6647L66.9411 72.5265C66.7605 72.4444 66.5676 72.3747 66.3625 72.3172C66.1655 72.2516 65.9644 72.2023 65.7592 72.1695C65.554 72.1284 65.3448 72.1079 65.1314 72.1079C64.6882 72.1079 64.3476 72.1818 64.1095 72.3295C63.8797 72.4691 63.7648 72.6619 63.7648 72.9081C63.7648 73.0887 63.8182 73.2446 63.9249 73.376C64.0316 73.4991 64.208 73.6222 64.4543 73.7453C64.7087 73.8602 65.0452 73.9997 65.4638 74.1639C65.8823 74.3198 66.2394 74.4799 66.5348 74.644C66.8303 74.8081 67.056 75.0092 67.2119 75.2472C67.3679 75.477 67.4458 75.7684 67.4458 76.1213Z" fill="white"/>
<path d="M71.6133 77.1801C71.7775 77.1801 71.9457 77.1678 72.1181 77.1431C72.2904 77.1103 72.4299 77.0775 72.5366 77.0446V77.8695C72.4217 77.9269 72.2576 77.9721 72.0442 78.0049C71.8308 78.0459 71.6256 78.0665 71.4286 78.0665C71.0839 78.0665 70.7638 78.009 70.4684 77.8941C70.1811 77.771 69.9472 77.5617 69.7667 77.2662C69.5861 76.9708 69.4958 76.5563 69.4958 76.0228V72.1818H68.5602V71.6647L69.5081 71.2338L69.939 69.8304H70.5792V71.3446H72.4874V72.1818H70.5792V75.9982C70.5792 76.4004 70.6736 76.6999 70.8623 76.8969C71.0593 77.0857 71.3096 77.1801 71.6133 77.1801Z" fill="white"/>
<path d="M79.2502 71.3446V77.9434H78.3638L78.2037 77.0693H78.1545C78.015 77.2991 77.8344 77.4878 77.6128 77.6356C77.3912 77.7833 77.1491 77.89 76.8865 77.9557C76.6238 78.0295 76.3489 78.0665 76.0616 78.0665C75.5364 78.0665 75.0932 77.9844 74.732 77.8202C74.3791 77.6479 74.1124 77.3853 73.9318 77.0323C73.7513 76.6794 73.661 76.2239 73.661 75.6658V71.3446H74.7567V75.5919C74.7567 76.1172 74.8757 76.5112 75.1137 76.7738C75.3517 77.0364 75.721 77.1678 76.2217 77.1678C76.7141 77.1678 77.0999 77.0775 77.3789 76.8969C77.6662 76.7081 77.8672 76.4373 77.9821 76.0844C78.1053 75.7233 78.1668 75.2883 78.1668 74.7794V71.3446H79.2502Z" fill="white"/>
<path d="M83.0686 78.0665C82.2479 78.0665 81.5913 77.7833 81.0989 77.217C80.6064 76.6425 80.3602 75.7889 80.3602 74.6563C80.3602 73.5237 80.6064 72.6701 81.0989 72.0956C81.5995 71.5129 82.2602 71.2215 83.0809 71.2215C83.4256 71.2215 83.7252 71.2667 83.9796 71.357C84.2341 71.439 84.4557 71.5539 84.6444 71.7017C84.8332 71.8494 84.9932 72.0135 85.1246 72.1941H85.1984C85.1902 72.0874 85.1738 71.9315 85.1492 71.7263C85.1328 71.5129 85.1246 71.3446 85.1246 71.2215V68.587H86.2079V77.9434H85.3338L85.1738 77.057H85.1246C84.9932 77.2457 84.8332 77.4181 84.6444 77.574C84.4557 77.7218 84.23 77.8408 83.9673 77.931C83.7129 78.0213 83.4133 78.0665 83.0686 78.0665ZM83.241 77.1678C83.9386 77.1678 84.4269 76.979 84.706 76.6015C84.9932 76.2157 85.1369 75.6371 85.1369 74.8656V74.6686C85.1369 73.8479 85.0015 73.22 84.7306 72.785C84.4598 72.3418 83.9591 72.1202 83.2287 72.1202C82.6459 72.1202 82.2069 72.3541 81.9114 72.822C81.6241 73.2816 81.4805 73.9012 81.4805 74.6809C81.4805 75.4688 81.6241 76.0803 81.9114 76.5153C82.2069 76.9503 82.65 77.1678 83.241 77.1678Z" fill="white"/>
<path d="M88.7715 71.3446V77.9434H87.6881V71.3446H88.7715ZM88.2421 68.8701C88.4063 68.8701 88.5499 68.9276 88.673 69.0425C88.8043 69.1492 88.87 69.3215 88.87 69.5595C88.87 69.7894 88.8043 69.9617 88.673 70.0766C88.5499 70.1915 88.4063 70.249 88.2421 70.249C88.0616 70.249 87.9097 70.1915 87.7866 70.0766C87.6635 69.9617 87.602 69.7894 87.602 69.5595C87.602 69.3215 87.6635 69.1492 87.7866 69.0425C87.9097 68.9276 88.0616 68.8701 88.2421 68.8701Z" fill="white"/>
<path d="M96.1066 74.6317C96.1066 75.1816 96.0327 75.6699 95.885 76.0967C95.7455 76.5153 95.5403 76.8723 95.2694 77.1678C95.0068 77.4632 94.6826 77.6889 94.2969 77.8449C93.9193 77.9926 93.4966 78.0665 93.0288 78.0665C92.5938 78.0665 92.1917 77.9926 91.8223 77.8449C91.453 77.6889 91.1329 77.4632 90.8621 77.1678C90.5912 76.8723 90.3778 76.5153 90.2219 76.0967C90.0742 75.6699 90.0003 75.1816 90.0003 74.6317C90.0003 73.9012 90.1234 73.2857 90.3696 72.785C90.6159 72.2762 90.9688 71.8904 91.4284 71.6278C91.888 71.357 92.4338 71.2215 93.0658 71.2215C93.6649 71.2215 94.1902 71.357 94.6416 71.6278C95.1012 71.8904 95.4582 72.2762 95.7126 72.785C95.9753 73.2857 96.1066 73.9012 96.1066 74.6317ZM91.1206 74.6317C91.1206 75.1488 91.1863 75.6002 91.3176 75.9859C91.4571 76.3634 91.6705 76.6548 91.9578 76.86C92.245 77.0652 92.6102 77.1678 93.0534 77.1678C93.4966 77.1678 93.8619 77.0652 94.1491 76.86C94.4364 76.6548 94.6457 76.3634 94.777 75.9859C94.9165 75.6002 94.9863 75.1488 94.9863 74.6317C94.9863 74.1064 94.9165 73.6591 94.777 73.2898C94.6375 72.9205 94.4241 72.6373 94.1368 72.4403C93.8578 72.2351 93.4925 72.1326 93.0411 72.1326C92.3681 72.1326 91.8798 72.3541 91.5761 72.7973C91.2724 73.2405 91.1206 73.852 91.1206 74.6317Z" fill="white"/>
</svg>
