<svg width="238" height="93" viewBox="0 0 238 93" fill="none" xmlns="http://www.w3.org/2000/svg">
<path d="M79.5604 42.1937C78.2891 40.8914 76.6077 40.9962 76.2884 43.3116C76.0062 45.3558 76.2278 46.2701 76.878 47.1499C77.5283 48.0296 78.3131 48.8348 79.6146 48.4493C80.3925 48.2189 81.311 47.9644 81.6181 46.126C81.9406 44.1915 79.5604 42.1937 79.5604 42.1937Z" fill="#F8F9FA"/>
<path d="M68.7855 52.4549C68.5572 50.7609 69.1188 50.0209 71.089 50.5591C73.0591 51.0972 73.9637 52.1523 74.2415 53.1473C74.5193 54.1424 74.3264 55.412 73.2631 56.1121C72.6277 56.5304 72.2171 56.9912 70.6481 56.1048C68.9969 55.172 68.7855 52.4549 68.7855 52.4549Z" fill="#F8F9FA"/>
<path d="M85.7588 45.1944C84.7297 43.8225 83.8058 43.6801 82.7726 45.4262C81.7395 47.1723 81.8341 48.5531 82.3356 49.4582C82.8372 50.3633 83.8695 51.1401 85.1246 50.9076C85.8747 50.7687 86.4934 50.8154 86.994 49.0966C87.5205 47.2878 85.7588 45.1944 85.7588 45.1944Z" fill="#F8F9FA"/>
<path d="M86.1271 52.685C84.6271 51.3656 83.7509 52.1472 81.7583 50.4921C79.4375 48.5638 77.5608 49.498 77.5602 49.4984C77.5596 49.4987 75.5922 50.2305 75.4729 53.2161C75.3703 55.7789 74.1926 55.8878 74.1703 57.8669C74.1563 59.0953 75.5207 60.5725 77.4709 59.6815C79.2823 58.8538 80.0802 59.098 81.5867 58.486C83.0625 57.8055 83.4177 57.0616 85.2611 56.3053C87.246 55.4909 87.0581 53.5038 86.1271 52.685Z" fill="#F8F9FA"/>
<path d="M70.7906 45.8456C70.8413 44.0318 72.1514 42.9791 73.9619 44.4704C75.5604 45.787 76.0191 46.6096 76.1385 47.6948C76.2578 48.78 76.2272 49.9006 75.006 50.4911C74.2762 50.8441 73.4259 51.2739 71.9497 50.1254C70.3957 48.9172 70.7906 45.8456 70.7906 45.8456Z" fill="#F8F9FA"/>
<path d="M71.4508 18.9104C71.4508 19.9816 71.1815 20.8777 70.6428 21.5987C70.1042 22.3196 69.3377 22.8655 68.3433 23.2363C67.3489 23.6071 66.168 23.7925 64.8007 23.7925C63.6406 23.7925 62.6359 23.6998 61.7865 23.5144C60.9578 23.329 60.2224 23.0715 59.5801 22.7419V20.27C60.2431 20.5996 61.0407 20.9086 61.9729 21.197C62.9259 21.4648 63.8892 21.5987 64.8629 21.5987C66.2509 21.5987 67.2557 21.3824 67.8772 20.9498C68.4987 20.4966 68.8094 19.8992 68.8094 19.1576C68.8094 18.7456 68.6955 18.3748 68.4676 18.0452C68.2397 17.7156 67.8254 17.386 67.2246 17.0564C66.6445 16.7269 65.8055 16.3561 64.7075 15.9441C63.6302 15.5321 62.7084 15.1201 61.9418 14.7081C61.1753 14.2961 60.5849 13.8017 60.1706 13.2249C59.7562 12.6481 59.5491 11.9066 59.5491 11.0002C59.5491 9.5994 60.1188 8.51793 61.2582 7.75574C62.4183 6.99356 63.9306 6.61247 65.7951 6.61247C66.8103 6.61247 67.7529 6.71546 68.623 6.92146C69.5138 7.10685 70.3424 7.37465 71.109 7.72484L70.1767 9.8878C69.7209 9.6818 69.2341 9.5067 68.7162 9.36251C68.219 9.19771 67.7114 9.07411 67.1935 8.99172C66.6756 8.88872 66.1473 8.83722 65.6087 8.83722C64.49 8.83722 63.6302 9.02261 63.0295 9.39341C62.4494 9.7436 62.1594 10.2277 62.1594 10.8457C62.1594 11.2989 62.294 11.6903 62.5633 12.0199C62.8327 12.3288 63.2781 12.6378 63.8996 12.9468C64.5418 13.2352 65.3912 13.5854 66.4477 13.9974C67.5043 14.3888 68.4054 14.7905 69.1512 15.2025C69.897 15.6145 70.4667 16.1192 70.8604 16.7166C71.254 17.2933 71.4508 18.0246 71.4508 18.9104Z" fill="#F8F9FA"/>
<path d="M79.7949 21.5678C80.2092 21.5678 80.6339 21.5369 81.069 21.4751C81.504 21.3927 81.8562 21.3103 82.1255 21.2279V23.2981C81.8355 23.4423 81.4211 23.5556 80.8825 23.638C80.3439 23.741 79.826 23.7925 79.3288 23.7925C78.4587 23.7925 77.6507 23.6483 76.9049 23.3599C76.1798 23.0509 75.5894 22.5256 75.1336 21.7841C74.6779 21.0425 74.45 20.0022 74.45 18.6632V9.02261H72.0883V7.72484L74.4811 6.64336L75.5687 3.12084H77.1846V6.92146H82.0012V9.02261H77.1846V18.6014C77.1846 19.6108 77.4228 20.3627 77.8993 20.8571C78.3965 21.3309 79.0284 21.5678 79.7949 21.5678Z" fill="#F8F9FA"/>
<path d="M97.8285 6.92146V23.4835H95.5912L95.1872 21.2897H95.0629C94.7107 21.8665 94.2549 22.3402 93.6956 22.711C93.1362 23.0818 92.5251 23.3496 91.8622 23.5144C91.1992 23.6998 90.5052 23.7925 89.7801 23.7925C88.4543 23.7925 87.3356 23.5865 86.424 23.1745C85.5332 22.7419 84.8599 22.0827 84.4042 21.197C83.9484 20.3112 83.7205 19.1679 83.7205 17.7671V6.92146H86.4862V17.5817C86.4862 18.9001 86.7866 19.8889 87.3874 20.5481C87.9881 21.2073 88.9204 21.5369 90.1841 21.5369C91.4271 21.5369 92.4008 21.3103 93.1052 20.8571C93.8302 20.3833 94.3378 19.7035 94.6278 18.8177C94.9386 17.9113 95.094 16.8196 95.094 15.5424V6.92146H97.8285Z" fill="#F8F9FA"/>
<path d="M106.224 23.7925C104.152 23.7925 102.495 23.0818 101.252 21.6605C100.009 20.2185 99.3874 18.0761 99.3874 15.2334C99.3874 12.3906 100.009 10.2483 101.252 8.80632C102.516 7.34375 104.183 6.61247 106.255 6.61247C107.125 6.61247 107.881 6.72576 108.523 6.95236C109.166 7.15835 109.725 7.44675 110.201 7.81754C110.678 8.18833 111.082 8.60032 111.413 9.05351H111.6C111.579 8.78572 111.538 8.39433 111.476 7.87934C111.434 7.34375 111.413 6.92146 111.413 6.61247V0H114.148V23.4835H111.942L111.538 21.2588H111.413C111.082 21.7326 110.678 22.1651 110.201 22.5565C109.725 22.9273 109.155 23.226 108.492 23.4526C107.85 23.6792 107.094 23.7925 106.224 23.7925ZM106.659 21.5369C108.42 21.5369 109.652 21.0631 110.357 20.1155C111.082 19.1473 111.444 17.695 111.444 15.7587V15.2643C111.444 13.2043 111.103 11.6285 110.419 10.5367C109.735 9.42431 108.472 8.86812 106.628 8.86812C105.157 8.86812 104.049 9.45521 103.303 10.6294C102.578 11.783 102.215 13.3382 102.215 15.2952C102.215 17.2727 102.578 18.8074 103.303 19.8992C104.049 20.991 105.167 21.5369 106.659 21.5369Z" fill="#F8F9FA"/>
<path d="M119.376 6.92146V23.4835H116.641V6.92146H119.376ZM118.04 0.710685C118.454 0.710685 118.817 0.854882 119.127 1.14328C119.459 1.41107 119.624 1.84366 119.624 2.44105C119.624 3.01784 119.459 3.45043 119.127 3.73882C118.817 4.02722 118.454 4.17142 118.04 4.17142C117.584 4.17142 117.201 4.02722 116.89 3.73882C116.579 3.45043 116.424 3.01784 116.424 2.44105C116.424 1.84366 116.579 1.41107 116.89 1.14328C117.201 0.854882 117.584 0.710685 118.04 0.710685Z" fill="#F8F9FA"/>
<path d="M136.648 15.1716C136.648 16.5518 136.461 17.7774 136.088 18.8486C135.736 19.8992 135.218 20.7953 134.535 21.5369C133.872 22.2784 133.053 22.8449 132.08 23.2363C131.127 23.6071 130.06 23.7925 128.879 23.7925C127.781 23.7925 126.766 23.6071 125.834 23.2363C124.901 22.8449 124.093 22.2784 123.41 21.5369C122.726 20.7953 122.187 19.8992 121.794 18.8486C121.421 17.7774 121.235 16.5518 121.235 15.1716C121.235 13.3382 121.545 11.7933 122.167 10.5367C122.788 9.25951 123.679 8.29133 124.839 7.63214C125.999 6.95236 127.377 6.61247 128.972 6.61247C130.485 6.61247 131.81 6.95236 132.95 7.63214C134.11 8.29133 135.011 9.25951 135.653 10.5367C136.316 11.7933 136.648 13.3382 136.648 15.1716ZM124.062 15.1716C124.062 16.4694 124.228 17.6023 124.56 18.5705C124.912 19.5181 125.45 20.2494 126.175 20.7644C126.901 21.2794 127.822 21.5369 128.941 21.5369C130.06 21.5369 130.982 21.2794 131.707 20.7644C132.432 20.2494 132.96 19.5181 133.292 18.5705C133.644 17.6023 133.82 16.4694 133.82 15.1716C133.82 13.8532 133.644 12.7305 133.292 11.8036C132.939 10.8766 132.401 10.1659 131.676 9.6715C130.971 9.15651 130.049 8.89902 128.91 8.89902C127.211 8.89902 125.979 9.45521 125.212 10.5676C124.446 11.68 124.062 13.2146 124.062 15.1716Z" fill="#F8F9FA"/>
<path d="M0.2948 3.59204H16.3372C29.7513 3.59204 39.1169 6.74635 44.4342 13.055C49.8119 19.3636 52.5007 26.8738 52.5007 35.5858C52.5007 41.654 51.3527 47.2717 49.0566 52.4388C46.7605 57.5458 42.9538 61.7215 37.6365 64.9659C32.3797 68.2103 25.4612 69.8325 16.8811 69.8325H0.2948V3.59204ZM17.9687 60.9104C26.3071 60.9104 32.3495 58.5672 36.0957 53.8808C39.9024 49.1343 41.8057 43.1861 41.8057 36.0364C41.8057 29.0668 39.9024 23.3891 36.0957 19.0031C32.289 14.6171 26.2467 12.4241 17.9687 12.4241H10.4459V60.9104H17.9687Z" fill="#F8F9FA"/>
<path d="M75.1121 70.7338C70.822 70.7338 67.0153 69.7725 63.692 67.8498C60.3687 65.9272 57.8007 63.3136 55.988 60.0091C54.1753 56.7046 53.269 53.0396 53.269 49.0141C53.269 45.0487 54.1451 41.4137 55.8974 38.1092C57.7101 34.8047 60.2781 32.1911 63.6014 30.2685C66.9247 28.3459 70.7616 27.3845 75.1121 27.3845C79.4626 27.3845 83.2693 28.3459 86.5321 30.2685C89.8554 32.1911 92.3932 34.8047 94.1455 38.1092C95.9582 41.4137 96.8645 45.0487 96.8645 49.0141C96.8645 53.0396 95.9582 56.7046 94.1455 60.0091C92.3328 63.3136 89.7648 65.9272 86.4415 67.8498C83.1786 69.7725 79.4021 70.7338 75.1121 70.7338ZM75.384 62.8029C78.8885 62.8029 81.6378 61.5112 83.6318 58.9276C85.6862 56.3441 86.7134 53.0997 86.7134 49.1943C86.7134 45.289 85.6258 42.0145 83.4505 39.3709C81.2753 36.6672 78.4052 35.3154 74.8402 35.3154C71.396 35.3154 68.6165 36.6372 66.5017 39.2808C64.4473 41.9244 63.4201 45.2289 63.4201 49.1943C63.4201 53.0396 64.538 56.284 66.7736 58.9276C69.0093 61.5112 71.8794 62.8029 75.384 62.8029Z" fill="#F8F9FA"/>
<path d="M121.185 91.4621C118.104 91.4621 115.052 91.0415 112.031 90.2004C109.07 89.3592 106.955 88.5782 105.687 87.8572L107.862 78.8449C111.85 81.4284 116.2 82.7202 120.913 82.7202C124.539 82.7202 127.59 81.849 130.067 80.1066C132.545 78.3642 133.814 74.9696 133.874 69.9227V62.5326C132.605 64.8758 130.551 66.8284 127.711 68.3906C124.871 69.9527 121.729 70.7338 118.285 70.7338C114.659 70.7338 111.336 69.8626 108.315 68.1202C105.294 66.3177 102.907 63.7643 101.155 60.4597C99.4026 57.1552 98.5264 53.31 98.5264 48.924C98.5264 44.7182 99.3421 40.9931 100.974 37.7487C102.665 34.4442 105.052 31.8907 108.134 30.0882C111.215 28.2858 114.811 27.3845 118.919 27.3845C121.336 27.3845 123.602 27.8051 125.717 28.6463C127.832 29.4874 129.614 30.5389 131.064 31.8006C132.575 33.0022 133.572 34.2039 134.055 35.4055L134.237 28.466H143.482V69.5622C143.482 76.5918 141.669 81.9992 138.043 85.7843C134.418 89.5695 128.799 91.4621 121.185 91.4621ZM121.004 62.5326C124.448 62.5326 127.348 61.361 129.705 59.0178C132.061 56.6145 133.24 53.4902 133.24 49.645V49.0141C133.24 46.4306 132.696 44.1174 131.608 42.0746C130.521 40.0318 129.04 38.4397 127.167 37.2981C125.294 36.1565 123.24 35.5858 121.004 35.5858C117.137 35.5858 114.146 36.8475 112.031 39.3709C109.916 41.8343 108.859 45.0487 108.859 49.0141C108.859 53.0396 109.886 56.3141 111.94 58.8375C114.055 61.3009 117.076 62.5326 121.004 62.5326Z" fill="#F8F9FA"/>
<path d="M169.895 91.4621C166.813 91.4621 163.762 91.0415 160.74 90.2004C157.78 89.3592 155.665 88.5782 154.396 87.8572L156.571 78.8449C160.559 81.4284 164.91 82.7202 169.623 82.7202C173.248 82.7202 176.299 81.849 178.777 80.1066C181.254 78.3642 182.523 74.9696 182.584 69.9227V62.5326C181.315 64.8758 179.26 66.8284 176.42 68.3906C173.58 69.9527 170.438 70.7338 166.994 70.7338C163.369 70.7338 160.046 69.8626 157.024 68.1202C154.003 66.3177 151.616 63.7643 149.864 60.4597C148.112 57.1552 147.236 53.31 147.236 48.924C147.236 44.7182 148.052 40.9931 149.683 37.7487C151.375 34.4442 153.762 31.8907 156.843 30.0882C159.925 28.2858 163.52 27.3845 167.629 27.3845C170.046 27.3845 172.312 27.8051 174.426 28.6463C176.541 29.4874 178.324 30.5389 179.774 31.8006C181.284 33.0022 182.281 34.2039 182.765 35.4055L182.946 28.466H192.191V69.5622C192.191 76.5918 190.378 81.9992 186.753 85.7843C183.127 89.5695 177.508 91.4621 169.895 91.4621ZM169.713 62.5326C173.157 62.5326 176.058 61.361 178.414 59.0178C180.771 56.6145 181.949 53.4902 181.949 49.645V49.0141C181.949 46.4306 181.405 44.1174 180.318 42.0746C179.23 40.0318 177.75 38.4397 175.877 37.2981C174.003 36.1565 171.949 35.5858 169.713 35.5858C165.846 35.5858 162.855 36.8475 160.74 39.3709C158.626 41.8343 157.568 45.0487 157.568 49.0141C157.568 53.0396 158.595 56.3141 160.65 58.8375C162.765 61.3009 165.786 62.5326 169.713 62.5326Z" fill="#F8F9FA"/>
<path d="M210.356 71.0943L193.135 28.466H204.193L213.075 54.782L215.069 61.1807L217.063 54.782L226.399 28.466H237.094L211.534 92.5436H201.383L210.356 71.0943Z" fill="#F8F9FA"/>
</svg>
