<svg width="240" height="94" viewBox="0 0 240 94" fill="none" xmlns="http://www.w3.org/2000/svg">
<path d="M80.5604 42.1937C79.2891 40.8914 77.6077 40.9962 77.2884 43.3116C77.0062 45.3558 77.2278 46.2701 77.878 47.1499C78.5283 48.0296 79.3131 48.8348 80.6146 48.4493C81.3925 48.2189 82.311 47.9644 82.6181 46.126C82.9406 44.1915 80.5604 42.1937 80.5604 42.1937Z" fill="#6091A6"/>
<path d="M69.7855 52.4549C69.5572 50.7609 70.1188 50.0209 72.089 50.5591C74.0591 51.0972 74.9637 52.1523 75.2415 53.1473C75.5193 54.1424 75.3264 55.412 74.2631 56.1121C73.6277 56.5304 73.2171 56.9912 71.6481 56.1048C69.9969 55.172 69.7855 52.4549 69.7855 52.4549Z" fill="#6091A6"/>
<path d="M86.7588 45.1944C85.7297 43.8225 84.8058 43.6801 83.7726 45.4262C82.7395 47.1723 82.8341 48.5531 83.3356 49.4582C83.8372 50.3633 84.8695 51.1401 86.1246 50.9076C86.8747 50.7687 87.4934 50.8154 87.994 49.0966C88.5205 47.2878 86.7588 45.1944 86.7588 45.1944Z" fill="#6091A6"/>
<path d="M87.1271 52.685C85.6271 51.3656 84.7509 52.1472 82.7583 50.4921C80.4375 48.5638 78.5608 49.498 78.5602 49.4984C78.5596 49.4987 76.5922 50.2305 76.4729 53.2161C76.3703 55.7789 75.1926 55.8878 75.1703 57.8669C75.1563 59.0953 76.5207 60.5725 78.4709 59.6815C80.2823 58.8538 81.0802 59.098 82.5867 58.486C84.0625 57.8055 84.4177 57.0616 86.2611 56.3053C88.246 55.4909 88.0581 53.5038 87.1271 52.685Z" fill="#6091A6"/>
<path d="M71.7906 45.8456C71.8413 44.0318 73.1514 42.9791 74.9619 44.4704C76.5604 45.787 77.0191 46.6096 77.1385 47.6948C77.2578 48.78 77.2272 49.9006 76.006 50.4911C75.2762 50.8441 74.4259 51.2739 72.9497 50.1254C71.3957 48.9172 71.7906 45.8456 71.7906 45.8456Z" fill="#6091A6"/>
<path d="M72.4509 18.9104C72.4509 19.9816 72.1816 20.8777 71.643 21.5987C71.1043 22.3196 70.3378 22.8655 69.3434 23.2363C68.349 23.6071 67.1682 23.7925 65.8009 23.7925C64.6407 23.7925 63.636 23.6998 62.7866 23.5144C61.9579 23.329 61.2225 23.0715 60.5803 22.7419V20.27C61.2432 20.5996 62.0408 20.9086 62.973 21.197C63.926 21.4648 64.8893 21.5987 65.863 21.5987C67.251 21.5987 68.2558 21.3824 68.8773 20.9498C69.4988 20.4966 69.8095 19.8992 69.8095 19.1576C69.8095 18.7456 69.6956 18.3748 69.4677 18.0452C69.2398 17.7156 68.8255 17.386 68.2247 17.0564C67.6446 16.7269 66.8056 16.3561 65.7076 15.9441C64.6304 15.5321 63.7085 15.1201 62.942 14.7081C62.1754 14.2961 61.585 13.8017 61.1707 13.2249C60.7564 12.6481 60.5492 11.9066 60.5492 11.0002C60.5492 9.5994 61.1189 8.51793 62.2583 7.75574C63.4184 6.99356 64.9308 6.61246 66.7953 6.61246C67.8104 6.61246 68.753 6.71546 69.6231 6.92146C70.5139 7.10685 71.3426 7.37465 72.1091 7.72484L71.1768 9.8878C70.7211 9.6818 70.2342 9.50671 69.7163 9.36251C69.2191 9.19771 68.7115 9.07411 68.1936 8.99172C67.6757 8.88872 67.1474 8.83722 66.6088 8.83722C65.4901 8.83722 64.6304 9.02261 64.0296 9.39341C63.4495 9.7436 63.1595 10.2277 63.1595 10.8457C63.1595 11.2989 63.2941 11.6903 63.5635 12.0199C63.8328 12.3288 64.2782 12.6378 64.8997 12.9468C65.5419 13.2352 66.3913 13.5854 67.4478 13.9974C68.5044 14.3888 69.4056 14.7905 70.1514 15.2025C70.8972 15.6145 71.4669 16.1192 71.8605 16.7166C72.2541 17.2933 72.4509 18.0246 72.4509 18.9104Z" fill="#6091A6"/>
<path d="M80.795 21.5678C81.2093 21.5678 81.634 21.5369 82.0691 21.4751C82.5041 21.3927 82.8563 21.3103 83.1256 21.2279V23.2981C82.8356 23.4423 82.4213 23.5556 81.8826 23.638C81.344 23.741 80.8261 23.7925 80.3289 23.7925C79.4588 23.7925 78.6508 23.6483 77.905 23.3599C77.18 23.0509 76.5895 22.5256 76.1338 21.7841C75.678 21.0425 75.4501 20.0022 75.4501 18.6632V9.02261H73.0884V7.72484L75.4812 6.64336L76.5688 3.12084H78.1847V6.92146H83.0013V9.02261H78.1847V18.6014C78.1847 19.6108 78.423 20.3627 78.8994 20.8571C79.3966 21.3309 80.0285 21.5678 80.795 21.5678Z" fill="#6091A6"/>
<path d="M98.8287 6.92146V23.4835H96.5913L96.1873 21.2897H96.063C95.7108 21.8665 95.2551 22.3402 94.6957 22.711C94.1364 23.0818 93.5252 23.3496 92.8623 23.5144C92.1993 23.6998 91.5053 23.7925 90.7803 23.7925C89.4544 23.7925 88.3357 23.5865 87.4242 23.1745C86.5333 22.7419 85.8601 22.0827 85.4043 21.197C84.9485 20.3112 84.7206 19.1679 84.7206 17.7671V6.92146H87.4863V17.5817C87.4863 18.9001 87.7867 19.8889 88.3875 20.5481C88.9883 21.2073 89.9205 21.5369 91.1842 21.5369C92.4272 21.5369 93.4009 21.3103 94.1053 20.8571C94.8304 20.3833 95.3379 19.7035 95.6279 18.8177C95.9387 17.9113 96.0941 16.8196 96.0941 15.5424V6.92146H98.8287Z" fill="#6091A6"/>
<path d="M107.224 23.7925C105.152 23.7925 103.495 23.0818 102.252 21.6605C101.009 20.2185 100.388 18.0761 100.388 15.2334C100.388 12.3906 101.009 10.2483 102.252 8.80632C103.516 7.34375 105.183 6.61246 107.255 6.61246C108.125 6.61246 108.881 6.72576 109.524 6.95236C110.166 7.15835 110.725 7.44675 111.202 7.81754C111.678 8.18833 112.082 8.60032 112.414 9.05351H112.6C112.579 8.78572 112.538 8.39433 112.476 7.87934C112.434 7.34375 112.414 6.92146 112.414 6.61246V0H115.148V23.4835H112.942L112.538 21.2588H112.414C112.082 21.7326 111.678 22.1651 111.202 22.5565C110.725 22.9273 110.155 23.226 109.492 23.4526C108.85 23.6792 108.094 23.7925 107.224 23.7925ZM107.659 21.5369C109.42 21.5369 110.653 21.0631 111.357 20.1155C112.082 19.1473 112.445 17.695 112.445 15.7587V15.2643C112.445 13.2043 112.103 11.6285 111.419 10.5367C110.735 9.42431 109.472 8.86812 107.628 8.86812C106.157 8.86812 105.049 9.4552 104.303 10.6294C103.578 11.783 103.215 13.3382 103.215 15.2952C103.215 17.2727 103.578 18.8074 104.303 19.8992C105.049 20.991 106.167 21.5369 107.659 21.5369Z" fill="#6091A6"/>
<path d="M120.376 6.92146V23.4835H117.641V6.92146H120.376ZM119.04 0.710685C119.454 0.710685 119.817 0.854882 120.127 1.14328C120.459 1.41107 120.625 1.84366 120.625 2.44105C120.625 3.01784 120.459 3.45043 120.127 3.73882C119.817 4.02722 119.454 4.17142 119.04 4.17142C118.584 4.17142 118.201 4.02722 117.89 3.73882C117.579 3.45043 117.424 3.01784 117.424 2.44105C117.424 1.84366 117.579 1.41107 117.89 1.14328C118.201 0.854882 118.584 0.710685 119.04 0.710685Z" fill="#6091A6"/>
<path d="M137.648 15.1716C137.648 16.5518 137.461 17.7774 137.088 18.8486C136.736 19.8992 136.218 20.7953 135.535 21.5369C134.872 22.2784 134.053 22.8449 133.08 23.2363C132.127 23.6071 131.06 23.7925 129.879 23.7925C128.781 23.7925 127.766 23.6071 126.834 23.2363C125.902 22.8449 125.094 22.2784 124.41 21.5369C123.726 20.7953 123.188 19.8992 122.794 18.8486C122.421 17.7774 122.235 16.5518 122.235 15.1716C122.235 13.3382 122.545 11.7933 123.167 10.5367C123.788 9.25951 124.679 8.29133 125.839 7.63214C126.999 6.95236 128.377 6.61246 129.972 6.61246C131.485 6.61246 132.81 6.95236 133.95 7.63214C135.11 8.29133 136.011 9.25951 136.653 10.5367C137.316 11.7933 137.648 13.3382 137.648 15.1716ZM125.062 15.1716C125.062 16.4694 125.228 17.6023 125.56 18.5705C125.912 19.5181 126.45 20.2494 127.176 20.7644C127.901 21.2794 128.823 21.5369 129.941 21.5369C131.06 21.5369 131.982 21.2794 132.707 20.7644C133.432 20.2494 133.96 19.5181 134.292 18.5705C134.644 17.6023 134.82 16.4694 134.82 15.1716C134.82 13.8532 134.644 12.7305 134.292 11.8036C133.94 10.8766 133.401 10.1659 132.676 9.6715C131.971 9.15651 131.05 8.89902 129.91 8.89902C128.211 8.89902 126.979 9.45521 126.212 10.5676C125.446 11.68 125.062 13.2146 125.062 15.1716Z" fill="#6091A6"/>
<path d="M1.29486 3.59204H17.3373C30.7513 3.59204 40.117 6.74635 45.4342 13.055C50.8119 19.3636 53.5008 26.8738 53.5008 35.5858C53.5008 41.654 52.3527 47.2717 50.0566 52.4388C47.7605 57.5458 43.9539 61.7215 38.6366 64.9659C33.3797 68.2103 26.4613 69.8325 17.8811 69.8325H1.29486V3.59204ZM18.9687 60.9104C27.3072 60.9104 33.3495 58.5672 37.0958 53.8808C40.9025 49.1343 42.8058 43.1861 42.8058 36.0364C42.8058 29.0668 40.9025 23.3891 37.0958 19.0031C33.2891 14.6171 27.2468 12.4241 18.9687 12.4241H11.446V60.9104H18.9687Z" fill="#6091A6"/>
<path d="M76.1121 70.7338C71.8221 70.7338 68.0154 69.7725 64.6921 67.8498C61.3688 65.9272 58.8008 63.3136 56.9881 60.0091C55.1754 56.7046 54.269 53.0396 54.269 49.0141C54.269 45.0487 55.1452 41.4137 56.8975 38.1092C58.7102 34.8047 61.2782 32.1911 64.6015 30.2685C67.9248 28.3459 71.7616 27.3845 76.1121 27.3845C80.4626 27.3845 84.2693 28.3459 87.5322 30.2685C90.8555 32.1911 93.3933 34.8047 95.1455 38.1092C96.9582 41.4137 97.8646 45.0487 97.8646 49.0141C97.8646 53.0396 96.9582 56.7046 95.1455 60.0091C93.3328 63.3136 90.7648 65.9272 87.4416 67.8498C84.1787 69.7725 80.4022 70.7338 76.1121 70.7338ZM76.384 62.8029C79.8886 62.8029 82.6379 61.5112 84.6319 58.9276C86.6862 56.3441 87.7135 53.0997 87.7135 49.1943C87.7135 45.289 86.6258 42.0145 84.4506 39.3709C82.2753 36.6672 79.4052 35.3154 75.8402 35.3154C72.3961 35.3154 69.6166 36.6372 67.5018 39.2808C65.4474 41.9244 64.4202 45.2289 64.4202 49.1943C64.4202 53.0396 65.538 56.284 67.7737 58.9276C70.0094 61.5112 72.8795 62.8029 76.384 62.8029Z" fill="#6091A6"/>
<path d="M122.185 91.4621C119.104 91.4621 116.052 91.0415 113.031 90.2004C110.07 89.3592 107.956 88.5781 106.687 87.8572L108.862 78.8449C112.85 81.4284 117.2 82.7202 121.913 82.7202C125.539 82.7202 128.59 81.849 131.068 80.1066C133.545 78.3642 134.814 74.9696 134.874 69.9227V62.5326C133.605 64.8758 131.551 66.8284 128.711 68.3906C125.871 69.9527 122.729 70.7338 119.285 70.7338C115.66 70.7338 112.336 69.8626 109.315 68.1202C106.294 66.3177 103.907 63.7643 102.155 60.4597C100.403 57.1552 99.5265 53.31 99.5265 48.924C99.5265 44.7182 100.342 40.9931 101.974 37.7487C103.665 34.4442 106.052 31.8907 109.134 30.0882C112.215 28.2858 115.811 27.3845 119.919 27.3845C122.336 27.3845 124.602 27.8051 126.717 28.6463C128.832 29.4874 130.614 30.5389 132.065 31.8006C133.575 33.0022 134.572 34.2039 135.055 35.4055L135.237 28.466H144.482V69.5622C144.482 76.5918 142.669 81.9992 139.043 85.7843C135.418 89.5695 129.799 91.4621 122.185 91.4621ZM122.004 62.5326C125.448 62.5326 128.348 61.361 130.705 59.0178C133.062 56.6145 134.24 53.4902 134.24 49.645V49.0141C134.24 46.4306 133.696 44.1174 132.608 42.0746C131.521 40.0318 130.04 38.4397 128.167 37.2981C126.294 36.1565 124.24 35.5858 122.004 35.5858C118.137 35.5858 115.146 36.8475 113.031 39.3709C110.916 41.8343 109.859 45.0487 109.859 49.0141C109.859 53.0396 110.886 56.3141 112.94 58.8375C115.055 61.3009 118.076 62.5326 122.004 62.5326Z" fill="#6091A6"/>
<path d="M170.895 91.4621C167.813 91.4621 164.762 91.0415 161.74 90.2004C158.78 89.3592 156.665 88.5781 155.396 87.8572L157.571 78.8449C161.559 81.4284 165.91 82.7202 170.623 82.7202C174.248 82.7202 177.3 81.849 179.777 80.1066C182.254 78.3642 183.523 74.9696 183.584 69.9227V62.5326C182.315 64.8758 180.26 66.8284 177.42 68.3906C174.58 69.9527 171.438 70.7338 167.994 70.7338C164.369 70.7338 161.046 69.8626 158.024 68.1202C155.003 66.3177 152.617 63.7643 150.864 60.4597C149.112 57.1552 148.236 53.31 148.236 48.924C148.236 44.7182 149.052 40.9931 150.683 37.7487C152.375 34.4442 154.762 31.8907 157.843 30.0882C160.925 28.2858 164.52 27.3845 168.629 27.3845C171.046 27.3845 173.312 27.8051 175.426 28.6463C177.541 29.4874 179.324 30.5389 180.774 31.8006C182.285 33.0022 183.281 34.2039 183.765 35.4055L183.946 28.466H193.191V69.5622C193.191 76.5918 191.378 81.9992 187.753 85.7843C184.127 89.5695 178.508 91.4621 170.895 91.4621ZM170.713 62.5326C174.158 62.5326 177.058 61.361 179.414 59.0178C181.771 56.6145 182.949 53.4902 182.949 49.645V49.0141C182.949 46.4306 182.405 44.1174 181.318 42.0746C180.23 40.0318 178.75 38.4397 176.877 37.2981C175.003 36.1565 172.949 35.5858 170.713 35.5858C166.846 35.5858 163.855 36.8475 161.74 39.3709C159.626 41.8343 158.568 45.0487 158.568 49.0141C158.568 53.0396 159.595 56.3141 161.65 58.8375C163.765 61.3009 166.786 62.5326 170.713 62.5326Z" fill="#6091A6"/>
<path d="M211.356 71.0943L194.136 28.466H205.193L214.075 54.782L216.069 61.1807L218.063 54.782L227.399 28.466H238.094L212.534 92.5436H202.383L211.356 71.0943Z" fill="#6091A6"/>
<path fill-rule="evenodd" clip-rule="evenodd" d="M0 2.30457H17.3372C30.8982 2.30457 40.7417 5.48587 46.4239 12.2249C52.0097 18.7787 54.7955 26.5877 54.7955 35.5858C54.7955 37.1057 54.7253 38.5997 54.5848 40.0675C54.921 39.1954 55.31 38.3423 55.7521 37.5087L55.7606 37.4926C57.6884 33.9783 60.4259 31.1946 63.9502 29.1557C67.4962 27.1042 71.5635 26.0971 76.1121 26.0971C80.6581 26.0971 84.6981 27.1032 88.1876 29.1582C91.7105 31.1973 94.419 33.9825 96.2863 37.5002C97.3909 39.5156 98.1757 41.6451 98.6429 43.8839C99.0542 41.4798 99.7758 39.2405 100.815 37.1729L100.82 37.1646C102.618 33.6512 105.173 30.911 108.477 28.9785C111.786 27.0432 115.615 26.0971 119.919 26.0971C122.491 26.0971 124.921 26.5453 127.198 27.4509C129.414 28.3325 131.321 29.4483 132.896 30.813C133.236 31.0849 133.558 31.361 133.859 31.6414L133.975 27.1786H145.776V69.5622C145.776 76.8058 143.905 82.5748 139.981 86.6723C136.019 90.8087 129.993 92.7496 122.185 92.7496C118.983 92.7496 115.815 92.3124 112.682 91.4402L112.675 91.4383C109.699 90.5928 107.457 89.7777 106.044 88.975L105.201 88.4958L108.031 76.77L109.569 77.7661C113.349 80.2149 117.454 81.4327 121.913 81.4327C125.324 81.4327 128.101 80.616 130.32 79.0555C132.281 77.6759 133.519 74.8207 133.579 69.9147V66.3893C132.4 67.5719 130.982 68.613 129.338 69.5172C126.294 71.1913 122.934 72.0212 119.285 72.0212C115.44 72.0212 111.892 71.0946 108.665 69.2339L108.657 69.2291L108.649 69.2242C105.411 67.2925 102.865 64.5586 101.01 61.0602C99.8826 58.9351 99.1037 56.6135 98.6635 54.1038C98.1986 56.4014 97.4059 58.5771 96.2822 60.6256C94.3551 64.1387 91.6189 66.9217 88.0965 68.9604C84.6098 71.0136 80.6011 72.0212 76.1121 72.0212C71.6204 72.0212 67.5841 71.0125 64.0409 68.9627C60.5166 66.9237 57.7791 64.14 55.8513 60.6256C53.9277 57.1189 52.9742 53.2396 52.9742 49.0141C52.9742 48.7642 52.9775 48.5155 52.9842 48.2679C52.5004 49.8684 51.9194 51.4323 51.2409 52.9591L51.2386 52.9642C48.8251 58.3325 44.8298 62.6967 39.3172 66.0611C33.7909 69.4711 26.6118 71.12 17.881 71.12H0V2.30457ZM87.4415 67.8498C90.7648 65.9272 93.3328 63.3136 95.1455 60.0091C96.9582 56.7046 97.8645 53.0396 97.8645 49.0141C97.8645 45.0487 96.9582 41.4137 95.1455 38.1092C93.3932 34.8047 90.8554 32.1911 87.5321 30.2685C84.2692 28.3459 80.4626 27.3845 76.1121 27.3845C71.7616 27.3845 67.9247 28.3459 64.6014 30.2685C61.2781 32.1911 58.7101 34.8047 56.8974 38.1092C55.1451 41.4137 54.269 45.0487 54.269 49.0141C54.269 53.0396 55.1753 56.7046 56.988 60.0091C58.8007 63.3136 61.3687 65.9272 64.692 67.8498C68.0153 69.7725 71.822 70.7338 76.1121 70.7338C80.4021 70.7338 84.1786 69.7725 87.4415 67.8498ZM133.579 64.4636C134.076 63.8525 134.508 63.2088 134.874 62.5326V69.9227C134.814 74.9696 133.545 78.3642 131.067 80.1066C128.59 81.849 125.539 82.7202 121.913 82.7202C117.653 82.7202 113.69 81.6649 110.022 79.5542C109.632 79.3297 109.245 79.0933 108.862 78.8449L106.687 87.8572C107.955 88.5782 110.07 89.3592 113.031 90.2004C116.052 91.0415 119.104 91.4621 122.185 91.4621C129.799 91.4621 135.418 89.5695 139.043 85.7843C142.669 81.9992 144.481 76.5918 144.481 69.5622V28.466H135.237L135.055 35.4055C134.793 34.7521 134.378 34.0988 133.811 33.4454C133.336 32.8971 132.754 32.3489 132.064 31.8006C130.614 30.5389 128.832 29.4874 126.717 28.6463C124.602 27.8051 122.336 27.3845 119.919 27.3845C115.811 27.3845 112.215 28.2858 109.134 30.0882C106.052 31.8907 103.665 34.4442 101.974 37.7487C100.342 40.9931 99.5264 44.7182 99.5264 48.924C99.5264 53.31 100.403 57.1552 102.155 60.4597C103.907 63.7643 106.294 66.3177 109.315 68.1202C112.336 69.8626 115.659 70.7338 119.285 70.7338C122.729 70.7338 125.871 69.9527 128.711 68.3906C130.731 67.2792 132.354 65.9703 133.579 64.4636ZM36.0821 53.0796L36.0834 53.078C39.676 48.5985 41.5109 42.9485 41.5109 36.0364C41.5109 29.3101 39.6799 23.9512 36.1155 19.8443C32.6447 15.8452 27.0339 13.7116 18.9687 13.7116H12.7407V59.6229H18.9687C27.0732 59.6229 32.6667 57.3522 36.0821 53.0796ZM11.4459 60.9104V12.4241H18.9687C27.2467 12.4241 33.289 14.6171 37.0957 19.0031C40.9024 23.3891 42.8057 29.0668 42.8057 36.0364C42.8057 43.1861 40.9024 49.1343 37.0957 53.8808C33.3495 58.5672 27.3071 60.9104 18.9687 60.9104H11.4459ZM83.6103 58.1364L83.6161 58.1291C85.4577 55.8132 86.4186 52.8658 86.4186 49.1943C86.4186 45.5413 85.4076 42.5672 83.4484 40.1862L83.4394 40.1752C81.5166 37.7853 79.0227 36.6029 75.8402 36.6029C72.7873 36.6029 70.3851 37.7483 68.5207 40.0752C66.6763 42.4522 65.7149 45.4624 65.7149 49.1943C65.7149 52.7702 66.746 55.7093 68.7598 58.0933C70.7425 60.3817 73.2493 61.5155 76.384 61.5155C79.5187 61.5155 81.8749 60.3849 83.6046 58.1438L83.6103 58.1364ZM67.7736 58.9276C65.538 56.284 64.4201 53.0396 64.4201 49.1943C64.4201 45.2289 65.4473 41.9244 67.5017 39.2808C69.6165 36.6372 72.396 35.3154 75.8402 35.3154C79.4051 35.3154 82.2753 36.6672 84.4505 39.3709C86.6258 42.0145 87.7134 45.289 87.7134 49.1943C87.7134 53.0997 86.6862 56.3441 84.6318 58.9276C82.6378 61.5112 79.8885 62.8029 76.384 62.8029C72.8794 62.8029 70.0093 61.5112 67.7736 58.9276ZM114.016 40.2068C112.143 42.388 111.154 45.2837 111.154 49.0141C111.154 52.8108 112.117 55.7737 113.937 58.0159C115.755 60.1246 118.378 61.2451 122.004 61.2451C125.115 61.2451 127.68 60.2022 129.784 58.1131C131.866 55.9864 132.945 53.204 132.945 49.645V49.0141C132.945 46.6155 132.442 44.5132 131.464 42.677C130.478 40.8257 129.154 39.4098 127.491 38.3958C125.825 37.3806 124.005 36.8732 122.004 36.8732C118.448 36.8732 115.851 38.0167 114.026 40.1951L114.016 40.2068ZM112.94 58.8375C110.886 56.3141 109.859 53.0396 109.859 49.0141C109.859 45.0487 110.916 41.8343 113.031 39.3709C115.146 36.8475 118.137 35.5858 122.004 35.5858C124.24 35.5858 126.294 36.1565 128.167 37.2981C130.04 38.4397 131.521 40.0318 132.608 42.0746C133.696 44.1174 134.24 46.4306 134.24 49.0141V49.645C134.24 53.4902 133.061 56.6145 130.705 59.0178C128.348 61.361 125.448 62.5326 122.004 62.5326C118.076 62.5326 115.055 61.3009 112.94 58.8375ZM161.391 91.4402L161.385 91.4383C158.409 90.5928 156.166 89.7777 154.754 88.975L153.91 88.4958L156.74 76.77L158.278 77.7661C162.058 80.2149 166.163 81.4327 170.623 81.4327C174.034 81.4327 176.81 80.616 179.029 79.0555C180.991 77.6758 182.229 74.8204 182.289 69.9139V66.3893C181.11 67.5719 179.691 68.613 178.047 69.5172C175.004 71.1913 171.644 72.0212 167.994 72.0212C164.15 72.0212 160.601 71.0946 157.375 69.2339L157.366 69.2291L157.358 69.2242C154.12 67.2925 151.574 64.5586 149.719 61.0602C147.853 57.5409 146.941 53.4828 146.941 48.924C146.941 44.5502 147.79 40.6226 149.525 37.1729L149.529 37.1646C151.328 33.6512 153.883 30.911 157.187 28.9785C160.495 27.0432 164.324 26.0971 168.629 26.0971C171.2 26.0971 173.63 26.5453 175.907 27.4509C178.124 28.3324 180.031 29.4482 181.605 30.8129C181.946 31.0848 182.267 31.3609 182.568 31.6414L182.684 27.1786H206.124L215.308 54.3866L216.069 56.8308L216.834 54.3772L226.482 27.1786H240L213.414 93.831H200.442L209.957 71.0858L194.486 32.787V69.5622C194.486 76.8058 192.615 82.5748 188.69 86.6723C184.728 90.8087 178.702 92.7496 170.895 92.7496C167.693 92.7496 164.524 92.3124 161.391 91.4402ZM193.191 28.466H183.946L183.765 35.4055C183.502 34.7521 183.087 34.0988 182.521 33.4454C182.045 32.8971 181.463 32.3489 180.774 31.8006C179.324 30.5389 177.541 29.4874 175.426 28.6463C173.312 27.8051 171.046 27.3845 168.629 27.3845C164.52 27.3845 160.925 28.2858 157.843 30.0882C154.762 31.8907 152.375 34.4442 150.683 37.7487C149.051 40.9931 148.236 44.7182 148.236 48.924C148.236 53.31 149.112 57.1552 150.864 60.4597C152.616 63.7643 155.003 66.3177 158.024 68.1202C161.046 69.8626 164.369 70.7338 167.994 70.7338C171.438 70.7338 174.58 69.9527 177.42 68.3906C179.441 67.2792 181.063 65.9703 182.289 64.4636C182.786 63.8525 183.217 63.2088 183.584 62.5326V69.9227C183.523 74.9696 182.254 78.3642 179.777 80.1066C177.299 81.849 174.248 82.7202 170.623 82.7202C166.363 82.7202 162.399 81.6649 158.732 79.5542C158.341 79.3297 157.955 79.0933 157.571 78.8449L155.396 87.8572C156.665 88.5782 158.78 89.3592 161.74 90.2004C164.762 91.0415 167.813 91.4621 170.895 91.4621C178.508 91.4621 184.127 89.5695 187.753 85.7843C191.378 81.9992 193.191 76.5918 193.191 69.5622V28.466ZM211.356 71.0943L202.383 92.5436H212.534L238.094 28.466H227.399L218.063 54.782L216.069 61.1807L214.075 54.782L205.193 28.466H194.135L211.356 71.0943ZM162.735 40.1951L162.725 40.2069C160.853 42.388 159.863 45.2837 159.863 49.0141C159.863 52.8099 160.826 55.7723 162.645 58.0142C164.463 60.124 167.086 61.2451 170.713 61.2451C173.824 61.2451 176.389 60.2022 178.493 58.1131C180.575 55.9864 181.654 53.204 181.654 49.645V49.0141C181.654 46.6155 181.151 44.5132 180.173 42.677C179.188 40.8257 177.864 39.4098 176.2 38.3958C174.534 37.3806 172.715 36.8732 170.713 36.8732C167.158 36.8732 164.561 38.0167 162.735 40.1951ZM161.65 58.8375C159.595 56.3141 158.568 53.0396 158.568 49.0141C158.568 45.0487 159.626 41.8343 161.74 39.3709C163.855 36.8475 166.846 35.5858 170.713 35.5858C172.949 35.5858 175.003 36.1565 176.877 37.2981C178.75 38.4397 180.23 40.0318 181.318 42.0746C182.405 44.1174 182.949 46.4306 182.949 49.0141V49.645C182.949 53.4902 181.771 56.6145 179.414 59.0178C177.058 61.361 174.157 62.5326 170.713 62.5326C166.786 62.5326 163.765 61.3009 161.65 58.8375ZM1.29479 3.59204V69.8325H17.881C26.4612 69.8325 33.3797 68.2103 38.6365 64.9659C43.9538 61.7215 47.7605 57.5458 50.0566 52.4388C52.3527 47.2717 53.5007 41.654 53.5007 35.5858C53.5007 26.8738 50.8119 19.3636 45.4342 13.055C40.1169 6.74635 30.7512 3.59204 17.3372 3.59204H1.29479Z" fill="#F8F9FA"/>
</svg>
